<?xml version="1.0" encoding="UTF-8" standalone="no"?>
<svg
   xmlns:dc="http://purl.org/dc/elements/1.1/"
   xmlns:cc="http://creativecommons.org/ns#"
   xmlns:rdf="http://www.w3.org/1999/02/22-rdf-syntax-ns#"
   xmlns:svg="http://www.w3.org/2000/svg"
   xmlns="http://www.w3.org/2000/svg"
   xmlns:sodipodi="http://sodipodi.sourceforge.net/DTD/sodipodi-0.dtd"
   xmlns:inkscape="http://www.inkscape.org/namespaces/inkscape"
   version="1.0"
   width="40"
   height="40"
   viewBox="0 0 8 8.0000001"
   id="svg3729"
   sodipodi:docname="plane270.svg"
   inkscape:version="0.92.4 (5da689c313, 2019-01-14)">
  <metadata
     id="metadata3735">
    <rdf:RDF>
      <cc:Work
         rdf:about="">
        <dc:format>image/svg+xml</dc:format>
        <dc:type
           rdf:resource="http://purl.org/dc/dcmitype/StillImage" />
        <dc:title></dc:title>
      </cc:Work>
    </rdf:RDF>
  </metadata>
  <defs
     id="defs3733" />
  <sodipodi:namedview
     pagecolor="#ffffff"
     bordercolor="#666666"
     borderopacity="1"
     objecttolerance="10"
     gridtolerance="10"
     guidetolerance="10"
     inkscape:pageopacity="0"
     inkscape:pageshadow="2"
     inkscape:window-width="3440"
     inkscape:window-height="1377"
     id="namedview3731"
     showgrid="false"
     inkscape:zoom="13.4"
     inkscape:cx="-37.974908"
     inkscape:cy="8.2999227"
     inkscape:window-x="-8"
     inkscape:window-y="477"
     inkscape:window-maximized="1"
     inkscape:current-layer="svg3729"
     fit-margin-top="0"
     fit-margin-left="0"
     fit-margin-right="0"
     fit-margin-bottom="0" />
  <path
     style="fill:#aa0000;stroke-width:0.01492537"
     d="M 4.5126345,7.7631498 C 4.2704437,7.5204736 4.2449229,7.4755468 3.9495663,6.7719226 3.8035925,6.4241712 3.6767633,6.1304424 3.6677233,6.1191918 3.6444513,6.0902278 3.5194659,6.0757228 3.5300135,6.1032098 c 0.013074,0.034072 -0.039063,0.038325 -0.1685996,0.013752 -0.1522128,-0.028874 -0.3295298,-0.09309 -0.3295298,-0.1193392 0,-0.037375 0.06347,-0.2980158 0.076586,-0.3145032 0.016944,-0.021298 0.129918,-0.00188 0.2798332,0.048122 0.060583,0.020203 0.1120278,0.034807 0.1143224,0.032455 0.00229,-0.00235 -0.100368,-0.2208822 -0.228139,-0.485621 L 3.0421753,4.796732 h -0.071841 c -0.060546,0 -0.07036,0.00386 -0.062418,0.024556 0.00844,0.021983 -0.002,0.023431 -0.099516,0.013822 C 2.7032289,4.824746 2.4416457,4.749712 2.4138135,4.7219238 c -0.019932,-0.0199 0.050762,-0.3290574 0.077599,-0.3393556 0.034836,-0.013368 0.2413618,0.037586 0.3208876,0.079169 0.040375,0.021112 0.076224,0.03557 0.079664,0.03213 C 2.8954041,4.4904272 2.7983201,4.2829444 2.6762203,4.032795 2.5541209,3.782645 2.4423091,3.5467856 2.4277497,3.5086624 2.4131907,3.4705394 2.3903657,3.4361714 2.3770287,3.4322894 2.3636917,3.4284094 2.0975557,3.3547714 1.7856155,3.2686534 1.0564013,3.0673384 0.82270931,2.983692 0.47964531,2.8012014 0.13384051,2.617253 -0.05788939,2.4479748 -0.01378039,2.3655564 c 0.051195,-0.095659 0.417145,-0.1269582 0.8740227,-0.074754 0.25754949,0.029429 0.52357579,0.089995 1.10835619,0.25234 0.4072804,0.113068 0.5963716,0.159362 0.6134944,0.1501982 0.013614,-0.00729 0.037446,-0.027273 0.05296,-0.044417 0.015514,-0.017144 0.2051782,-0.160083 0.4214748,-0.3176438 0.2162966,-0.1575606 0.3932666,-0.2919174 0.3932666,-0.2985708 0,-0.00665 -0.031903,-0.012134 -0.070896,-0.01218 -0.1116236,-1.342e-4 -0.347015,-0.074325 -0.347015,-0.1093777 0,-0.00904 0.015008,-0.085502 0.033352,-0.1699084 l 0.033352,-0.1534664 0.045006,2.2e-4 c 0.066421,3.26e-4 0.214731,0.037994 0.3309058,0.084045 0.1063652,0.042162 0.126473,0.05753 0.1148636,0.087784 -0.00814,0.021204 0.095354,0.086366 0.1213332,0.076396 0.030658,-0.011765 0.8060002,-0.5921268 0.8112366,-0.60723 0.00274,-0.00789 -0.018288,-0.01435 -0.04672,-0.01435 -0.028432,0 -0.1163054,-0.020915 -0.1952736,-0.046477 -0.111505,-0.036095 -0.1435786,-0.052514 -0.1435786,-0.0735 0,-0.04096 0.061501,-0.30366923 0.074352,-0.31760473 0.029097,-0.031552 0.4093606,0.079641 0.4790444,0.140078 0.018294,0.015866 0.025516,0.028847 0.016052,0.028847 -0.00947,0 -0.01721,0.00527 -0.01721,0.011707 0,0.013843 0.079789,0.06292 0.1022958,0.06292 0.00858,0 0.2459766,-0.19191383 0.5275478,-0.42647513 0.5244606,-0.4368991 0.5941114,-0.4852111 0.810455,-0.5621585 0.1366724,-0.0486105 0.3020908,-0.0809175 0.3204272,-0.0625809 0.00878,0.008777 -0.029898,0.0532085 -0.1031034,0.1184508 -0.066678,0.059425 -0.3591254,0.389223 -0.6788046,0.7654996 l -0.5616556,0.66109373 0.045133,0.015733 c 0.057713,0.020119 0.042955,0.046414 -0.019476,0.034702 -0.045052,-0.00845 -0.053843,-0.00142 -0.1781144,0.142477 -0.071898,0.083252 -0.1268902,0.1575693 -0.1222056,0.1651491 0.00468,0.00758 0.021554,0.013781 0.037487,0.013781 0.015934,0 0.02897,0.00672 0.02897,0.014925 0,0.00821 -0.027578,0.014925 -0.061285,0.014925 -0.047641,0 -0.067838,0.00833 -0.090721,0.037422 -0.063498,0.080725 -0.3591838,0.4922366 -0.3654814,0.508648 -0.00367,0.00958 0.01051,0.021726 0.031522,0.027 0.062038,0.01557 0.046536,0.044018 -0.018336,0.033645 l -0.056539,-0.00904 -0.062864,0.1267558 c -0.034575,0.069715 -0.062864,0.1294814 -0.062864,0.132813 0,0.00333 0.020149,0.010482 0.044776,0.015892 0.068357,0.015014 0.055457,0.042676 -0.015466,0.033164 l -0.060242,-0.00808 -0.075008,0.1494718 c -0.041255,0.082209 -0.072914,0.1508512 -0.070355,0.1525372 0.00256,0.00168 0.3767044,0.1057574 0.8314338,0.2312692 0.8873272,0.2449156 1.1987772,0.3497146 1.521112,0.511836 0.1607224,0.080837 0.1887402,0.09048 0.2238806,0.077053 0.022092,-0.00844 0.2716434,-0.1790184 0.5545586,-0.3790604 0.5622006,-0.3975166 0.534186,-0.3838528 0.691567,-0.3373052 l 0.086555,0.0256 -0.043572,0.077728 c -0.08609,0.153574 -0.52506,1.0057406 -0.5250108,1.0191974 2.98e-5,0.00756 0.040814,0.04168 0.090637,0.075812 l 0.090586,0.062058 -0.1130246,0.010592 c -0.102363,0.00959 -0.1129712,0.013594 -0.1124572,0.04242 3.2e-4,0.017506 0.00972,0.3004852 0.020907,0.6288434 0.011186,0.3283582 0.017942,0.5995194 0.01501,0.6025806 -0.00293,0.00306 -0.049592,-0.00642 -0.1036918,-0.02106 C 7.1956545,5.7256483 7.1541699,5.7046463 7.1308521,5.6769343 7.1121717,5.6547306 6.9642683,5.3754018 6.8021777,5.0562012 6.6400871,4.7370006 6.4949795,4.4650808 6.4797165,4.4519354 6.4589519,4.4340514 6.4056601,4.425842 6.2680433,4.419327 5.9534257,4.404433 5.6048557,4.3286868 4.7128949,4.0813876 4.2666429,3.9576628 3.8939171,3.8564334 3.8846155,3.8564334 c -0.011572,0 -0.016912,0.051742 -0.016912,0.1638758 V 4.184185 l 0.059701,0.030457 c 0.073569,0.037532 0.076233,0.0512 0.00746,0.038298 l -0.052239,-0.0098 v 0.1496464 c 0,0.1465088 7.6e-4,0.1498388 0.036701,0.158857 0.020186,0.00507 0.045372,0.01976 0.05597,0.032652 0.017016,0.020701 0.0136,0.022318 -0.029238,0.013834 -0.030524,-0.00605 -0.048508,-0.00368 -0.048508,0.00639 0,0.02317 0.087777,0.540677 0.1065706,0.6283092 0.013724,0.063987 0.022874,0.077088 0.066609,0.095362 0.063739,0.026632 0.066484,0.053045 0.00422,0.040592 -0.040746,-0.00815 -0.04539,-0.0058 -0.037631,0.01903 0.00487,0.01558 0.028955,0.1055652 0.053525,0.1999682 0.027549,0.1058436 0.054096,0.1773634 0.069252,0.186567 0.013518,0.00821 0.038893,0.026832 0.05639,0.041384 0.031371,0.026092 0.031033,0.026327 -0.02434,0.016962 -0.043793,-0.00741 -0.054546,-0.00502 -0.048853,0.010854 0.00401,0.011194 0.1018798,0.4054686 0.217478,0.8761668 0.115598,0.4706982 0.2171302,0.8736834 0.2256272,0.8955224 0.092457,0.2376354 0.1017384,0.2710508 0.075284,0.2710508 -0.01439,0 -0.081463,-0.05541 -0.1490516,-0.1231344 z"
     id="path8"
     inkscape:connector-curvature="0" />
</svg>
