<?xml version="1.0" encoding="UTF-8" standalone="no"?>
<svg
   xmlns:dc="http://purl.org/dc/elements/1.1/"
   xmlns:cc="http://creativecommons.org/ns#"
   xmlns:rdf="http://www.w3.org/1999/02/22-rdf-syntax-ns#"
   xmlns:svg="http://www.w3.org/2000/svg"
   xmlns="http://www.w3.org/2000/svg"
   xmlns:sodipodi="http://sodipodi.sourceforge.net/DTD/sodipodi-0.dtd"
   xmlns:inkscape="http://www.inkscape.org/namespaces/inkscape"
   version="1.0"
   width="40"
   height="40"
   viewBox="0 0 8 8.0000002"
   id="svg3729"
   sodipodi:docname="plane180.svg"
   inkscape:version="0.92.4 (5da689c313, 2019-01-14)">
  <metadata
     id="metadata3735">
    <rdf:RDF>
      <cc:Work
         rdf:about="">
        <dc:format>image/svg+xml</dc:format>
        <dc:type
           rdf:resource="http://purl.org/dc/dcmitype/StillImage" />
        <dc:title></dc:title>
      </cc:Work>
    </rdf:RDF>
  </metadata>
  <defs
     id="defs3733" />
  <sodipodi:namedview
     pagecolor="#ffffff"
     bordercolor="#666666"
     borderopacity="1"
     objecttolerance="10"
     gridtolerance="10"
     guidetolerance="10"
     inkscape:pageopacity="0"
     inkscape:pageshadow="2"
     inkscape:window-width="3440"
     inkscape:window-height="1377"
     id="namedview3731"
     showgrid="false"
     inkscape:zoom="13.4"
     inkscape:cx="-43.584831"
     inkscape:cy="3.8564767"
     inkscape:window-x="-8"
     inkscape:window-y="477"
     inkscape:window-maximized="1"
     inkscape:current-layer="svg3729"
     fit-margin-top="0"
     fit-margin-left="0"
     fit-margin-right="0"
     fit-margin-bottom="0" />
  <path
     style="fill:#aa0000;stroke-width:0.01492537"
     d="M 4.1234535,7.8458687 C 4.0482935,7.7666687 3.9798077,7.6041003 3.9177041,7.3574695 3.8233741,6.9828599 3.7944599,6.6847687 3.7830267,5.9690031 3.7779767,5.6529583 3.7711547,5.3808757 3.7678607,5.3643751 3.7645707,5.3478751 3.7422547,5.3227851 3.7182757,5.3086201 3.6942971,5.2944559 3.4976891,5.1388023 3.2813693,4.9627243 3.0650497,4.7866463 2.8857683,4.6448749 2.8829665,4.6476769 c -0.0028,0.0028 0.00207,0.030911 0.010836,0.062464 0.024225,0.087243 0.020907,0.3407674 -0.00474,0.3620516 -0.013628,0.01131 -0.074078,0.015814 -0.1747302,0.013022 -0.1841794,-0.00511 -0.1738652,0.01018 -0.1760806,-0.2610312 -0.00152,-0.1869664 0.01451,-0.2625438 0.052609,-0.2479242 0.011292,0.00433 0.020691,0.00212 0.020887,-0.00491 1.954e-4,-0.00704 0.00608,-0.037424 0.013076,-0.067532 l 0.01272,-0.05474 -0.400492,-0.3221272 C 2.0167831,3.9497803 1.834574,3.8048241 1.8321441,3.8048241 c -0.00243,0 -0.0044,0.088992 -0.00438,0.1977612 l 4.48e-5,0.197761 -0.1637094,0.010918 c -0.1069171,0.00713 -0.1690502,0.00558 -0.1791045,-0.00446 -0.021217,-0.021188 -0.029335,-0.4137962 -0.00962,-0.46513 0.00981,-0.025529 0.023444,-0.037771 0.036498,-0.032762 0.014509,0.00557 0.02554,-0.010508 0.0363,-0.052902 C 1.563021,3.5975143 1.561775,3.5937213 1.516615,3.5598963 1.4907583,3.5405315 1.2479592,3.3658841 0.97706371,3.1717939 0.46036201,2.8015893 0.36252911,2.7160393 0.23002811,2.5185499 0.15506431,2.4068185 0.08111201,2.2555021 0.09478651,2.2418275 c 0.00487,-0.00487 0.065661,0.028963 0.1351006,0.075175 0.1164181,0.077475 1.65969779,0.860956 1.69588719,0.860956 0.00917,0 0.011966,-0.01267 0.00656,-0.029717 -0.012224,-0.038516 0.00604,-0.071089 0.023983,-0.042772 0.00706,0.011138 0.012934,0.03531 0.01306,0.053717 1.896e-4,0.027753 0.030772,0.048778 0.1791034,0.1231344 0.098381,0.049317 0.1823366,0.089667 0.1865672,0.089667 0.00423,0 0.00769,-0.020546 0.00769,-0.045657 0,-0.059356 0.025847,-0.0431 0.038472,0.024197 0.00538,0.028666 0.021023,0.058138 0.034766,0.065493 0.025692,0.01375 0.6141198,0.2544742 0.6220382,0.2544742 0.00243,0 0.0065,-0.025187 0.00905,-0.05597 l 0.00463,-0.05597 0.022388,0.066722 0.022388,0.066722 0.1119404,0.025949 c 0.1582336,0.036681 0.164179,0.035954 0.164179,-0.020091 0,-0.057423 0.014742,-0.046833 0.028382,0.020387 0.00983,0.048448 0.012576,0.049936 0.1655342,0.089712 0.085546,0.022246 0.1585904,0.037394 0.1623216,0.033663 0.00373,-0.00373 -0.00138,-0.3913354 -0.011364,-0.8613428 -0.020632,-0.9715734 -0.00988,-1.256441 0.060537,-1.6033524 0.026347,-0.1298047 0.027861,-0.155951 0.010458,-0.1805973 C 3.7772663,1.1804766 3.5499223,0.98427582 3.2832483,0.76032518 3.0165741,0.53637452 2.7901087,0.34227018 2.7799917,0.3289822 2.7692517,0.314875 2.7613997,0.2574384 2.7611217,0.19094488 l -4.8e-4,-0.11387735 0.5914844,0.14801475 c 0.3253166,0.0814081 0.5940694,0.14542992 0.5972286,0.14227068 0.00316,-0.003159 0.021197,-0.0515547 0.040084,-0.10754556 l 0.03434,-0.10180148 0.034929,0.0957962 c 0.01921,0.0526879 0.039201,0.10077554 0.044422,0.10686138 0.00522,0.006086 0.2711552,-0.0621275 0.5909648,-0.15158514 0.3198096,-0.0894577 0.5842784,-0.15991431 0.5877082,-0.15657029 0.011876,0.01157794 0.019694,0.16900839 0.01026,0.20659547 C 5.2858827,0.28374374 5.1232823,0.4398319 4.8238537,0.7085725 4.5715497,0.93501822 4.3468659,1.1416619 4.3245565,1.1677809 l -0.040563,0.047489 0.029119,0.1119403 c 0.089603,0.3444578 0.115784,0.6615651 0.1361668,1.6492537 0.00966,0.4679106 0.01952,0.8532082 0.02192,0.856217 0.0024,0.00301 0.074573,-0.01341 0.160385,-0.036486 l 0.1560214,-0.041956 0.00908,-0.056798 c 0.010776,-0.067394 0.03858,-0.076058 0.03858,-0.012022 0,0.024627 0.00504,0.044672 0.011194,0.044544 0.00616,-1.342e-4 0.068281,-0.015924 0.1380538,-0.035104 0.126193,-0.034689 0.1269066,-0.035159 0.1357372,-0.089485 0.012168,-0.074858 0.028448,-0.085994 0.028448,-0.019458 0,0.0301 0.0035,0.054726 0.00778,0.054726 0.022026,0 0.6281548,-0.27504 0.637511,-0.2892802 0.00603,-0.00918 0.011068,-0.034764 0.011194,-0.056854 1.194e-4,-0.02209 0.00694,-0.044315 0.015154,-0.049388 0.00871,-0.00538 0.014926,0.0098 0.014926,0.036433 0,0.025111 0.00408,0.045657 0.00906,0.045657 0.00498,0 0.085862,-0.041978 0.1797342,-0.093284 0.1343392,-0.073423 0.172359,-0.101228 0.1785752,-0.130597 0.00434,-0.020522 0.01368,-0.050746 0.020748,-0.067164 0.010312,-0.023955 0.01305,-0.018796 0.01386,0.026119 5.6e-4,0.030784 0.00554,0.05597 0.01108,0.05597 0.033925,0 1.5431554,-0.8220296 1.6541086,-0.90094 0.1103744,-0.078499 0.1351486,-0.090757 0.138928,-0.068742 0.00948,0.055203 -0.1423102,0.313612 -0.2789642,0.474921 -0.040869,0.048242 -0.2757462,0.2395546 -0.5931766,0.483154 l -0.525517,0.4032874 0.0075,0.05416 c 0.011532,0.083237 0.01927,0.1016896 0.033198,0.079154 0.00929,-0.01504 0.015322,-0.014592 0.029235,0.00217 0.022033,0.026548 0.04418,0.3037756 0.033004,0.4131306 l -0.00839,0.08209 H 6.5672723 6.3962985 l -0.012798,-0.059695 c -0.00704,-0.032836 -0.010698,-0.1218336 -0.00813,-0.1977728 0.00257,-0.075939 0.00124,-0.138066 -0.00296,-0.1380596 -0.00756,1.12e-5 -0.6989918,0.589811 -0.750678,0.6403418 -0.023884,0.02335 -0.02495,0.034332 -0.00935,0.096293 0.013536,0.053757 0.021987,0.066305 0.036526,0.054239 0.031623,-0.026245 0.053576,0.065586 0.062696,0.2622612 0.011616,0.2505022 0.015564,0.2453836 -0.1893004,0.2453836 -0.1861156,0 -0.1714264,0.012566 -0.187484,-0.160371 -0.00634,-0.068253 -0.00336,-0.1359796 0.00807,-0.1836414 0.00996,-0.04153 0.015078,-0.078545 0.011368,-0.082256 -0.00371,-0.00371 -0.1745292,0.139376 -0.3795964,0.31797 -0.2050676,0.178594 -0.3925272,0.3388916 -0.4165772,0.3562168 l -0.043727,0.0315 -2.2e-4,0.7893952 c -1.806e-4,0.6657666 -0.00417,0.815383 -0.025492,0.9553334 -0.062029,0.4071806 -0.1509074,0.6947306 -0.2428048,0.7855542 -0.053027,0.052407 -0.066369,0.051594 -0.122413,-0.00746 z"
     id="path8"
     inkscape:connector-curvature="0" />
</svg>
