<?xml version="1.0" encoding="UTF-8" standalone="no"?>
<svg
   xmlns:dc="http://purl.org/dc/elements/1.1/"
   xmlns:cc="http://creativecommons.org/ns#"
   xmlns:rdf="http://www.w3.org/1999/02/22-rdf-syntax-ns#"
   xmlns:svg="http://www.w3.org/2000/svg"
   xmlns="http://www.w3.org/2000/svg"
   xmlns:sodipodi="http://sodipodi.sourceforge.net/DTD/sodipodi-0.dtd"
   xmlns:inkscape="http://www.inkscape.org/namespaces/inkscape"
   version="1.0"
   width="40"
   height="40"
   viewBox="0 0 8 8.0000001"
   id="svg3729"
   sodipodi:docname="plane105.svg"
   inkscape:version="0.92.4 (5da689c313, 2019-01-14)">
  <metadata
     id="metadata3735">
    <rdf:RDF>
      <cc:Work
         rdf:about="">
        <dc:format>image/svg+xml</dc:format>
        <dc:type
           rdf:resource="http://purl.org/dc/dcmitype/StillImage" />
        <dc:title></dc:title>
      </cc:Work>
    </rdf:RDF>
  </metadata>
  <defs
     id="defs3733" />
  <sodipodi:namedview
     pagecolor="#ffffff"
     bordercolor="#666666"
     borderopacity="1"
     objecttolerance="10"
     gridtolerance="10"
     guidetolerance="10"
     inkscape:pageopacity="0"
     inkscape:pageshadow="2"
     inkscape:window-width="3440"
     inkscape:window-height="1377"
     id="namedview3731"
     showgrid="false"
     inkscape:zoom="26.8"
     inkscape:cx="5.013602"
     inkscape:cy="20.390929"
     inkscape:window-x="-8"
     inkscape:window-y="477"
     inkscape:window-maximized="1"
     inkscape:current-layer="svg3729"
     fit-margin-top="0"
     fit-margin-left="0"
     fit-margin-right="0"
     fit-margin-bottom="0" />
  <g
     transform="matrix(0.03040181,-0.14016538,-0.12304133,-0.03532393,6.9919506,10.10147)"
     id="g3727">
 v2.0 14 November 2016 - Peter Lowden - peter@lowden.nz
  <path
   d="m 32,0.1 h 0.1 l 0.2,0.1 0.2,0.2 0.3,0.4 0.4,0.9 0.5,1.6 0.5,2.4 0.3,2.3 0.2,2.8 v 9.6 l 0.9,0.7 5.1,4.8 -0.2,-0.9 v -1.2 l 0.1,-1.1 0.2,-0.2 h 2.3 l 0.2,0.2 0.1,1.1 V 25 L 43.2,27 43.1,26.7 43,27 42.8,26.7 42.6,27.6 48.1,32.7 48,32 v -1.2 l 0.1,-1.1 0.2,-0.2 h 2.3 l 0.2,0.2 0.1,1.1 V 32 l -0.2,2 -0.1,-0.3 -0.1,0.3 -0.2,-0.3 -0.1,0.9 7.6,6.3 1,1.3 0.8,1.3 0.7,1.5 v 0.7 L 58.2,44.1 47.4,37.9 v 0.5 L 47.3,38.9 47,38.4 46.9,37.7 44.5,36.3 v 0.4 L 44.4,37.2 44.1,36.7 44,36 43.2,35.6 39.6,33.9 v 0.5 l -0.1,0.5 -0.3,-0.5 -0.1,-0.7 -1.8,-0.5 v 0.5 L 37.2,34.2 36.9,33.7 36.8,33 34.7,32.4 v 13.3 l -0.3,3.8 -0.2,1.6 -0.4,1.9 0.2,0.4 6.8,6.6 0.2,0.3 0.1,0.3 v 1.8 l -8.5,-2.5 -0.5,1.6 v 1.4 L 32,63 31.9,62.9 v -1.4 l -0.5,-1.6 -8.5,2.5 V 60.6 L 23,60.3 23.2,60 30,53.4 30.2,53 29.8,51.1 29.6,49.5 29.3,45.7 V 32.4 l -2.1,0.6 -0.1,0.7 -0.3,0.5 -0.1,-0.5 v -0.5 l -1.8,0.5 -0.1,0.7 -0.3,0.5 -0.1,-0.5 v -0.5 l -3.6,1.7 -0.8,0.4 -0.1,0.7 -0.3,0.5 -0.1,-0.5 v -0.4 l -2.4,1.4 -0.1,0.7 -0.3,0.5 -0.1,-0.5 V 37.9 L 5.8,44.1 3.7,45.7 V 45 l 0.7,-1.5 0.8,-1.3 1,-1.3 7.7,-6.4 -0.2,-0.8 -0.2,0.3 -0.1,-0.3 -0.1,0.3 -0.2,-2 v -1.2 l 0.1,-1.1 0.2,-0.2 h 2.3 l 0.2,0.2 0.1,1.1 V 32 L 15.9,32.7 21.4,27.6 21.2,26.7 21,27 20.9,26.7 20.8,27 20.6,25 v -1.2 l 0.1,-1.1 0.2,-0.2 h 2.3 l 0.2,0.2 0.1,1.1 V 25 l -0.2,0.9 5.1,-4.8 0.9,-0.7 V 10.8 L 29.5,8 29.8,5.7 30.3,3.3 30.8,1.7 31.2,0.8 31.5,0.4 31.7,0.2 31.9,0.1 Z"
   id="path3725"
   inkscape:connector-curvature="0"
   style="fill:#ccffff;stroke:#0014aa;stroke-width:0.1" />
</g>
  <path
     style="fill:#aa0000;stroke-width:0.03731343"
     d="m 7.6184408,39.850026 c -0.098656,-0.0361 -0.08979,-0.04641 0.5145459,-0.598441 0.5719138,-0.52241 0.7680959,-0.743462 2.8044153,-3.159945 1.204216,-1.429033 2.437599,-2.892084 2.740852,-3.251226 0.303252,-0.359142 0.551457,-0.664027 0.551567,-0.677522 1.12e-4,-0.01349 -0.08113,-0.04538 -0.180526,-0.07086 -0.200668,-0.05143 -0.332741,-0.131283 -0.289018,-0.174745 0.0157,-0.0156 0.168506,-0.02837 0.339574,-0.02837 h 0.311032 l 0.618524,-0.721233 c 0.340188,-0.396678 0.618523,-0.735362 0.618523,-0.752632 0,-0.01727 -0.05457,-0.04315 -0.121268,-0.05751 -0.0667,-0.01436 -0.170604,-0.05135 -0.230903,-0.08218 l -0.109635,-0.05607 0.107013,-0.04374 c 0.07102,-0.02903 0.183204,-0.03416 0.333515,-0.01526 0.223156,0.02806 0.228037,0.0267 0.330384,-0.09159 0.164217,-0.189808 1.905718,-2.626187 1.900807,-2.65925 -0.0024,-0.01635 -0.0999,-0.05928 -0.216601,-0.09539 -0.116702,-0.03611 -0.228017,-0.08148 -0.247366,-0.100832 -0.04246,-0.04246 0.156982,-0.119898 0.257107,-0.09982 0.03731,0.0075 0.139867,0.02149 0.227896,0.03113 l 0.160054,0.01753 0.315418,-0.630012 0.315419,-0.630013 -0.195621,-0.05828 c -0.107592,-0.03205 -0.236413,-0.08087 -0.286268,-0.108469 l -0.09065,-0.05019 0.12796,-0.02942 c 0.13277,-0.03052 0.316017,-0.0283 0.490261,0.0059 0.09826,0.01931 0.111212,-2.99e-4 0.459703,-0.696566 0.197228,-0.394041 0.344828,-0.729341 0.327998,-0.745111 -0.01683,-0.01577 -1.877614,-0.558761 -4.135076,-1.206648 -4.042782,-1.160268 -4.122426,-1.18494 -5.298508,-1.641393 -1.4437629,-0.5603 -1.8678659,-0.748736 -2.5790991,-1.145893 l -0.5461227,-0.304959 -0.1538053,0.04561 c -0.096849,0.02872 -1.0847899,0.703994 -2.6678347,1.823505 -1.3827158,0.977841 -2.57488,1.806837 -2.6492536,1.842213 -0.074374,0.03538 -0.1772023,0.06473 -0.2285083,0.06523 -0.1450511,0.0014 -1.10173035,-0.284527 -1.09275116,-0.326614 0.004397,-0.02061 0.62986375,-1.24841 1.38992536,-2.728441 0.7600616,-1.480032 1.3819303,-2.705571 1.3819303,-2.723421 0,-0.01785 -0.2183844,-0.183866 -0.4852986,-0.368925 l -0.4852986,-0.336472 0.2520897,-0.02129 c 0.1386492,-0.01171 0.3990112,-0.03172 0.5785821,-0.04447 0.2887257,-0.0205 0.3264925,-0.03145 0.3264925,-0.09464 0,-0.0393 -0.051128,-1.383879 -0.1136168,-2.987945 -0.062489,-1.604069 -0.1086646,-3.003586 -0.1026119,-3.11004 l 0.011005,-0.193553 0.4891718,0.139515 c 0.5228958,0.149134 0.6278047,0.199947 0.7474868,0.362049 0.041909,0.05676 0.7524407,1.429699 1.578959,3.050967 0.9473175,1.858224 1.5466582,2.993032 1.6215257,3.070243 l 0.118765,0.122482 0.6698071,0.03446 c 0.8549802,0.04399 1.2480339,0.09998 2.7672904,0.394179 1.126204,0.218089 1.43431,0.296003 3.376866,0.85395 1.175675,0.337681 3.017712,0.866742 4.093415,1.175691 1.075703,0.308948 1.962205,0.555343 1.970005,0.547544 0.0078,-0.0078 0.0025,-0.383731 -0.01183,-0.835404 l -0.02601,-0.821224 -0.218143,-0.104263 C 19.962727,18.694608 19.826734,18.606419 19.7805,18.555976 l -0.08406,-0.09171 0.186567,0.02294 c 0.102612,0.01262 0.224347,0.03373 0.270522,0.04691 l 0.08396,0.02396 v -0.715268 -0.715267 l -0.243055,-0.113739 c -0.257739,-0.120611 -0.406811,-0.263378 -0.298864,-0.286224 0.03142,-0.0067 0.144611,0.01355 0.251526,0.04489 0.106915,0.03134 0.202305,0.04907 0.211977,0.0394 0.0097,-0.0097 -0.114216,-0.760285 -0.275309,-1.668026 -0.161092,-0.907741 -0.30071,-1.698519 -0.310263,-1.757284 -0.01445,-0.0889 -0.05738,-0.125569 -0.255565,-0.218311 -0.253602,-0.118675 -0.401235,-0.261258 -0.294008,-0.283952 0.03142,-0.0066 0.141025,0.0125 0.243557,0.04256 0.102532,0.03006 0.186422,0.04813 0.186422,0.04016 0,-0.04991 -0.499041,-1.947716 -0.525055,-1.996737 -0.01764,-0.03324 -0.120807,-0.09697 -0.229257,-0.141618 -0.108449,-0.04465 -0.229222,-0.124875 -0.268384,-0.178285 l -0.0712,-0.09711 0.164487,0.023 c 0.09047,0.01265 0.210662,0.03388 0.267098,0.04718 0.06036,0.01422 0.102612,0.0086 0.102612,-0.01364 0,-0.0208 -0.493401,-1.9999056 -1.096447,-4.3980064 C 16.739708,2.0043217 16.690857,1.8241631 16.40299,1.0680257 16.238917,0.63705555 16.116092,0.27996412 16.130046,0.2744892 c 0.151308,-0.0593645 0.839086,0.52212333 1.429942,1.2089559 0.178899,0.2079582 0.475016,0.5941523 0.658039,0.8582089 l 0.332768,0.480103 1.353538,3.2089553 c 0.744446,1.7649254 1.356652,3.2135776 1.360457,3.2192276 0.01397,0.020747 0.667925,0.1166347 0.684232,0.1003272 0.0093,-0.00927 -0.01102,-0.047668 -0.0451,-0.085324 -0.08498,-0.093901 -0.07801,-0.1185594 0.03353,-0.1185594 0.05415,0 0.0855,-0.016151 0.07242,-0.037313 -0.02996,-0.048476 -0.04394,-0.049604 0.480929,0.038816 0.797524,0.1343537 1.810051,0.4632388 1.915612,0.6222213 0.04009,0.060376 0.02386,0.1811388 -0.102055,0.759482 -0.08235,0.378229 -0.159311,0.734004 -0.171032,0.790612 -0.01172,0.05661 -0.05223,0.119468 -0.09001,0.139691 -0.136648,0.07313 -1.186586,-0.176117 -1.675548,-0.397764 -0.15204,-0.06892 -0.281767,-0.119978 -0.288283,-0.113462 -0.0065,0.0065 0.516741,1.102268 1.162793,2.435006 l 1.174641,2.423159 0.340868,0.02899 c 0.187478,0.01595 0.349784,0.02008 0.360681,0.0092 0.0109,-0.0109 -0.01956,-0.06172 -0.06769,-0.112948 l -0.0875,-0.09314 h 0.120647 c 0.07093,0 0.111143,-0.01538 0.09759,-0.03731 -0.02996,-0.04848 -0.04394,-0.04961 0.48093,0.03882 0.791899,0.133407 1.810979,0.46344 1.913247,0.619613 0.06286,0.09599 -0.272025,1.642578 -0.367122,1.695454 -0.04122,0.02292 -0.187294,0.01052 -0.429104,-0.03643 -0.591215,-0.114796 -1.006327,-0.251027 -1.324995,-0.434834 -0.164025,-0.09461 -0.305527,-0.164719 -0.314448,-0.155799 -0.0089,0.0089 0.464775,0.988309 1.052658,2.176419 0.587882,1.188109 1.157073,2.377282 1.26487,2.642607 l 0.195992,0.482408 2.961748,0.850513 c 3.207325,0.921035 3.969391,1.177244 5.325084,1.790311 1.735446,0.7848 3.214995,1.747178 3.627357,2.359432 0.311687,0.462778 0.117298,0.709015 -0.701799,0.889003 -0.327179,0.07189 -0.475432,0.07981 -1.482925,0.07916 -0.996874,-6.38e-4 -1.205173,-0.01178 -1.902985,-0.101832 -1.590991,-0.205308 -2.376657,-0.389667 -5.58301,-1.31007 -1.608449,-0.461716 -2.95124,-0.847964 -2.98398,-0.85833 -0.03761,-0.01191 -0.168098,0.07819 -0.354478,0.244777 -0.162222,0.144994 -1.147095,0.886954 -2.188607,1.648799 -1.041511,0.761846 -1.893656,1.399118 -1.893656,1.416162 0,0.01704 0.146957,0.03099 0.326571,0.03099 0.248507,0 0.415746,0.02567 0.699627,0.1074 0.515105,0.148296 0.989771,0.345396 1.045399,0.434092 0.03889,0.06201 0.01849,0.203586 -0.124263,0.862641 -0.119358,0.551032 -0.18911,0.799905 -0.231633,0.826461 -0.0784,0.04896 -0.661548,-0.05664 -1.174657,-0.212716 -0.454493,-0.138243 -1.259532,-0.466056 -1.226256,-0.499332 0.01328,-0.01328 -0.01471,-0.0556 -0.06219,-0.09405 l -0.08633,-0.06991 0.0997,-0.02502 c 0.05484,-0.01376 0.09966,-0.0373 0.09961,-0.0523 -1.12e-4,-0.03509 -0.578309,-0.361682 -0.620807,-0.350665 -0.01765,0.0046 -0.409887,0.288946 -0.871641,0.631934 -2.896165,2.151257 -3.181371,2.36956 -3.130709,2.396312 0.02879,0.01521 0.153097,0.03784 0.276231,0.05029 0.46945,0.04749 1.552821,0.425416 1.61469,0.563269 0.03853,0.08585 -0.264171,1.566482 -0.338865,1.657531 -0.05644,0.06879 -0.368615,0.03114 -0.92033,-0.111009 -0.509485,-0.131264 -1.493554,-0.513703 -1.493554,-0.58044 0,-0.02574 -0.03655,-0.06636 -0.08121,-0.09026 l -0.08121,-0.04346 0.09987,-0.05233 c 0.05493,-0.02878 0.09987,-0.05827 0.09987,-0.06554 0,-0.03609 -0.533193,-0.323938 -0.571408,-0.308484 -0.02435,0.0098 -1.180285,0.967403 -2.568756,2.127906 -2.503064,2.092095 -2.528402,2.111972 -2.985074,2.34142 -0.6035556,0.30325 -1.2417075,0.535481 -1.8411799,0.670026 -0.514013,0.115366 -0.6479507,0.126533 -0.8093403,0.06747 z"
     id="path8"
     inkscape:connector-curvature="0"
     transform="scale(0.2)" />
</svg>
