<?xml version="1.0" encoding="UTF-8" standalone="no"?>
<svg
   xmlns:dc="http://purl.org/dc/elements/1.1/"
   xmlns:cc="http://creativecommons.org/ns#"
   xmlns:rdf="http://www.w3.org/1999/02/22-rdf-syntax-ns#"
   xmlns:svg="http://www.w3.org/2000/svg"
   xmlns="http://www.w3.org/2000/svg"
   xmlns:sodipodi="http://sodipodi.sourceforge.net/DTD/sodipodi-0.dtd"
   xmlns:inkscape="http://www.inkscape.org/namespaces/inkscape"
   version="1.0"
   width="40"
   height="40"
   viewBox="0 0 8 8"
   id="svg3729"
   sodipodi:docname="plane165.svg"
   inkscape:version="0.92.4 (5da689c313, 2019-01-14)">
  <metadata
     id="metadata3735">
    <rdf:RDF>
      <cc:Work
         rdf:about="">
        <dc:format>image/svg+xml</dc:format>
        <dc:type
           rdf:resource="http://purl.org/dc/dcmitype/StillImage" />
        <dc:title></dc:title>
      </cc:Work>
    </rdf:RDF>
  </metadata>
  <defs
     id="defs3733" />
  <sodipodi:namedview
     pagecolor="#ffffff"
     bordercolor="#666666"
     borderopacity="1"
     objecttolerance="10"
     gridtolerance="10"
     guidetolerance="10"
     inkscape:pageopacity="0"
     inkscape:pageshadow="2"
     inkscape:window-width="3440"
     inkscape:window-height="1377"
     id="namedview3731"
     showgrid="false"
     inkscape:zoom="13.4"
     inkscape:cx="-1.9616851"
     inkscape:cy="20.651278"
     inkscape:window-x="-8"
     inkscape:window-y="477"
     inkscape:window-maximized="1"
     inkscape:current-layer="svg3729"
     fit-margin-top="0"
     fit-margin-left="0"
     fit-margin-right="0"
     fit-margin-bottom="0" />
  <path
     style="fill:#aa0000;stroke-width:0.01492537"
     d="M 5.6274794,7.7900162 C 5.4370918,7.6739272 5.1245654,7.157008 4.9319422,6.6395962 4.9029706,6.5617746 4.803465,6.2648988 4.7108184,5.979872 L 4.5423702,5.4616414 4.4593452,5.4329534 C 4.4136812,5.4171754 4.1726114,5.312879 3.923634,5.201184 3.6746566,5.0894892 3.467634,4.9981026 3.4635834,4.9981026 c -0.00405,0 0.013376,0.036251 0.038726,0.080557 0.060761,0.1061992 0.1133382,0.3065088 0.086863,0.330931 -0.01839,0.016964 -0.2567702,0.081049 -0.3014804,0.081049 -0.038738,0 -0.1098562,-0.169614 -0.149588,-0.3567596 C 3.115727,5.0284778 3.120484,4.9953678 3.156048,5.0090148 3.176244,5.0167648 3.178172,5.0078148 3.169674,4.9458188 3.164234,4.9060958 3.1577,4.8715208 3.155164,4.8689838 3.142536,4.8563558 2.1748294,4.4355452 2.1748294,4.4426818 c 0,0.00457 0.01668,0.049994 0.037066,0.100951 0.020386,0.050957 0.046744,0.1341356 0.058572,0.1848412 0.021068,0.090309 0.020844,0.092473 -0.010946,0.1059342 -0.041008,0.017364 -0.2690274,0.074142 -0.297756,0.074142 -0.043172,0 -0.1745385,-0.4076158 -0.1510739,-0.468764 0.00462,-0.012038 0.018125,-0.018156 0.030012,-0.013594 0.017691,0.00679 0.019829,-0.00354 0.011782,-0.056913 -0.00541,-0.035864 -0.014011,-0.069323 -0.019118,-0.074354 C 1.8282594,4.289895 1.5298508,4.1738486 1.1702361,4.0370446 0.75385886,3.8786474 0.48553446,3.7682986 0.43143006,3.7332094 0.20865636,3.5887308 -0.04939824,3.3413862 0.02264086,3.3413862 c 0.0066,0 0.081981,0.02357 0.167522,0.052377 0.090056,0.030328 0.5106934,0.1280218 0.99920134,0.232067 0.4640196,0.098829 0.8563108,0.183456 0.8717582,0.188059 0.025159,0.0075 0.027068,0.00236 0.018318,-0.049231 -0.00962,-0.056734 -0.00937,-0.057122 0.01669,-0.025788 0.014552,0.017496 0.033353,0.043483 0.041778,0.057747 0.010736,0.018176 0.07325,0.038718 0.2089552,0.068664 0.1064998,0.023501 0.1977418,0.042851 0.2027602,0.042999 0.00502,1.492e-4 0.00591,-0.01652 0.002,-0.037043 -0.00981,-0.051343 0.01855,-0.047035 0.040585,0.00616 0.0099,0.023913 0.032548,0.047044 0.050318,0.051404 0.02839,0.00696 0.6673582,0.099149 0.6872418,0.099149 0.00423,0 5.6e-4,-0.020492 -0.00818,-0.045538 -0.023122,-0.066328 -0.0038,-0.07132 0.033221,-0.00858 l 0.031932,0.05412 h 0.1474102 0.14741 l -0.014556,-0.038285 c -0.032545,-0.085598 0.00964,-0.077293 0.04535,0.00893 l 0.018342,0.044281 h 0.169831 c 0.093407,0 0.169831,-0.0042 0.169831,-0.00934 0,-0.00514 -0.120669,-0.3795794 -0.2681534,-0.8320896 C 3.4992286,2.2718836 3.4192086,1.9647768 3.3912318,1.6242174 3.3812406,1.502592 3.3785424,1.4951229 3.333758,1.4651198 3.3079132,1.4478053 3.0281854,1.3143227 2.7121406,1.1684918 2.3960958,1.022661 2.1227258,0.89021686 2.1046518,0.8741716 2.0764748,0.8491577 2.0106478,0.69210534 2.0106478,0.6498938 c 0,-0.008658 0.2421226,-0.0118434 0.630597,-0.008296 l 0.630597,0.005759 0.00746,-0.11094852 0.00746,-0.11094854 0.065829,0.0885605 c 0.036206,0.0487082 0.067231,0.090481 0.068945,0.0928284 0.00256,0.003503 0.8688088,-0.47004978 1.0321362,-0.56423656 l 0.047507,-0.0273959 0.030852,0.09135647 c 0.016968,0.0502461 0.030852,0.10796914 0.030852,0.12827352 0,0.0232244 -0.130093,0.23304298 -0.3507464,0.56569574 C 4.0001096,1.1201903 3.8613904,1.3434085 3.8613904,1.3649414 c 0,0.019591 0.026655,0.07917 0.059233,0.1323958 0.1754608,0.2866688 0.3197362,0.6521584 0.6145148,1.556736 0.1424484,0.4371268 0.2632238,0.794776 0.2683898,0.794776 0.00517,0 0.068992,-0.033018 0.1418366,-0.073374 0.127318,-0.070534 0.1324442,-0.075389 0.1324442,-0.1254524 0,-0.069393 0.015372,-0.081582 0.034323,-0.027218 l 0.015386,0.044137 0.1237522,-0.064437 0.1237524,-0.064437 -0.00271,-0.072222 -0.00271,-0.072222 0.025788,0.056655 0.025788,0.056655 0.2686114,-0.2064802 C 5.9504222,3.1001066 5.958401,3.0923698 5.958401,3.0399878 c 0,-0.067379 0.017688,-0.088198 0.030742,-0.036185 0.00539,0.021491 0.013148,0.039075 0.017232,0.039075 0.00408,0 0.070173,-0.057598 0.146864,-0.1279952 C 6.2867876,2.7922938 6.2928948,2.7839402 6.29782,2.7171214 l 0.00514,-0.069766 0.019714,0.049186 c 0.010842,0.027052 0.024906,0.047201 0.031253,0.044776 0.041026,-0.015678 1.2756773,-1.143116 1.3625141,-1.2441973 0.091678,-0.106717 0.108884,-0.1207081 0.1180318,-0.095979 0.02301,0.062203 -0.059337,0.3687928 -0.1438302,0.5354972 -0.022392,0.04418 -0.2154442,0.3022696 -0.4290042,0.5735326 -0.21356,0.2712634 -0.3918401,0.502455 -0.3961781,0.5137594 -0.012412,0.032344 0.041906,0.1410048 0.062105,0.1242406 0.029311,-0.024326 0.052102,0.00495 0.1051459,0.135055 0.062329,0.1528798 0.1044938,0.3108058 0.08743,0.3274598 -0.023943,0.023368 -0.3223229,0.091017 -0.3369467,0.076393 C 6.7627016,3.6665857 6.667644,3.3849315 6.6674864,3.3442367 6.6674118,3.3252827 6.6614064,3.3134477 6.6541424,3.3179387 6.6468724,3.3224287 6.5416348,3.4689077 6.420272,3.6434465 6.298909,3.8179851 6.1708548,4.0014797 6.1357068,4.0512119 l -0.063905,0.090422 0.041275,0.062347 c 0.025881,0.039094 0.04653,0.057093 0.055363,0.048259 0.00775,-0.00775 0.020942,-0.00933 0.029319,-0.00352 0.047864,0.033225 0.18739,0.4409638 0.160014,0.4676134 C 6.3406968,4.7329573 6.0409388,4.8061093 6.02649,4.7971793 6.002227,4.7821833 5.932311,4.5866093 5.9149128,4.4850675 L 5.8973368,4.3824847 5.6387948,4.7611869 C 5.4965968,4.9694731 5.353922,5.1716225 5.3217398,5.2104079 l -0.058513,0.070519 0.1941792,0.5936606 c 0.267984,0.819302 0.333187,1.1188442 0.3355302,1.5414214 0.0013,0.2359964 -0.012578,0.3195762 -0.062619,0.3768656 -0.028981,0.033179 -0.044447,0.032749 -0.1028492,-0.00286 z"
     id="path8"
     inkscape:connector-curvature="0" />
</svg>
