<?xml version="1.0" encoding="UTF-8" standalone="no"?>
<svg
   xmlns:dc="http://purl.org/dc/elements/1.1/"
   xmlns:cc="http://creativecommons.org/ns#"
   xmlns:rdf="http://www.w3.org/1999/02/22-rdf-syntax-ns#"
   xmlns:svg="http://www.w3.org/2000/svg"
   xmlns="http://www.w3.org/2000/svg"
   xmlns:sodipodi="http://sodipodi.sourceforge.net/DTD/sodipodi-0.dtd"
   xmlns:inkscape="http://www.inkscape.org/namespaces/inkscape"
   version="1.0"
   width="40"
   height="40"
   viewBox="0 0 8 8.0000001"
   id="svg3729"
   sodipodi:docname="plane255.svg"
   inkscape:version="0.92.4 (5da689c313, 2019-01-14)">
  <metadata
     id="metadata3735">
    <rdf:RDF>
      <cc:Work
         rdf:about="">
        <dc:format>image/svg+xml</dc:format>
        <dc:type
           rdf:resource="http://purl.org/dc/dcmitype/StillImage" />
        <dc:title></dc:title>
      </cc:Work>
    </rdf:RDF>
  </metadata>
  <defs
     id="defs3733" />
  <sodipodi:namedview
     pagecolor="#ffffff"
     bordercolor="#666666"
     borderopacity="1"
     objecttolerance="10"
     gridtolerance="10"
     guidetolerance="10"
     inkscape:pageopacity="0"
     inkscape:pageshadow="2"
     inkscape:window-width="3440"
     inkscape:window-height="1377"
     id="namedview3731"
     showgrid="false"
     inkscape:zoom="13.4"
     inkscape:cx="-34.136083"
     inkscape:cy="0.099458669"
     inkscape:window-x="-8"
     inkscape:window-y="477"
     inkscape:window-maximized="1"
     inkscape:current-layer="svg3729"
     fit-margin-top="0"
     fit-margin-left="0"
     fit-margin-right="0"
     fit-margin-bottom="0" />
  <path
     style="fill:#aa0000;stroke-width:0.01492537"
     d="M 6.383425,7.876457 C 6.0865728,7.812056 6.014346,7.769274 5.424903,7.3086996 l -0.5222602,-0.4080794 -0.06631,0.032216 c -0.036471,0.017718 -0.059417,0.036476 -0.050991,0.041684 0.032192,0.019896 -0.00556,0.053633 -0.1131412,0.1011148 C 4.5417252,7.13322 4.3239728,7.1915882 4.3076564,7.17335 4.3014364,7.1664 4.2793394,7.09162 4.2585564,7.0071828 4.2267464,6.8779488 4.2239704,6.850457 4.2410104,6.8334168 4.2662154,6.8082118 4.5059142,6.7204886 4.5504292,6.7201786 c 0.018042,-1.194e-4 0.040762,-0.00529 0.05049,-0.011476 0.017756,-0.01129 -0.7971652,-0.58531 -0.8309486,-0.58531 -0.032235,0 -0.1191674,0.069065 -0.1048962,0.083336 0.023471,0.023472 -0.0028,0.045111 -0.1116944,0.091985 -0.1436728,0.061847 -0.2434232,0.092748 -0.3134718,0.09711 L 3.1806662,6.3995136 3.1395552,6.242797 C 3.1169442,6.156603 3.1012702,6.0783536 3.1047242,6.0689094 c 0.00964,-0.026352 0.2345364,-0.1079496 0.327711,-0.1189006 0.045598,-0.00536 0.079394,-0.015426 0.075102,-0.02237 C 3.5032472,5.9206988 3.3438938,5.8096646 3.1534226,5.6809058 2.9629512,5.5521468 2.7652776,5.414331 2.7141478,5.3746484 c -0.05113,-0.039683 -0.100765,-0.07215 -0.1103006,-0.07215 -0.00954,0 -0.273299,0.083539 -0.5861412,0.1856424 C 1.7048639,5.5902442 1.3817379,5.6906434 1.2996483,5.7112502 0.73629977,5.8526668 0.16190827,5.8768616 0.05931377,5.7634962 -0.03118123,5.6635012 0.27097107,5.4093636 0.78292487,5.1548726 1.0497968,5.0222114 1.2222575,4.9571982 1.8505637,4.752401 l 0.5807661,-0.1893014 0.025317,-0.07433 C 2.4705708,4.4478876 2.5742686,4.2095886 2.6870858,3.9592154 2.799903,3.7088422 2.8957672,3.4951816 2.9001174,3.484414 2.9044674,3.473646 2.8649904,3.487664 2.8123904,3.515573 2.7007372,3.574806 2.5067314,3.6274922 2.4839944,3.604755 2.4638624,3.584623 2.3931734,3.3032726 2.4022834,3.2795332 2.4189354,3.2361372 2.825011,3.111154 2.8803536,3.1323908 c 0.01252,0.0048 0.018076,0.018332 0.012984,0.031605 -0.00764,0.019898 0.00154,0.02165 0.064375,0.012294 0.040304,-0.006 0.074924,-0.012488 0.076934,-0.014414 0.0109,-0.010444 0.4360098,-0.9843892 0.431596,-0.9888032 -0.0029,-0.0029 -0.034847,0.00782 -0.071004,0.023802 -0.036157,0.015986 -0.119017,0.043677 -0.1841342,0.061535 -0.1091922,0.029945 -0.1197914,0.030559 -0.1363592,0.0079 -0.019406,-0.02654 -0.081067,-0.258105 -0.081067,-0.3044462 0,-0.034489 0.1803002,-0.1101557 0.3450742,-0.144817 0.1135506,-0.023886 0.1659546,-0.018821 0.1530552,0.014795 -0.00613,0.015977 0.00607,0.01858 0.056732,0.012108 0.035498,-0.00453 0.065831,-0.00917 0.067407,-0.010301 C 3.6175266,1.8325184 3.733059,1.5341175 3.872694,1.1705371 4.0428944,0.72737017 4.1472676,0.47659997 4.1893532,0.40972119 4.3003686,0.23330543 4.5001762,0.00671558 4.5645736,-0.0157937 4.5996306,-0.0280476 4.5985566,-0.0212927 4.5394846,0.14189511 4.5060896,0.23415061 4.4228442,0.58911869 4.300177,1.1623323 4.1967226,1.6457668 4.1082824,2.0537206 4.1036434,2.0688968 c -0.0071,0.02322 -0.00288,0.025852 0.026621,0.016608 0.01928,-0.00604 0.04513,-0.013982 0.057444,-0.017648 0.022991,-0.00684 -0.020737,0.035352 -0.065288,0.062999 -0.015636,0.0097 -0.039754,0.084674 -0.068934,0.2142866 -0.024686,0.1096488 -0.044883,0.202533 -0.044883,0.2064098 0,0.00388 0.021828,0.00283 0.048507,-0.00232 0.048249,-0.00932 0.048338,-0.00922 0.016694,0.01747 -0.017496,0.01476 -0.04335,0.033646 -0.057452,0.04197 -0.020394,0.012038 -0.035959,0.085324 -0.076078,0.358209 -0.02774,0.1886914 -0.050581,0.3511216 -0.050756,0.3609558 -2.4e-4,0.013458 0.010946,0.013954 0.045219,0.00201 0.066328,-0.023122 0.07132,-0.0038 0.00858,0.033221 l -0.054118,0.031931 v 0.1474046 0.1474062 l 0.047097,-0.00942 c 0.057332,-0.011466 0.047717,0.013886 -0.018192,0.047969 l -0.04383,0.022665 v 0.1728554 c 0,0.1434512 0.00362,0.1714672 0.021263,0.164696 C 3.9072314,4.0840852 4.2803052,3.9620698 4.7245888,3.8174246 5.5871654,3.5365966 5.9630134,3.4374666 6.2847242,3.4059386 6.4128414,3.3933826 6.45546,3.3834466 6.478754,3.3607006 6.495172,3.3446686 6.6397114,3.0513202 6.7999528,2.708815 l 0.291348,-0.6227368 0.081786,-0.032423 c 0.044982,-0.017832 0.1011882,-0.037265 0.1249018,-0.043183 l 0.043115,-0.01076 -0.011038,0.6432738 -0.011038,0.643274 0.1161264,0.00439 0.1161264,0.00439 -0.088502,0.065829 c -0.048676,0.036206 -0.090742,0.067551 -0.09348,0.069655 -0.00274,0.0021 0.1299108,0.2463894 0.294776,0.5428556 0.1648652,0.296466 0.2997548,0.541786 0.2997548,0.5451556 0,0.00337 -0.04723,0.021338 -0.1049556,0.03993 -0.083152,0.026781 -0.113383,0.030559 -0.1455224,0.018184 C 7.69104,4.5680592 7.444738,4.4110902 7.1660136,4.2278298 6.8872892,4.0445694 6.6416556,3.8879908 6.620161,3.8798776 6.5860876,3.8670156 6.5626306,3.8761376 6.4370918,3.9510516 6.16186,4.115297 5.7781196,4.2649482 4.9041286,4.5488766 4.4567404,4.694217 4.085934,4.8175166 4.0801144,4.822876 c -0.00582,0.00536 0.023001,0.071811 0.064046,0.1476702 l 0.074627,0.1379262 0.070282,0.00122 0.070282,0.00122 -0.048507,0.021213 c -0.026679,0.011668 -0.048507,0.025399 -0.048507,0.030514 0,0.00512 0.028545,0.062715 0.063433,0.127999 l 0.063433,0.1186978 0.055967,-0.00722 c 0.070087,-0.00904 0.08603,0.011596 0.025312,0.032763 -0.056885,0.01983 -0.066066,0.00346 0.1768806,0.315387 l 0.1918088,0.2462686 0.062329,-0.00283 c 0.068203,-0.00309 0.08451,0.019078 0.025016,0.03401 -0.020522,0.00515 -0.037313,0.012644 -0.037313,0.01665 0,0.00401 0.06075,0.073122 0.1350002,0.1535882 0.1339904,0.145208 0.1354418,0.146243 0.1940298,0.1383848 0.069946,-0.00938 0.081861,0.018478 0.014254,0.033326 -0.024627,0.00541 -0.044776,0.012628 -0.044776,0.016044 0,0.022636 1.1606616,1.2890094 1.2619876,1.3769278 0.06934,0.060165 0.1260722,0.1155752 0.1260722,0.1231344 0,0.019062 -0.079238,0.015228 -0.1923436,-0.00931 z"
     id="path8"
     inkscape:connector-curvature="0" />
</svg>
