<?xml version="1.0" encoding="UTF-8" standalone="no"?>
<svg
   xmlns:dc="http://purl.org/dc/elements/1.1/"
   xmlns:cc="http://creativecommons.org/ns#"
   xmlns:rdf="http://www.w3.org/1999/02/22-rdf-syntax-ns#"
   xmlns:svg="http://www.w3.org/2000/svg"
   xmlns="http://www.w3.org/2000/svg"
   xmlns:sodipodi="http://sodipodi.sourceforge.net/DTD/sodipodi-0.dtd"
   xmlns:inkscape="http://www.inkscape.org/namespaces/inkscape"
   version="1.0"
   width="40"
   height="40"
   viewBox="0 0 8 8.0000001"
   id="svg3729"
   sodipodi:docname="plane240.svg"
   inkscape:version="0.92.4 (5da689c313, 2019-01-14)">
  <metadata
     id="metadata3735">
    <rdf:RDF>
      <cc:Work
         rdf:about="">
        <dc:format>image/svg+xml</dc:format>
        <dc:type
           rdf:resource="http://purl.org/dc/dcmitype/StillImage" />
        <dc:title></dc:title>
      </cc:Work>
    </rdf:RDF>
  </metadata>
  <defs
     id="defs3733" />
  <sodipodi:namedview
     pagecolor="#ffffff"
     bordercolor="#666666"
     borderopacity="1"
     objecttolerance="10"
     gridtolerance="10"
     guidetolerance="10"
     inkscape:pageopacity="0"
     inkscape:pageshadow="2"
     inkscape:window-width="3440"
     inkscape:window-height="1377"
     id="namedview3731"
     showgrid="false"
     inkscape:zoom="13.4"
     inkscape:cx="-37.138686"
     inkscape:cy="3.2774377"
     inkscape:window-x="-8"
     inkscape:window-y="477"
     inkscape:window-maximized="1"
     inkscape:current-layer="svg3729"
     fit-margin-top="0"
     fit-margin-left="0"
     fit-margin-right="0"
     fit-margin-bottom="0" />
  <path
     style="fill:#aa0000;stroke-width:0.01492537"
     d="M 6.3707704,7.9357386 C 6.241665,7.9063796 6.093909,7.8541506 5.9900266,7.801154 5.9399606,7.775612 5.0639378,7.1018636 4.9269624,6.9835518 c -0.023073,-0.01993 -0.033247,-0.019562 -0.093284,0.00337 -0.060546,0.023123 -0.090434,0.053117 -0.052929,0.053117 0.00795,0 0.010816,0.00949 0.00636,0.021089 -0.00983,0.02561 -0.223093,0.1190284 -0.3430714,0.1502788 -0.1503162,0.039152 -0.1437934,0.043885 -0.1881038,-0.136467 -0.021503,-0.087521 -0.036175,-0.1667426 -0.032604,-0.1760474 0.00831,-0.02166 0.1983516,-0.09582 0.3004206,-0.1172328 0.043097,-0.00904 0.078283,-0.02009 0.078192,-0.024552 C 4.6018532,6.7526474 4.4661574,6.6549646 4.3004006,6.5400392 4.1346438,6.4251138 3.9473796,6.2952076 3.8842578,6.2513584 l -0.1147672,-0.079725 -0.061188,0.034949 c -0.059973,0.034255 -0.077953,0.057337 -0.044665,0.057337 0.010896,0 0.00959,0.00871 -0.00373,0.024906 -0.041554,0.050524 -0.3540266,0.169124 -0.4455872,0.169124 -0.040072,0 -0.042583,-0.00487 -0.080518,-0.156262 -0.021535,-0.085944 -0.039155,-0.161939 -0.039155,-0.1688774 0,-0.030426 0.245056,-0.1225012 0.3269634,-0.1228502 0.029499,-1.194e-4 0.062222,-0.00568 0.07272,-0.01234 C 3.5072028,5.9894498 3.3869922,5.8992928 3.1251156,5.720706 2.9115498,5.575065 2.7092286,5.4328568 2.6755128,5.4046882 c -0.033716,-0.028169 -0.065544,-0.051216 -0.070729,-0.051216 -0.00518,0 -0.268169,0.084717 -0.5844086,0.1882604 C 1.1564478,5.8245996 0.9048161,5.8791686 0.4524846,5.881747 0.2111531,5.883127 0.1680166,5.879737 0.1132665,5.855087 0.0787665,5.839557 0.0465865,5.814397 0.0417555,5.799175 0.0161765,5.718584 0.2033021,5.5390196 0.4976327,5.3617186 0.8383931,5.156449 1.0753269,5.0586434 1.8258951,4.8134164 c 0.324201,-0.1059236 0.5937256,-0.197333 0.5989434,-0.203132 0.00522,-0.0058 0.017966,-0.037409 0.028329,-0.070245 C 2.4635315,4.5072034 2.5592969,4.2855618 2.6659801,4.0475022 2.7726633,3.8094424 2.8695725,3.5919228 2.8813335,3.5641252 l 0.021384,-0.050541 -0.068936,0.040399 c -0.082172,0.048156 -0.2055858,0.092255 -0.2962126,0.1058456 l -0.065682,0.00985 -0.040838,-0.1646102 c -0.022461,-0.090536 -0.036693,-0.1713164 -0.031627,-0.179513 0.014348,-0.023214 0.2362954,-0.1044728 0.3516102,-0.12873 0.111641,-0.023484 0.1528034,-0.01836 0.1391134,0.017316 -0.00723,0.018838 0.00295,0.020701 0.064375,0.011778 0.040129,-0.00583 0.073918,-0.011418 0.075085,-0.012418 0.016566,-0.014192 0.4323668,-0.9882012 0.423266,-0.991497 -0.00699,-0.00253 -0.039157,0.00889 -0.071478,0.025377 -0.032322,0.01649 -0.1114652,0.043784 -0.1758746,0.060654 -0.093557,0.024505 -0.1205824,0.026905 -0.1343854,0.011936 -0.01813,-0.01966 -0.080964,-0.2582316 -0.080964,-0.3074038 0,-0.031659 0.073183,-0.067964 0.239838,-0.1189794 0.1534274,-0.046967 0.2355152,-0.055905 0.2466616,-0.026859 0.00646,0.016823 0.027825,0.023993 0.071067,0.023845 l 0.061836,-2.12e-4 0.2537312,-0.6674947 C 4.0820563,0.64739148 4.1288939,0.53724046 4.2030601,0.42384214 4.2912481,0.289005 4.5314107,0.0251148 4.5659363,0.0251148 c 0.013616,0 0.00401,0.0448947 -0.032743,0.15298508 C 4.5029473,0.2670577 4.4034789,0.69338554 4.2955259,1.1967566 4.1934177,1.672876 4.1061171,2.0783498 4.1015247,2.0978094 c -0.00794,0.033625 -0.00553,0.034905 0.048356,0.02578 0.055894,-0.00946 0.05625,-0.00922 0.024894,0.016858 -0.017496,0.014552 -0.04327,0.033218 -0.057274,0.04148 -0.017294,0.010202 -0.039205,0.074835 -0.068309,0.2014926 -0.023566,0.1025596 -0.043129,0.1946994 -0.043472,0.2047554 -4.2e-4,0.012318 0.015204,0.015774 0.047882,0.010594 0.043257,-0.00686 0.045448,-0.00561 0.02024,0.011568 -0.096135,0.065488 -0.093515,0.057932 -0.1422872,0.4104448 -0.056219,0.4063354 -0.055677,0.3804612 -0.00758,0.3621738 0.085942,-0.032675 0.07716,0.00969 -0.00945,0.045564 l -0.044797,0.018556 0.00425,0.143498 0.00425,0.1434978 0.048508,-0.00469 c 0.061745,-0.00597 0.06104,0.00196 -0.00373,0.042 l -0.052239,0.032285 v 0.1720214 c 0,0.1448018 0.00345,0.1706962 0.021825,0.1636464 0.012004,-0.00461 0.3830856,-0.1261334 0.8246268,-0.2700606 0.9133358,-0.297716 1.2768024,-0.3918808 1.6186982,-0.4193636 0.079443,-0.00639 0.1210948,-0.016826 0.1363004,-0.034161 0.012044,-0.01373 0.130359,-0.2585412 0.2629236,-0.5440236 0.3844202,-0.827862 0.3334494,-0.7358252 0.426861,-0.770775 0.044376,-0.016604 0.097748,-0.034471 0.1186052,-0.039705 l 0.037921,-0.00952 V 2.695135 3.338544 h 0.1147424 0.1147424 l -0.092354,0.06863 c -0.050795,0.037746 -0.092354,0.076197 -0.092354,0.085446 0,0.00925 0.1317768,0.2542752 0.2928372,0.5445032 0.1610606,0.2902282 0.2869934,0.5329746 0.2798508,0.5394364 -0.021651,0.019588 -0.1574044,0.060493 -0.2007608,0.060493 -0.028017,0 -0.206201,-0.1090796 -0.5728506,-0.3506834 C 6.8696789,4.0934932 6.6147129,3.9317998 6.5957895,3.9270504 6.5718225,3.9210304 6.5369945,3.9340004 6.4810007,3.9697844 6.2030449,4.1474156 5.7910553,4.3114364 4.8782295,4.6078772 4.4431549,4.749168 4.0815241,4.8699028 4.0746057,4.8761764 c -0.00692,0.00627 0.021754,0.075094 0.063716,0.1529328 l 0.076294,0.141526 0.066881,-0.00754 c 0.076711,-0.00865 0.087747,0.00555 0.022106,0.028431 -0.024627,0.00859 -0.044776,0.022521 -0.044776,0.030968 0,0.00845 0.027336,0.06488 0.060747,0.1254054 l 0.060747,0.1100464 0.06985,0.00122 0.06985,0.00122 -0.048508,0.021213 c -0.026679,0.011668 -0.04844,0.026231 -0.048357,0.032365 8.96e-5,0.00613 0.090137,0.1286886 0.2001196,0.2723452 l 0.1999688,0.261194 0.072269,0.0082 c 0.072153,0.00819 0.072201,0.00823 0.029601,0.026367 -0.050001,0.02129 -0.056909,0.00907 0.1098218,0.1942412 0.1084,0.1203878 0.1137244,0.1241008 0.167917,0.1170922 0.07066,-0.00914 0.085844,0.011642 0.024208,0.033128 -0.042433,0.014792 -0.044795,0.018842 -0.026102,0.044754 0.076291,0.1057472 1.1692534,1.2962502 1.2605494,1.3730462 0.083023,0.069837 0.108,0.098717 0.093386,0.1079804 -0.026573,0.016844 -0.044166,0.015262 -0.1841284,-0.016568 z"
     id="path8"
     inkscape:connector-curvature="0" />
</svg>
