<?xml version="1.0" encoding="UTF-8" standalone="no"?>
<svg
   xmlns:dc="http://purl.org/dc/elements/1.1/"
   xmlns:cc="http://creativecommons.org/ns#"
   xmlns:rdf="http://www.w3.org/1999/02/22-rdf-syntax-ns#"
   xmlns:svg="http://www.w3.org/2000/svg"
   xmlns="http://www.w3.org/2000/svg"
   xmlns:sodipodi="http://sodipodi.sourceforge.net/DTD/sodipodi-0.dtd"
   xmlns:inkscape="http://www.inkscape.org/namespaces/inkscape"
   version="1.0"
   width="41.189018"
   height="37.433266"
   viewBox="0 0 8.2378037 7.4866533"
   id="svg3729"
   sodipodi:docname="plane120.svg"
   inkscape:version="0.92.4 (5da689c313, 2019-01-14)">
  <metadata
     id="metadata3735">
    <rdf:RDF>
      <cc:Work
         rdf:about="">
        <dc:format>image/svg+xml</dc:format>
        <dc:type
           rdf:resource="http://purl.org/dc/dcmitype/StillImage" />
        <dc:title></dc:title>
      </cc:Work>
    </rdf:RDF>
  </metadata>
  <defs
     id="defs3733" />
  <sodipodi:namedview
     pagecolor="#ffffff"
     bordercolor="#666666"
     borderopacity="1"
     objecttolerance="10"
     gridtolerance="10"
     guidetolerance="10"
     inkscape:pageopacity="0"
     inkscape:pageshadow="2"
     inkscape:window-width="3440"
     inkscape:window-height="1377"
     id="namedview3731"
     showgrid="false"
     inkscape:zoom="18.950462"
     inkscape:cx="-18.287154"
     inkscape:cy="13.38373"
     inkscape:window-x="-8"
     inkscape:window-y="477"
     inkscape:window-maximized="1"
     inkscape:current-layer="svg3729"
     fit-margin-top="0"
     fit-margin-left="0"
     fit-margin-right="0"
     fit-margin-bottom="0" />
  <path
     style="fill:#aa0000;stroke-width:0.01055383"
     d="m 0.95851474,7.4031485 c -0.043468,-0.00443 -0.087667,-0.015813 -0.104681,-0.026961 l -0.029448,-0.019294 0.025527,-0.013304 c 0.01404,-0.00732 0.084372,-0.040604 0.15629256,-0.07397 C 1.10686,7.2229235 1.3061345,7.0996849 1.8716196,6.7344169 2.2756765,6.4734217 2.6098513,6.2565629 2.6142303,6.2525089 c 0.00438,-0.00405 -0.014618,-0.023624 -0.042215,-0.043488 -0.041797,-0.030085 -0.046542,-0.036678 -0.028413,-0.039477 0.01197,-0.00184 0.044009,0.00617 0.071197,0.017828 l 0.049433,0.021189 0.1742898,-0.1114898 0.17429,-0.1114896 -0.044964,-0.033125 c -0.038194,-0.028137 -0.041687,-0.03361 -0.0232,-0.036346 0.01197,-0.00178 0.044349,0.00646 0.071952,0.018292 l 0.050188,0.021513 0.086355,-0.065597 c 0.2304836,-0.1750786 0.4666012,-0.3594714 0.4692692,-0.366469 0.00164,-0.00429 -0.01736,-0.021527 -0.042215,-0.038299 -0.041891,-0.028267 -0.043348,-0.030766 -0.019952,-0.034217 0.013882,-0.00205 0.044311,0.00488 0.067622,0.015388 l 0.042383,0.019112 0.098574,-0.1052514 c 0.095746,-0.1022312 0.097951,-0.1057056 0.076852,-0.121082 -0.011948,-0.00871 -0.034494,-0.026367 -0.050104,-0.039243 l -0.028381,-0.023413 0.026385,-1.056e-4 c 0.014512,-5.28e-5 0.046481,0.00902 0.071043,0.020171 l 0.044659,0.020273 0.1083718,-0.1159764 c 0.059604,-0.063787 0.1083716,-0.1214424 0.1083716,-0.1281234 0,-0.00668 -0.3657006,-0.2332372 -0.812668,-0.5034582 C 2.363004,3.9150807 2.072305,3.7170033 1.776709,3.4425851 1.6902716,3.3623405 1.6580664,3.3387029 1.635174,3.3387029 c -0.0163,0 -0.3126384,0.090246 -0.65853056,0.2005466 -0.3754094,0.1197132 -0.6455874,0.200537 -0.6703084,0.2005228 -0.03136,-2.12e-5 -0.06655,-0.014762 -0.14491,-0.060708 -0.05692,-0.033376 -0.102321,-0.064484 -0.100886,-0.069128 0.0014,-0.00464 0.192498,-0.2104804 0.424586,-0.4574136 0.232087,-0.2469332 0.423099,-0.454474 0.4244708,-0.4612014 0.00137,-0.00673 -0.033117,-0.052148 -0.076641,-0.1009342 -0.043524,-0.048786 -0.077337,-0.090501 -0.075139,-0.092699 0.0022,-0.0022 0.055217,0.00811 0.1178199,0.022898 0.062603,0.014792 0.1146848,0.025637 0.115738,0.024099 0.00105,-0.00154 0.057649,-0.2806254 0.12576866,-0.620195 0.06812,-0.3395696 0.1270897,-0.6280661 0.1310447,-0.6411034 0.00703,-0.023183 0.00916,-0.022524 0.096899,0.02999 0.09227,0.055228 0.1323233,0.086619 0.1482901,0.1162196 0.00503,0.00933 0.088248,0.3251553 0.1849204,0.7018298 0.096673,0.3766746 0.1846029,0.7022382 0.1954007,0.7234746 0.018341,0.036073 0.027457,0.041206 0.1386408,0.078066 0.3630514,0.1203596 0.6810902,0.2887654 1.6473712,0.872305 0.4516906,0.2727772 0.8237394,0.4934748 0.8267748,0.4904392 0.00304,-0.00304 0.020327,-0.078641 0.038426,-0.1680114 l 0.032906,-0.1624922 -0.051497,-0.049343 c -0.059158,-0.056683 -0.056556,-0.074733 0.00573,-0.039727 0.023535,0.013228 0.045586,0.021255 0.049002,0.01784 0.00342,-0.00342 0.019746,-0.0683 0.036287,-0.1441876 l 0.030076,-0.1379766 -0.032866,-0.027655 c -0.047607,-0.040059 -0.062203,-0.055732 -0.062203,-0.066792 0,-0.015326 0.016704,-0.011686 0.057893,0.012616 0.020896,0.012328 0.039524,0.02064 0.041395,0.01847 0.00406,-0.00471 0.038656,-0.6631266 0.037639,-0.7163306 -5.8e-4,-0.030071 -0.00835,-0.042825 -0.041814,-0.0686 -0.069841,-0.053791 -0.069814,-0.087925 4.22e-5,-0.048666 l 0.042147,0.023688 -0.00675,-0.2196954 -0.00675,-0.2196952 -0.053986,-0.051394 c -0.061471,-0.05852 -0.0519,-0.078306 0.016108,-0.0333 0.023462,0.015526 0.04384,0.026687 0.045285,0.024801 0.00144,-0.00188 -0.00601,-0.4237355 -0.01655,-0.9374433 C 4.6276223,0.35754468 4.6230503,0.27245668 4.5778733,0.01509168 l -0.00634,-0.036095 0.032605,0.023216 c 0.073341,0.052223 0.2322132,0.3191251 0.324411,0.5450031 0.034422,0.084331 0.05344,0.1760215 0.1695574,0.81748252 0.071933,0.3973739 0.1307872,0.7261776 0.1307872,0.730675 0,0.00885 0.084768,0.053765 0.1250494,0.066254 0.021455,0.00665 0.023879,0.00482 0.01803,-0.013606 -0.011638,-0.03667 0.02506,-0.032178 0.1297422,0.01588 0.17661,0.081078 0.3709618,0.2104668 0.3709618,0.2469654 0,0.036171 -0.1405516,0.3051618 -0.1594516,0.3051618 -0.043638,0 -0.2598262,-0.1199236 -0.3563772,-0.197689 l -0.035629,-0.028697 0.00742,0.041955 c 0.00408,0.023075 0.062856,0.2765904 0.1306138,0.5633676 l 0.1231952,0.5214128 0.052769,0.017926 c 0.1073424,0.036467 0.1033262,0.035908 0.090874,0.01264 -0.00958,-0.017902 -0.00745,-0.021642 0.014718,-0.02588 0.065547,-0.01253 0.4911574,0.235806 0.490463,0.2861764 -4.4e-4,0.031545 -0.1475886,0.3074314 -0.1639792,0.3074314 -0.019808,0 -0.1724712,-0.076402 -0.2421062,-0.1211636 -0.029023,-0.018656 -0.077703,-0.056457 -0.1081768,-0.084002 -0.030474,-0.027545 -0.055408,-0.04439 -0.055408,-0.037432 0,0.00696 0.05477,0.2389222 0.1217122,0.5154774 0.066942,0.2765552 0.1285592,0.545052 0.1369276,0.5966602 0.00837,0.051608 0.016524,0.095008 0.018126,0.096445 0.0016,0.00144 0.264118,0.160375 0.5833714,0.3531964 0.7481152,0.4518434 0.9996312,0.6290108 1.3204628,0.9301316 0.2640106,0.2477906 0.4036678,0.437197 0.3927454,0.5326512 -0.011342,0.099125 -0.263493,0.076426 -0.6578248,-0.059218 C 7.1728769,6.7983635 6.9207451,6.6691763 6.1807859,6.2219617 L 5.5865385,5.8628123 5.5106175,5.8972973 c -0.041756,0.018966 -0.2848868,0.104825 -0.5402896,0.190796 -0.2554026,0.085971 -0.4683526,0.159768 -0.473222,0.1639938 -0.00487,0.00423 0.023626,0.01831 0.063323,0.031299 0.1062792,0.034774 0.3292186,0.1747634 0.3453768,0.2168712 0.00729,0.018988 -0.1341034,0.3065074 -0.1539878,0.3131356 -0.049474,0.016492 -0.44311,-0.2311316 -0.477726,-0.300521 -0.013618,-0.027299 -0.013098,-0.029126 0.00829,-0.029126 0.019042,0 0.012906,-0.00992 -0.037027,-0.059849 l -0.059849,-0.059849 -0.4835584,0.166997 c -0.265957,0.091848 -0.4954314,0.1713968 -0.509943,0.176774 -0.024515,0.00908 -0.020029,0.012898 0.063323,0.053831 0.099314,0.048772 0.2233266,0.128202 0.2738608,0.1754078 l 0.032846,0.030683 -0.07667,0.1537714 c -0.052056,0.1044064 -0.082231,0.1537716 -0.093994,0.1537716 -0.025722,0 -0.1233392,-0.045259 -0.205828,-0.095429 -0.1751,-0.1064992 -0.3169298,-0.2317402 -0.2624324,-0.2317402 0.025717,0 0.018188,-0.01414 -0.034526,-0.064842 L 2.8384529,6.8350555 2.1920563,7.1026129 C 1.6330984,7.3339777 1.5324508,7.3724075 1.4480112,7.3867077 1.3366065,7.4055737 1.0701477,7.4145247 0.95851484,7.4031497 Z"
     id="path10"
     inkscape:connector-curvature="0" />
</svg>
