<?xml version="1.0" encoding="UTF-8" standalone="no"?>
<svg
   xmlns:dc="http://purl.org/dc/elements/1.1/"
   xmlns:cc="http://creativecommons.org/ns#"
   xmlns:rdf="http://www.w3.org/1999/02/22-rdf-syntax-ns#"
   xmlns:svg="http://www.w3.org/2000/svg"
   xmlns="http://www.w3.org/2000/svg"
   xmlns:sodipodi="http://sodipodi.sourceforge.net/DTD/sodipodi-0.dtd"
   xmlns:inkscape="http://www.inkscape.org/namespaces/inkscape"
   version="1.0"
   width="40"
   height="40"
   viewBox="0 0 8 7.9999999"
   id="svg3729"
   sodipodi:docname="plane330.svg"
   inkscape:version="0.92.4 (5da689c313, 2019-01-14)">
  <metadata
     id="metadata3735">
    <rdf:RDF>
      <cc:Work
         rdf:about="">
        <dc:format>image/svg+xml</dc:format>
        <dc:type
           rdf:resource="http://purl.org/dc/dcmitype/StillImage" />
        <dc:title></dc:title>
      </cc:Work>
    </rdf:RDF>
  </metadata>
  <defs
     id="defs3733" />
  <sodipodi:namedview
     pagecolor="#ffffff"
     bordercolor="#666666"
     borderopacity="1"
     objecttolerance="10"
     gridtolerance="10"
     guidetolerance="10"
     inkscape:pageopacity="0"
     inkscape:pageshadow="2"
     inkscape:window-width="3440"
     inkscape:window-height="1377"
     id="namedview3731"
     showgrid="false"
     inkscape:zoom="13.4"
     inkscape:cx="-49.504749"
     inkscape:cy="0.57128082"
     inkscape:window-x="-8"
     inkscape:window-y="477"
     inkscape:window-maximized="1"
     inkscape:current-layer="svg3729"
     fit-margin-top="0"
     fit-margin-left="0"
     fit-margin-right="0"
     fit-margin-bottom="0" />
  <path
     style="fill:#aa0000;stroke-width:0.02790509"
     d="M 4.1454033,7.8484415 C 4.109759,7.797317 4.0805941,7.7358781 4.0805941,7.7119111 c 0,-0.023969 0.088729,-0.3185017 0.1971733,-0.6545205 0.1084448,-0.3360184 0.1971733,-0.63461 0.1971733,-0.6635369 0,-0.028926 -0.060789,-0.1098098 -0.1350855,-0.1797409 C 4.0770325,5.9667344 3.748082,5.5543197 3.1862632,4.7678211 2.8736156,4.3301408 2.6137403,3.9682728 2.6087628,3.9636699 2.5869856,3.9435331 2.3373345,4.2012637 2.3459832,4.2349544 c 0.00528,0.020594 -0.00437,0.030136 -0.021442,0.021203 -0.039955,-0.020897 -0.2441106,0.1640043 -0.2451908,0.2220653 -4.512e-4,0.024268 -0.017885,0.038837 -0.03874,0.032379 -0.032126,-0.00994 -0.3662363,0.3864491 -0.4941466,0.5862629 -0.01972,0.030807 -0.084974,0.1284881 -0.1450085,0.2170703 -0.060034,0.088583 -0.1013633,0.1782394 -0.091842,0.1992365 0.011327,0.02498 0.00304,0.033604 -0.023984,0.024949 C 1.2402905,5.5235979 0.30134786,6.9019938 0.17102256,7.1743993 0.0699501,7.3856608 0.03278152,7.3370511 0.03278152,6.9936065 V 6.7175571 L 0.31840759,6.0416061 C 0.59067548,5.3972679 0.60189002,5.3624802 0.55819894,5.2977718 0.53298986,5.2604358 0.49257396,5.2326592 0.46838596,5.236044 0.41537486,5.243474 0.07241129,4.8198988 0.1119232,4.7958058 c 0.005523,-0.00337 0.0832546,-0.043509 0.17273754,-0.089202 l 0.16269628,-0.083079 0.049644,0.057702 c 0.0273041,0.031736 0.0919596,0.1194947 0.1436785,0.195019 L 0.73471402,5.0135638 0.91858709,4.4928016 1.1024602,3.9720397 1.0412473,3.9161356 C 1.0075802,3.8853886 0.96312694,3.8657214 0.94246231,3.8724325 0.8784919,3.8932056 0.57076521,3.5024017 0.60121837,3.439062 0.60962037,3.421588 0.68518657,3.375289 0.76914442,3.3361749 l 0.15265053,-0.071115 0.0769404,0.085365 C 1.0410525,3.3973746 1.1054721,3.4927922 1.1418897,3.5624622 L 1.2081036,3.6891358 1.3259552,3.3428512 C 1.3907735,3.1523945 1.481284,2.8983769 1.5270895,2.778368 L 1.6103723,2.5601667 1.1900144,1.9697475 C 0.7068678,1.2911379 0.51608342,0.97225433 0.36738652,0.59477941 0.19329413,0.15283685 0.1912636,-0.04829673 0.36133826,-0.0043305 0.46314098,0.02198766 0.74122398,0.22516245 0.96729671,0.43840115 1.2561096,0.71081875 1.4552617,0.95500013 1.9282048,1.6165754 2.3173115,2.1608763 2.3413284,2.1882533 2.4425409,2.2028698 2.5009339,2.2112998 2.8008156,2.2627778 3.1089434,2.317258 3.4170713,2.371738 3.6747156,2.411625 3.681487,2.405896 3.688257,2.400166 3.65732,2.358793 3.612737,2.313954 3.531744,2.232499 3.4132386,2.0547921 3.4132386,2.0147927 c 0,-0.011644 0.074583,-0.055318 0.1657402,-0.097046 0.1924663,-0.088106 0.1770708,-0.095813 0.3655981,0.1830157 0.078016,0.115384 0.1016932,0.1762825 0.089822,0.2310336 -0.00886,0.040893 -0.00348,0.090464 0.011971,0.110159 0.026911,0.034316 1.0542369,0.2313012 1.2149753,0.2329664 l 0.07354,7.568e-4 -0.060356,-0.057758 C 5.2052508,2.5516221 5.1404518,2.4621951 5.0894243,2.3624606 5.0550808,2.2953356 5.0593529,2.2904906 5.2226684,2.2114192 l 0.1687238,-0.081693 0.07075,0.07403 c 0.064559,0.067553 0.2565153,0.3734056 0.2565153,0.4087196 0,0.00819 -0.015649,0.00671 -0.034758,-0.0033 -0.024799,-0.012968 -0.028437,0.00313 -0.012703,0.056191 0.012133,0.040903 0.026287,0.07795 0.031462,0.082327 0.00516,0.00437 0.3828623,0.054184 0.8393117,0.1106818 0.8138796,0.1007407 0.835182,0.1049115 1.1029182,0.2159317 0.5085134,0.2108611 0.5198782,0.2038879 -0.3414493,0.2095179 -0.4128228,0.00268 -0.9645739,0.012641 -1.2261138,0.022091 -0.422812,0.015273 -0.4735232,0.02185 -0.4574546,0.05927 0.015324,0.035699 0.00841,0.034909 -0.045625,-0.00519 -0.055875,-0.041476 -0.09282,-0.044814 -0.3009033,-0.027185 -0.1304639,0.011059 -0.2576596,0.016718 -0.2826565,0.012607 -0.024999,-0.00413 -0.2195163,0.00667 -0.4322643,0.023969 -0.3212489,0.026129 -0.3868938,0.038533 -0.3872791,0.073182 -3.854e-4,0.034584 -0.00512,0.035494 -0.027689,0.00531 -0.023478,-0.031389 -0.049521,-0.031272 -0.189125,8.256e-4 -0.1319455,0.030343 -0.1603442,0.046577 -0.1534889,0.08774 0.00803,0.04822 0.00644,0.048407 -0.034939,0.00413 -0.040471,-0.043304 -0.054816,-0.043848 -0.2161123,-0.0082 -0.095019,0.020997 -0.1806072,0.044818 -0.190196,0.052932 -0.00959,0.00812 0.2358108,0.3699083 0.5453324,0.8039863 0.5777689,0.810272 0.8431572,1.2283057 0.9655037,1.5208388 0.038384,0.091771 0.080804,0.1792603 0.094271,0.1944186 0.013475,0.015153 0.3820961,0.096004 0.8191752,0.1796557 l 0.7946888,0.1520939 0.085733,0.1001525 c 0.047152,0.055084 0.085731,0.1073933 0.085731,0.1162423 0,0.00886 -0.314561,0.085089 -0.6990253,0.1694238 C 5.2761426,6.992086 5.3372658,6.9606752 5.4055467,7.153827 5.4206267,7.196462 5.4088767,7.193619 5.3259437,7.134574 5.2724367,7.096473 5.2189887,7.065298 5.2071723,7.065298 c -0.011808,0 -0.1940759,0.158836 -0.4050188,0.3529682 -0.210944,0.1941321 -0.4304233,0.3912487 -0.4877321,0.4380366 l -0.1041971,0.085069 z"
     id="path8"
     inkscape:connector-curvature="0" />
</svg>
