<?xml version="1.0" encoding="UTF-8" standalone="no"?>
<svg
   xmlns:dc="http://purl.org/dc/elements/1.1/"
   xmlns:cc="http://creativecommons.org/ns#"
   xmlns:rdf="http://www.w3.org/1999/02/22-rdf-syntax-ns#"
   xmlns:svg="http://www.w3.org/2000/svg"
   xmlns="http://www.w3.org/2000/svg"
   xmlns:sodipodi="http://sodipodi.sourceforge.net/DTD/sodipodi-0.dtd"
   xmlns:inkscape="http://www.inkscape.org/namespaces/inkscape"
   version="1.0"
   width="40"
   height="40"
   viewBox="0 0 8 8.0000001"
   id="svg3729"
   sodipodi:docname="plane285.svg"
   inkscape:version="0.92.4 (5da689c313, 2019-01-14)">
  <metadata
     id="metadata3735">
    <rdf:RDF>
      <cc:Work
         rdf:about="">
        <dc:format>image/svg+xml</dc:format>
        <dc:type
           rdf:resource="http://purl.org/dc/dcmitype/StillImage" />
        <dc:title></dc:title>
      </cc:Work>
    </rdf:RDF>
  </metadata>
  <defs
     id="defs3733" />
  <sodipodi:namedview
     pagecolor="#ffffff"
     bordercolor="#666666"
     borderopacity="1"
     objecttolerance="10"
     gridtolerance="10"
     guidetolerance="10"
     inkscape:pageopacity="0"
     inkscape:pageshadow="2"
     inkscape:window-width="3440"
     inkscape:window-height="1377"
     id="namedview3731"
     showgrid="false"
     inkscape:zoom="13.4"
     inkscape:cx="-48.372519"
     inkscape:cy="0.36815025"
     inkscape:window-x="-8"
     inkscape:window-y="477"
     inkscape:window-maximized="1"
     inkscape:current-layer="svg3729"
     fit-margin-top="0"
     fit-margin-left="0"
     fit-margin-right="0"
     fit-margin-bottom="0" />
  <path
     style="fill:#aa0000;stroke-width:0.01590717"
     d="M 4.5993216,7.9300135 C 4.4978209,7.8312817 4.3385492,7.635229 4.2862689,7.5446674 4.2674085,7.5119971 4.1370279,7.2065165 3.9965333,6.8658199 3.8560383,6.5251234 3.7302559,6.2368252 3.7170167,6.2251575 3.6893215,6.2007515 3.5732644,6.1959439 3.586185,6.2197451 3.6040464,6.2526519 3.5604657,6.2558812 3.4339455,6.2310248 3.2932561,6.2033895 3.1080472,6.1434886 3.0962797,6.1218161 3.0885477,6.10758 3.1536659,5.8003397 3.1678371,5.7842087 c 0.013126,-0.014941 0.2112182,0.026503 0.3038403,0.06356 0.045768,0.018307 0.085749,0.03041 0.088842,0.02689 0.00659,-0.0075 -0.4255146,-0.9255702 -0.4494866,-0.9550053 -0.022351,-0.027444 -0.1498299,-0.036937 -0.1501656,-0.011189 -1.49e-4,0.010893 -0.00406,0.02411 -0.00867,0.029382 -0.022718,0.025857 -0.4414749,-0.081521 -0.4793725,-0.1229218 -0.00587,-0.00641 -4.195e-4,-0.057363 0.012107,-0.113218 0.054134,-0.2411752 0.049315,-0.2288371 0.089379,-0.2288371 0.062253,0 0.2483537,0.052942 0.309134,0.087943 0.031363,0.018057 0.061961,0.030483 0.067995,0.027603 0.00603,-0.00287 -0.06894,-0.1694234 -0.1666065,-0.3701078 C 2.6871651,4.0176288 2.5726999,3.7774722 2.5304645,3.6846304 L 2.4536733,3.5158272 1.8125499,3.3346738 C 1.0636272,3.1230606 0.82949874,3.0358405 0.49031886,2.8421 0.23376491,2.6955567 0.04573358,2.5355739 0.04573358,2.463836 c 0,-0.1484285 0.61954183,-0.1756659 1.21578752,-0.053449 0.073454,0.015055 0.4104704,0.1042192 0.7489247,0.1981412 l 0.6153718,0.1707651 0.077937,-0.06703 C 2.7466197,2.6753969 2.9443943,2.5248648 3.1432542,2.37775 3.342115,2.2306337 3.5048179,2.1044494 3.5048179,2.0973384 c 0,-0.00712 -0.048643,-0.016738 -0.1080974,-0.021377 -0.098218,-0.00769 -0.2683742,-0.061345 -0.2966841,-0.09357 -0.010729,-0.012212 0.05024,-0.3191561 0.067244,-0.3385127 0.021426,-0.024388 0.4206472,0.090724 0.4686756,0.1351385 0.010629,0.00982 0.015884,0.028067 0.011668,0.040539 -0.00472,0.013963 0.014884,0.035763 0.051025,0.056744 L 3.757318,1.9103692 4.1678204,1.6029776 C 4.3935963,1.4339119 4.5783223,1.28878 4.5783223,1.2804607 c 0,-0.00832 -0.022732,-0.015123 -0.050515,-0.015123 -0.05525,0 -0.306812,-0.078008 -0.3278861,-0.1016768 -0.014964,-0.016806 0.047363,-0.32534225 0.069,-0.34154732 0.035683,-0.0267234 0.4400192,0.0973104 0.4853236,0.14887882 0.011728,0.0133492 0.013406,0.0228051 0.00406,0.0228051 -0.033002,0 -0.014105,0.0286678 0.037265,0.0565555 C 4.8591058,1.08484 4.7795868,1.142115 5.41275,0.60580563 5.9472762,0.15304016 6.0417662,0.09473782 6.3649979,0.01824737 6.5264657,-0.01996272 6.536713,9.6390715e-4 6.4108142,0.11184185 6.3074978,0.20282562 5.1747098,1.5371963 5.1747098,1.5679128 c 0,0.0086 0.021805,0.021855 0.048458,0.029473 0.04843,0.013827 0.04842,0.01385 -0.018641,0.01999 -0.061666,0.00566 -0.077651,0.018057 -0.1975562,0.1533975 -0.071753,0.080984 -0.1304621,0.1531314 -0.1304621,0.1603268 0,0.00719 0.013027,0.013076 0.028942,0.013076 0.015923,0 0.033086,0.00764 0.038156,0.016965 0.00559,0.010302 -0.016003,0.016988 -0.055033,0.017033 l -0.064247,6.8e-5 -0.1938281,0.2723514 c -0.1066049,0.149793 -0.1957681,0.2785814 -0.1981376,0.2861957 -0.00236,0.00762 0.017762,0.020172 0.044729,0.027911 l 0.049039,0.014077 -0.067168,0.00591 c -0.066233,0.00584 -0.067955,0.00755 -0.1236792,0.123538 -0.03108,0.06469 -0.056239,0.1235358 -0.055908,0.1307676 3.312e-4,0.00723 0.022441,0.020467 0.049131,0.029398 l 0.048527,0.01626 -0.073855,0.00921 -0.073855,0.00921 -0.071961,0.1423339 c -0.039579,0.078283 -0.070083,0.1439689 -0.067789,0.1459702 0.00228,0.002 0.3799014,0.1088835 0.8391247,0.23752 0.8753174,0.2451908 1.2163249,0.3621608 1.5145723,0.5195173 0.086778,0.045783 0.1729798,0.083243 0.1915624,0.083243 0.018581,0 0.2682857,-0.1683977 0.554898,-0.3742176 0.2866124,-0.2058162 0.5309223,-0.3784996 0.542911,-0.383736 0.024542,-0.010711 0.1992225,0.023367 0.2297347,0.044832 0.014984,0.010552 -0.049812,0.1493405 -0.265163,0.5679643 l -0.2849979,0.5540108 0.067931,0.045899 c 0.1280766,0.08654 0.1278609,0.084264 0.00923,0.09757 l -0.1080135,0.012098 0.00104,0.086906 c 5.594e-4,0.047798 0.00941,0.3351095 0.019659,0.6384697 0.010249,0.3033597 0.017322,0.5537966 0.015724,0.5565255 C 7.4082939,5.894215 7.2055071,5.8185248 7.1804297,5.7893885 7.1638006,5.7700336 7.0164093,5.48691 6.8529108,5.1602144 6.6894064,4.8335197 6.545963,4.5579477 6.5341409,4.5478333 6.5223192,4.5377183 6.4112185,4.5205709 6.2872505,4.5097273 5.9337835,4.4788102 5.6149856,4.4072871 4.7646981,4.1681395 4.3300765,4.0459 3.9627353,3.9417526 3.9483845,3.9367015 c -0.023653,-0.00832 -0.026093,0.00675 -0.026093,0.1613252 v 0.1705104 l 0.05964,0.034633 c 0.073454,0.042654 0.075845,0.055912 0.00745,0.041307 l -0.052184,-0.011143 v 0.1470095 0.1470095 l 0.052184,0.02482 c 0.064001,0.030437 0.06742,0.047732 0.00745,0.037714 -0.0246,-0.00409 -0.044691,-0.00305 -0.044646,0.00232 2.669e-4,0.030651 0.1189481,0.6999114 0.1266241,0.7140493 0.00507,0.00937 0.017622,0.017011 0.027875,0.017011 0.010249,0 0.031659,0.011962 0.047576,0.026571 0.027783,0.025502 0.027296,0.02628 -0.012067,0.01933 -0.052314,-0.00926 -0.052156,-0.00296 0.00569,0.2255833 0.041906,0.1655437 0.051125,0.1865704 0.089779,0.2047953 0.061941,0.029204 0.071224,0.055998 0.014485,0.041812 -0.032139,-0.00803 -0.046595,-0.00528 -0.046595,0.00887 0,0.041512 0.421184,1.754187 0.4500352,1.8299959 0.082652,0.2171712 0.088348,0.2396975 0.060409,0.2388888 -0.014225,-4.125e-4 -0.066746,-0.040507 -0.1167024,-0.089101 z"
     id="path8"
     inkscape:connector-curvature="0" />
</svg>
