<?xml version="1.0" encoding="UTF-8" standalone="no"?>
<svg
   xmlns:dc="http://purl.org/dc/elements/1.1/"
   xmlns:cc="http://creativecommons.org/ns#"
   xmlns:rdf="http://www.w3.org/1999/02/22-rdf-syntax-ns#"
   xmlns:svg="http://www.w3.org/2000/svg"
   xmlns="http://www.w3.org/2000/svg"
   xmlns:sodipodi="http://sodipodi.sourceforge.net/DTD/sodipodi-0.dtd"
   xmlns:inkscape="http://www.inkscape.org/namespaces/inkscape"
   version="1.0"
   width="40"
   height="39.080669"
   viewBox="0 0 8 7.8161338"
   id="svg3729"
   sodipodi:docname="plane135.svg"
   inkscape:version="0.92.4 (5da689c313, 2019-01-14)">
  <metadata
     id="metadata3735">
    <rdf:RDF>
      <cc:Work
         rdf:about="">
        <dc:format>image/svg+xml</dc:format>
        <dc:type
           rdf:resource="http://purl.org/dc/dcmitype/StillImage" />
        <dc:title></dc:title>
      </cc:Work>
    </rdf:RDF>
  </metadata>
  <defs
     id="defs3733" />
  <sodipodi:namedview
     pagecolor="#ffffff"
     bordercolor="#666666"
     borderopacity="1"
     objecttolerance="10"
     gridtolerance="10"
     guidetolerance="10"
     inkscape:pageopacity="0"
     inkscape:pageshadow="2"
     inkscape:window-width="3440"
     inkscape:window-height="1377"
     id="namedview3731"
     showgrid="false"
     inkscape:zoom="13.4"
     inkscape:cx="-41.580369"
     inkscape:cy="14.108334"
     inkscape:window-x="-8"
     inkscape:window-y="477"
     inkscape:window-maximized="1"
     inkscape:current-layer="svg3729"
     fit-margin-top="0"
     fit-margin-left="0"
     fit-margin-right="0"
     fit-margin-bottom="0" />
  <path
     style="fill:#aa0000;stroke-width:0.01492537"
     d="M 7.7436277,7.6477551 C 7.5700445,7.5736327 7.4703227,7.5212007 7.3039939,7.4166025 6.9217901,7.1762485 6.6827731,6.9771579 6.0121931,6.3405891 5.5080621,5.8620273 5.4962731,5.8520253 5.4451203,5.8594845 c -0.028731,0.00419 -0.2873136,0.018222 -0.574627,0.031183 -0.2873134,0.012962 -0.5492536,0.025163 -0.5820894,0.027116 l -0.059702,0.00355 0.067164,0.042666 c 0.086517,0.05496 0.3134328,0.2780156 0.3134328,0.308101 0,0.012688 -0.053478,0.076233 -0.1188412,0.1412118 -0.1176056,0.116916 -0.1192738,0.1179228 -0.1604478,0.096837 -0.063949,-0.03275 -0.385317,-0.3633262 -0.3880142,-0.3991318 -0.00162,-0.021531 0.00431,-0.028712 0.01904,-0.023059 0.031645,0.012144 0.026478,-0.00461 -0.024097,-0.078115 -0.035211,-0.051178 -0.054608,-0.065992 -0.085821,-0.065547 -0.1338258,0.0019 -1.1098712,0.056531 -1.1157838,0.062443 -0.00395,0.00395 0.019758,0.025839 0.052676,0.048651 0.062817,0.043532 0.2839738,0.2676304 0.2839738,0.2877508 0,0.00643 -0.056535,0.067928 -0.1256332,0.1366678 L 2.8207169,6.6047897 2.7456999,6.5497227 C 2.7044409,6.5194357 2.6106641,6.4312369 2.5373077,6.3537257 2.4061743,6.2151651 2.3663577,6.1526773 2.4092017,6.1526773 c 0.028481,0 0.026929,-0.00659 -0.01728,-0.073398 -0.03509,-0.053025 -0.042846,-0.057259 -0.093284,-0.050932 -0.030257,0.0038 -0.3694328,0.038826 -0.7537248,0.077846 -0.65929696,0.066943 -0.70686696,0.069926 -0.84328296,0.05288 -0.179346,-0.022411 -0.25684,-0.039911 -0.430771,-0.097276 -0.136618,-0.04506 -0.193679,-0.080631 -0.152049,-0.094787 0.01119,-0.0038 0.09422,-0.01747 0.184517,-0.03037 0.13633,-0.019476 1.24582596,-0.3161758 1.87856756,-0.5023632 l 0.1024476,-0.030146 -0.041807,-0.043637 c -0.048216,-0.050327 -0.020862,-0.060146 0.038404,-0.013786 0.020522,0.016052 0.043906,0.029336 0.051963,0.029519 0.00806,1.822e-4 0.1070838,-0.02453 0.2200584,-0.054916 l 0.2054084,-0.055248 -0.040015,-0.041767 c -0.048165,-0.050273 -0.015628,-0.059031 0.044269,-0.011916 0.020872,0.016418 0.048707,0.029851 0.061855,0.029851 0.022559,0 0.6805742,-0.2350702 0.6941788,-0.2479892 0.00351,-0.00333 -0.012862,-0.026133 -0.036375,-0.050674 -0.051318,-0.053564 -0.026042,-0.058423 0.046719,-0.00898 l 0.052448,0.035639 0.1185598,-0.067171 c 0.065208,-0.036944 0.1225502,-0.073629 0.1274278,-0.081521 0.00488,-0.00789 -0.00644,-0.030643 -0.025148,-0.050558 -0.042353,-0.045083 -0.012534,-0.047905 0.048321,-0.00457 l 0.044428,0.031635 0.077279,-0.041897 c 0.1530558,-0.082979 0.2116074,-0.1207554 0.2116074,-0.1365264 0,-0.00883 -0.3324626,-0.3322118 -0.7388058,-0.718635 -0.8193558,-0.7791886 -1.133101,-1.1124306 -1.340096,-1.4233722 -0.05559,-0.083512 -0.07555,-0.1020728 -0.118407,-0.1101124 -0.02835,-0.00532 -0.369181,-0.00138 -0.757405,0.00874 -0.38822396,0.010124 -0.72178396,0.01364 -0.74124496,0.00782 -0.01946,-0.00582 -0.07686,-0.051178 -0.127549,-0.1007838 l -0.09217,-0.090195 0.510076,-0.2825724 C 1.0588629,1.7550929 1.3172829,1.6111926 1.3525889,1.5907293 l 0.06419,-0.037206 -0.06085,-0.110866 c -0.03347,-0.060976 -0.05715,-0.1108661 -0.05263,-0.1108661 0.0045,0 0.05591,0.024014 0.114187,0.053363 0.05828,0.02935 0.111085,0.04782 0.117343,0.041045 0.0063,-0.00678 0.144064,-0.2641843 0.306235,-0.57202009 0.162171,-0.3078358 0.296415,-0.56165668 0.29832,-0.56404634 0.00801,-0.0100468 0.17452,0.15374694 0.192498,0.18935624 0.015038,0.029786 0.021595,0.2080256 0.028059,0.76274979 0.00464,0.3981343 0.012868,0.7353312 0.018286,0.7493264 0.00542,0.013996 0.071375,0.06364 0.146572,0.1103212 0.3170638,0.1968304 0.6806322,0.5052894 1.4053782,1.192353 0.352985,0.334632 0.6803318,0.6459192 0.7274372,0.6917496 0.099325,0.096637 0.085599,0.1035094 0.1890422,-0.094657 l 0.065733,-0.1259248 -0.039614,-0.057163 c -0.052848,-0.07626 -0.050114,-0.093563 0.00627,-0.039694 0.044637,0.042645 0.046464,0.043049 0.067179,0.014844 0.011712,-0.015946 0.046116,-0.077212 0.076455,-0.1361464 l 0.055161,-0.1071542 -0.04025,-0.047835 c -0.055752,-0.066255 -0.050354,-0.086643 0.010625,-0.040132 l 0.050876,0.038805 0.017412,-0.048228 c 0.00958,-0.026525 0.063829,-0.185054 0.1205614,-0.352286 L 5.3402141,2.6863594 5.3031051,2.6422574 c -0.02041,-0.024256 -0.037109,-0.050303 -0.037109,-0.057882 0,-0.021042 0.023998,-0.016428 0.044776,0.00861 0.01022,0.012314 0.023643,0.022388 0.02983,0.022388 0.011418,0 0.104498,-0.3526622 0.104498,-0.3959226 0,-0.012964 -0.016614,-0.04802 -0.036918,-0.077902 -0.04661,-0.068593 -0.035901,-0.081642 0.021707,-0.026449 0.033153,0.031762 0.046045,0.037079 0.051653,0.0213 0.00411,-0.011564 0.1078312,-0.4240116 0.2304902,-0.9165489 0.1610836,-0.64683209 0.2280732,-0.94229397 0.241226,-1.06394479 0.017376,-0.16071724 0.019438,-0.16731054 0.045066,-0.14411804 0.037983,0.0343739 0.123838,0.25767484 0.1618314,0.42090754 0.0514,0.2208315 0.051004,0.3213299 -0.00416,1.05581199 l -0.051565,0.6865672 0.047199,0.042085 c 0.02596,0.023147 0.059972,0.049115 0.075582,0.057706 0.023397,0.012878 0.026756,0.011384 0.019126,-0.0085 -0.018186,-0.047392 0.039923,-0.024171 0.1494506,0.05972 0.1270728,0.09733 0.3030416,0.2817388 0.3030416,0.3175764 0,0.013558 -0.053277,0.077617 -0.1183936,0.142352 C 6.4657989,2.8999792 6.4609451,2.9029932 6.4274511,2.8810122 6.3662151,2.8408242 6.1850529,2.67152 6.1469375,2.6188598 l -0.036967,-0.051074 -0.01059,0.042452 c -0.00582,0.023348 -0.012696,0.281952 -0.015272,0.5746742 l -0.00468,0.5322224 0.066641,0.040243 c 0.040707,0.024582 0.068781,0.033824 0.072139,0.023748 0.011804,-0.03541 0.060626,-0.012428 0.183275,0.086277 0.125301,0.1008384 0.2818724,0.2633024 0.2821318,0.2927502 7.46e-5,0.00821 -0.052669,0.07117 -0.1172032,0.1399144 C 6.4768511,4.395471 6.4436383,4.4219672 6.4260983,4.4120072 6.3581333,4.3734142 6.1686513,4.1949406 6.1272495,4.1305214 l -0.047821,-0.074407 -0.00963,0.096795 c -0.0053,0.053237 -0.011582,0.3351884 -0.013972,0.6265576 l -0.00434,0.5297624 0.5334824,0.5075512 c 0.666039,0.633664 0.874568,0.8617498 1.1331592,1.2394312 0.2023204,0.2954962 0.3043512,0.5290834 0.2640202,0.6044424 -0.022908,0.042805 -0.1204606,0.037535 -0.2385374,-0.012886 z"
     id="path8"
     inkscape:connector-curvature="0" />
</svg>
