<?xml version="1.0" encoding="UTF-8" standalone="no"?>
<svg
   xmlns:dc="http://purl.org/dc/elements/1.1/"
   xmlns:cc="http://creativecommons.org/ns#"
   xmlns:rdf="http://www.w3.org/1999/02/22-rdf-syntax-ns#"
   xmlns:svg="http://www.w3.org/2000/svg"
   xmlns="http://www.w3.org/2000/svg"
   xmlns:sodipodi="http://sodipodi.sourceforge.net/DTD/sodipodi-0.dtd"
   xmlns:inkscape="http://www.inkscape.org/namespaces/inkscape"
   version="1.0"
   width="40"
   height="40"
   viewBox="0 0 8 8"
   id="svg3729"
   sodipodi:docname="plane315.svg"
   inkscape:version="0.92.4 (5da689c313, 2019-01-14)">
  <metadata
     id="metadata3735">
    <rdf:RDF>
      <cc:Work
         rdf:about="">
        <dc:format>image/svg+xml</dc:format>
        <dc:type
           rdf:resource="http://purl.org/dc/dcmitype/StillImage" />
        <dc:title></dc:title>
      </cc:Work>
    </rdf:RDF>
  </metadata>
  <defs
     id="defs3733" />
  <sodipodi:namedview
     pagecolor="#ffffff"
     bordercolor="#666666"
     borderopacity="1"
     objecttolerance="10"
     gridtolerance="10"
     guidetolerance="10"
     inkscape:pageopacity="0"
     inkscape:pageshadow="2"
     inkscape:window-width="3440"
     inkscape:window-height="1377"
     id="namedview3731"
     showgrid="false"
     inkscape:zoom="9.4752309"
     inkscape:cx="-95.029064"
     inkscape:cy="-7.3829607"
     inkscape:window-x="-8"
     inkscape:window-y="477"
     inkscape:window-maximized="1"
     inkscape:current-layer="svg3729"
     fit-margin-top="0"
     fit-margin-left="0"
     fit-margin-right="0"
     fit-margin-bottom="0" />
  <path
     style="fill:#aa0000;stroke-width:0.02135986"
     d="M 1.948827,7.978163 C 1.8907223,7.8939553 1.8059913,7.5970429 1.782283,7.394563 1.7642228,7.2403917 1.7708829,7.0926239 1.8236595,6.4759338 L 1.8865483,5.7410302 1.8316636,5.6931836 C 1.7983292,5.6641217 1.7599608,5.6496584 1.7339464,5.6563432 1.6841698,5.6691435 1.4549095,5.4860579 1.3486246,5.3486405 L 1.2829798,5.2637671 1.4046613,5.1248886 C 1.5240547,4.9886194 1.5272968,4.9866553 1.5770674,5.0204093 c 0.027898,0.018924 0.1095913,0.094348 0.1815361,0.1676167 l 0.1308116,0.1332177 0.01054,-0.0711 c 0.0058,-0.039106 0.01554,-0.3061844 0.021646,-0.5935094 l 0.0111,-0.5224087 -0.068027,-0.044213 c -0.037414,-0.024316 -0.071193,-0.034831 -0.075063,-0.023364 -0.00386,0.011469 -0.01704,0.020847 -0.02928,0.020847 -0.030678,0 -0.2856641,-0.224686 -0.3730343,-0.328706 L 1.3156744,3.6735183 1.4394079,3.5454782 C 1.5074607,3.4750559 1.5719115,3.417438 1.5826336,3.417438 c 0.035398,0 0.2418005,0.1938154 0.2881047,0.2705353 0.024996,0.041416 0.054171,0.075301 0.064835,0.075301 0.01098,0 0.020206,-0.1664146 0.021276,-0.383663 0.00104,-0.2110144 0.00822,-0.5003828 0.01596,-0.6430405 L 1.9868897,2.4771929 1.6701327,2.1655245 C 0.68614902,1.1973317 0.32321086,0.75971725 0.11586537,0.2914447 -0.02476032,-0.02614768 0.07547488,-0.07324696 0.46620518,0.12682426 0.92783393,0.36319742 1.2303284,0.60849537 2.01289,1.3810588 c 0.2930699,0.289326 0.5423779,0.5200201 0.5540173,0.5126537 0.01962,-0.012411 0.9467785,-0.073398 1.1611211,-0.076376 l 0.094985,-0.00132 -0.051355,-0.036863 C 3.7434146,1.7588785 3.6539475,1.6766696 3.5728466,1.5964679 L 3.4253868,1.4506445 3.5503223,1.3126057 c 0.068715,-0.075921 0.1310976,-0.1391795 0.1386276,-0.1405722 0.020716,-0.00383 0.328464,0.2954009 0.3799368,0.3694239 0.029848,0.042927 0.037329,0.069705 0.022148,0.079313 -0.01534,0.00971 -0.00866,0.037557 0.020188,0.084224 0.051545,0.083366 0.027608,0.082037 0.6722001,0.037297 0.249601,-0.017327 0.4763481,-0.031706 0.5038825,-0.03196 C 5.3300143,1.7099378 5.3151941,1.6888455 5.1864186,1.566757 4.9660659,1.3578452 4.9668191,1.3615101 5.1131097,1.2101271 5.1806565,1.1402291 5.2434472,1.0830393 5.2526454,1.0830393 c 0.0092,0 0.093413,0.075028 0.1871462,0.1667319 0.1761241,0.1723089 0.2497338,0.2768976 0.2055061,0.2919942 -0.048311,0.016487 0.04646,0.1248739 0.1091893,0.1248739 0.032212,0 0.3801926,-0.03845 0.7732885,-0.085447 0.8178898,-0.097782 0.8722921,-0.096693 1.2529722,0.025074 0.2194787,0.070205 0.2234763,0.09361 0.02116,0.1239052 -0.1418517,0.02124 -0.9561287,0.2553348 -1.8543555,0.5331063 -0.1719201,0.053165 -0.1753201,0.055519 -0.1392077,0.096379 0.042668,0.048281 0.01516,0.055992 -0.043373,0.012165 -0.034084,-0.025521 -0.059281,-0.023948 -0.1781741,0.011121 -0.076163,0.022469 -0.1750141,0.051064 -0.2196703,0.063543 -0.078637,0.021974 -0.080029,0.024005 -0.04422,0.064522 0.044936,0.050847 0.025932,0.053976 -0.04377,0.00721 C 5.2299223,2.4851971 5.2140601,2.4888262 4.936876,2.596519 4.4626591,2.7807639 4.4965507,2.7622864 4.5408716,2.8124358 c 0.020908,0.023657 0.028208,0.043013 0.01622,0.043013 -0.01198,0 -0.03362,-0.014582 -0.048073,-0.032423 -0.036148,-0.044601 -0.043131,-0.042894 -0.1891343,0.046167 -0.1183074,0.072167 -0.1261935,0.08158 -0.096499,0.1151804 0.047541,0.053792 0.03936,0.073097 -0.01458,0.034411 -0.0258,-0.018514 -0.058049,-0.033647 -0.071661,-0.033647 -0.030792,0 -0.3031212,0.15727 -0.3033888,0.1752088 -1.056e-4,0.00721 0.2934743,0.3017516 0.6524038,0.6545504 0.8812242,0.8661725 1.182151,1.1952774 1.4176567,1.5504028 L 5.992561,5.499119 6.46977,5.484639 C 6.7322407,5.476669 7.0810161,5.464005 7.2448325,5.456476 l 0.297848,-0.013681 0.097925,0.092433 c 0.053859,0.050839 0.097925,0.099521 0.097925,0.1081843 0,0.00866 -0.2564614,0.1648089 -0.569914,0.3469922 -0.3134526,0.1821825 -0.5699137,0.3399088 -0.5699137,0.350503 0,0.010588 0.024648,0.06233 0.054775,0.1149736 0.030124,0.052641 0.048745,0.095712 0.041374,0.095712 -0.00738,0 -0.050639,-0.019457 -0.096151,-0.04323 -0.045512,-0.023778 -0.095,-0.042929 -0.1099746,-0.042562 C 6.473746,6.4661681 6.3297663,6.7227908 6.168756,7.0360732 6.007746,7.3493557 5.8680111,7.6189339 5.858233,7.6351357 5.844633,7.6576687 5.817934,7.6419557 5.7446497,7.5683097 L 5.6488485,7.4720185 V 6.6917101 c 0,-0.59146 -0.00638,-0.7886478 -0.026384,-0.8147658 C 5.607944,5.8579998 5.5289131,5.7989524 5.4468221,5.745744 5.0947807,5.5175651 4.6440432,5.1039608 3.3980257,3.8657365 L 3.2685481,3.7370676 3.1822111,3.9057882 c -0.076947,0.1503701 -0.082953,0.1725526 -0.055217,0.2039349 0.03707,0.041946 0.042298,0.084325 0.0058,0.046939 C 3.091562,4.1144398 3.0796878,4.1242745 3.0024829,4.26456 l -0.073655,0.1338362 0.042206,0.060698 c 0.043975,0.06324 0.02277,0.085973 -0.025098,0.026911 -0.035948,-0.044357 -0.033702,-0.049141 -0.1749061,0.3726117 -0.1001492,0.2991263 -0.1126593,0.3533682 -0.086615,0.3755019 0.01674,0.014234 0.030442,0.035599 0.030442,0.047486 0,0.012657 -0.01234,0.011141 -0.029782,-0.00369 -0.038523,-0.032736 -0.040469,-0.028402 -0.097843,0.2179816 -0.046195,0.1983703 -0.046831,0.2115618 -0.01278,0.2647817 0.039619,0.061917 0.025616,0.073699 -0.028254,0.023778 C 2.514215,5.7548208 2.4921748,5.8282455 2.2723493,6.6967318 2.1408637,7.2162093 2.0226723,7.729206 2.0097028,7.8367239 1.9861585,8.0319115 1.9860645,8.0321286 1.948836,7.9781747 Z"
     id="path8"
     inkscape:connector-curvature="0" />
</svg>
