<?xml version="1.0" encoding="UTF-8" standalone="no"?>
<svg
   xmlns:dc="http://purl.org/dc/elements/1.1/"
   xmlns:cc="http://creativecommons.org/ns#"
   xmlns:rdf="http://www.w3.org/1999/02/22-rdf-syntax-ns#"
   xmlns:svg="http://www.w3.org/2000/svg"
   xmlns="http://www.w3.org/2000/svg"
   xmlns:sodipodi="http://sodipodi.sourceforge.net/DTD/sodipodi-0.dtd"
   xmlns:inkscape="http://www.inkscape.org/namespaces/inkscape"
   version="1.0"
   width="40"
   height="40"
   viewBox="0 0 8 8"
   id="svg3729"
   sodipodi:docname="plane60.svg"
   inkscape:version="0.92.4 (5da689c313, 2019-01-14)">
  <metadata
     id="metadata3735">
    <rdf:RDF>
      <cc:Work
         rdf:about="">
        <dc:format>image/svg+xml</dc:format>
        <dc:type
           rdf:resource="http://purl.org/dc/dcmitype/StillImage" />
        <dc:title></dc:title>
      </cc:Work>
    </rdf:RDF>
  </metadata>
  <defs
     id="defs3733" />
  <sodipodi:namedview
     pagecolor="#ffffff"
     bordercolor="#666666"
     borderopacity="1"
     objecttolerance="10"
     gridtolerance="10"
     guidetolerance="10"
     inkscape:pageopacity="0"
     inkscape:pageshadow="2"
     inkscape:window-width="3440"
     inkscape:window-height="1377"
     id="namedview3731"
     showgrid="false"
     inkscape:zoom="9.4752309"
     inkscape:cx="-25.629735"
     inkscape:cy="15.162316"
     inkscape:window-x="-8"
     inkscape:window-y="477"
     inkscape:window-maximized="1"
     inkscape:current-layer="svg3729"
     fit-margin-top="0"
     fit-margin-left="0"
     fit-margin-right="0"
     fit-margin-bottom="0" />
  <path
     style="fill:#aa0000;stroke-width:0.01596097"
     d="m 4.6154432,7.0444175 c -6.377e-4,-0.5063916 -0.00639,-1.0504512 -0.01279,-1.209021 l -0.011642,-0.288309 -0.039263,0.011344 -0.039263,0.011344 0.03346,-0.041042 c 0.031455,-0.038577 0.033464,-0.055621 0.033464,-0.2840368 0,-0.2146905 -0.00287,-0.242996 -0.024611,-0.242996 -0.022902,0 -0.022902,-0.00216 0,-0.031328 0.013535,-0.017229 0.024611,-0.058605 0.024611,-0.091946 0,-0.089883 -0.059162,-0.7556857 -0.06806,-0.7659342 -0.00421,-0.00485 -0.021383,0.00106 -0.038167,0.013139 -0.045341,0.032613 -0.049898,0.011647 -0.00609,-0.028041 0.04648,-0.042111 0.046575,-0.049392 0.00287,-0.2188525 -0.024257,-0.094026 -0.042988,-0.1378676 -0.06061,-0.1418667 -0.022906,-0.0052 -0.023205,-0.00871 -0.00291,-0.034518 0.020267,-0.025796 0.018673,-0.046645 -0.015596,-0.2040531 -0.027529,-0.1264605 -0.044487,-0.1753226 -0.060842,-0.1753226 -0.025931,0 -0.3074116,0.191972 -0.8956909,0.6108676 C 2.6905252,4.4634715 2.314225,4.7026915 2.0218406,4.8317756 1.9320897,4.8713987 1.8492382,4.9162077 1.8377261,4.931349 1.8127667,4.9641778 1.7596475,5.1996017 1.6277602,5.8619203 1.4880717,6.5632642 1.4966883,6.536224 1.3840101,6.6267582 1.3325955,6.6680685 1.2853996,6.6951161 1.2791302,6.6868641 1.2728608,6.6786122 1.2031214,6.3755103 1.1241537,6.013305 1.0451859,5.6510994 0.97407316,5.3472592 0.9661252,5.3381047 c -0.009353,-0.010775 -0.0438869,-0.00906 -0.0978965,0.00487 -0.0458951,0.01183 -0.0863537,0.018161 -0.0899079,0.014066 -0.003555,-0.00409 0.0203882,-0.04258 0.0532053,-0.085521 0.0328171,-0.042942 0.0596676,-0.085723 0.0596676,-0.095068 0,-0.00935 -0.19407765,-0.2307184 -0.43128368,-0.4919421 -0.237206,-0.2612274 -0.43128365,-0.4803071 -0.43128365,-0.4868481 0,-0.017619 0.1815155,-0.1381187 0.20786754,-0.1379911 0.0124554,6.84e-5 0.16318513,0.042557 0.33495498,0.094435 0.76729261,0.2317412 0.99233671,0.2952227 1.01856641,0.287322 0.015448,-0.00466 0.0904,-0.073998 0.1665581,-0.1540989 C 2.0343141,3.9952092 2.4209237,3.6897219 3.4333157,2.9624165 L 3.9900456,2.5624588 3.8720353,2.4362041 C 3.7591782,2.3154629 3.7514272,2.3103083 3.6945375,2.3181705 c -0.057312,0.00792 -0.058264,0.00726 -0.026026,-0.018037 0.018404,-0.014443 0.033462,-0.032663 0.033462,-0.040495 0,-0.029767 -0.212247,-0.2241673 -0.2360703,-0.2162229 -0.013303,0.00445 -0.037572,0.013442 -0.053931,0.020007 -0.026239,0.010536 -0.025668,0.0078 0.00485,-0.023271 0.019028,-0.019369 0.030871,-0.042157 0.026318,-0.050644 C 3.4385894,1.9810233 3.3105952,1.8761203 3.1587109,1.7563937 2.8935973,1.5474119 2.8807147,1.5394496 2.8364552,1.557221 2.7739432,1.582319 2.7711512,1.581024 2.8023092,1.541369 2.8171592,1.522469 2.8265622,1.504298 2.8232042,1.500993 2.8198442,1.4976876 2.7418776,1.4470006 2.6499409,1.388355 2.5061533,1.296634 2.4760455,1.2834309 2.4345909,1.2939186 2.3917254,1.304762 2.3885625,1.3031094 2.4059766,1.2789388 2.4167447,1.2639958 2.4216777,1.24454 2.4169396,1.2357073 2.394048,1.193045 1.1152669,0.35261314 0.82847033,0.19174516 0.73262595,0.13798463 0.65399107,0.0891165 0.6537261,0.08314938 0.65270976,0.06022753 0.72741203,0.04796092 0.92227031,0.03905936 1.0788332,0.0319069 1.1524699,0.0363967 1.249065,0.05892834 1.3176456,0.07493645 1.6349317,0.196128 1.9541451,0.32824749 c 0.3192136,0.13211948 0.6012196,0.24414413 0.6266802,0.24894335 0.036683,0.006914 0.056643,-0.001928 0.096159,-0.0425934 0.041484,-0.0426944 0.046747,-0.0556515 0.031307,-0.0770804 -0.015611,-0.0216686 -0.00706,-0.0354823 0.053837,-0.0869727 0.1291408,-0.1091912 0.3339193,-0.25085037 0.3626223,-0.25085037 0.030949,0 0.1756775,0.24334074 0.175681,0.29538203 2.2e-6,0.03461 -0.078649,0.10426987 -0.2416656,0.21404319 -0.063391,0.0426852 -0.1151074,0.0823539 -0.1149246,0.0881484 1.829e-4,0.005794 0.229395,0.0892222 0.5093608,0.18539431 L 3.9622313,1.0775212 4.00615,1.0273268 C 4.032953,0.9966924 4.05034,0.9587096 4.050765,0.929861 4.051323,0.8907612 4.071793,0.8658465 4.1690804,0.78572418 4.3449527,0.64088314 4.4682605,0.5691129 4.5009652,0.59255443 c 0.01452,0.0104073 0.055472,0.0819659 0.091011,0.15902248 0.054288,0.11771127 0.061551,0.14435351 0.045449,0.16670197 -0.024671,0.0342382 -0.3105324,0.22920522 -0.3360633,0.22920522 -0.010662,0 -0.019386,0.010247 -0.019386,0.02277 0,0.015044 0.1501293,0.074032 0.4424373,0.1738425 0.2433407,0.083091 0.4869942,0.1684993 0.5414526,0.1897974 L 5.36488,1.5726176 5.801252,1.2600472 C 6.687015,0.62558106 7.049382,0.41180414 7.4862705,0.26597607 7.6783209,0.20187201 7.7992896,0.1827775 7.8620971,0.20665286 c 0.048887,0.0185836 0.051451,0.0232799 0.043504,0.0796857 -0.00464,0.0329665 -0.028525,0.0956768 -0.053067,0.1393578 C 7.7596694,0.59097655 7.430793,0.97068831 7.1894224,1.1913055 7.0485387,1.320076 6.6199324,1.6459864 6.1302499,1.9966958 5.74367,2.2735636 5.7250327,2.2893206 5.716428,2.3465752 5.711478,2.3795512 5.660639,2.6746988 5.6034642,3.0024611 c -0.057175,0.3277627 -0.1018403,0.6073134 -0.099258,0.621224 0.00335,0.018014 0.028226,0.0028 0.086492,-0.052975 0.092815,-0.088812 0.2506663,-0.1963443 0.2882223,-0.1963443 0.027927,0 0.1727998,0.2470006 0.1728029,0.2946241 2.4e-6,0.035726 -0.1456538,0.1572413 -0.3018596,0.2518296 -0.1222496,0.074027 -0.1528897,0.083342 -0.1626953,0.049459 -0.0047,-0.016251 -0.018705,-0.016265 -0.064445,-5.14e-5 -0.03214,0.01139 -0.066261,0.026581 -0.075825,0.033765 -0.016875,0.012675 -0.2325631,1.2208538 -0.2204443,1.234813 0.00331,0.00381 0.058196,-0.031479 0.1219384,-0.078461 0.063742,-0.046983 0.145659,-0.1028293 0.1820376,-0.1241044 l 0.066144,-0.038682 0.034105,0.049182 c 0.045489,0.065598 0.1236088,0.2356792 0.1236088,0.2691194 0,0.032393 -0.1436215,0.151658 -0.3030581,0.2516657 C 5.3537269,5.6286838 5.3294326,5.6376788 5.306431,5.6211328 5.264587,5.5910358 5.224564,5.5970998 5.1833699,5.6397948 5.1483079,5.6761308 5.1410139,5.7180148 5.0558636,6.3720959 4.9484679,7.1970514 4.9128784,7.3901243 4.8336367,7.5776758 4.771496,7.7247526 4.6428944,7.9651819 4.6263814,7.9651534 4.6209968,7.9651438 4.6160745,7.550816 4.6154448,7.0444244 Z"
     id="path10"
     inkscape:connector-curvature="0" />
</svg>
