<?xml version="1.0" encoding="UTF-8" standalone="no"?>
<svg
   xmlns:dc="http://purl.org/dc/elements/1.1/"
   xmlns:cc="http://creativecommons.org/ns#"
   xmlns:rdf="http://www.w3.org/1999/02/22-rdf-syntax-ns#"
   xmlns:svg="http://www.w3.org/2000/svg"
   xmlns="http://www.w3.org/2000/svg"
   xmlns:sodipodi="http://sodipodi.sourceforge.net/DTD/sodipodi-0.dtd"
   xmlns:inkscape="http://www.inkscape.org/namespaces/inkscape"
   version="1.0"
   width="40"
   height="40"
   viewBox="0 0 8 8"
   id="svg3729"
   sodipodi:docname="plane300.svg"
   inkscape:version="0.92.4 (5da689c313, 2019-01-14)">
  <metadata
     id="metadata3735">
    <rdf:RDF>
      <cc:Work
         rdf:about="">
        <dc:format>image/svg+xml</dc:format>
        <dc:type
           rdf:resource="http://purl.org/dc/dcmitype/StillImage" />
        <dc:title></dc:title>
      </cc:Work>
    </rdf:RDF>
  </metadata>
  <defs
     id="defs3733" />
  <sodipodi:namedview
     pagecolor="#ffffff"
     bordercolor="#666666"
     borderopacity="1"
     objecttolerance="10"
     gridtolerance="10"
     guidetolerance="10"
     inkscape:pageopacity="0"
     inkscape:pageshadow="2"
     inkscape:window-width="3440"
     inkscape:window-height="1377"
     id="namedview3731"
     showgrid="false"
     inkscape:zoom="13.4"
     inkscape:cx="-32.5255"
     inkscape:cy="16.477103"
     inkscape:window-x="-8"
     inkscape:window-y="477"
     inkscape:window-maximized="1"
     inkscape:current-layer="svg3729"
     fit-margin-top="0"
     fit-margin-left="0"
     fit-margin-right="0"
     fit-margin-bottom="0" />
  <path
     style="fill:#aa0000;stroke-width:0.01620337"
     d="M 3.4895552,7.9427858 C 3.4353444,7.9075568 3.2653241,7.5839898 3.1825834,7.3585856 3.1684791,7.3201718 3.1017115,6.9361165 3.0342023,6.5051294 L 2.9114588,5.7215162 2.8386808,5.68832 C 2.7773231,5.6603321 2.7672869,5.6593166 2.7747299,5.6818389 2.7898417,5.7275808 2.7297252,5.713154 2.5912413,5.6378004 2.4304546,5.5503106 2.2886012,5.4456635 2.2884265,5.4144069 2.2882715,5.3867044 2.4197494,5.1022682 2.4391408,5.0883509 2.4572749,5.075342 2.6568426,5.1869919 2.7536702,5.2643343 l 0.078883,0.063011 -0.010699,-0.058213 C 2.7995112,5.1476352 2.5886135,4.1308286 2.5851469,4.1278878 c -0.002,-0.0017 -0.026635,-0.012097 -0.054747,-0.02314 -0.062937,-0.024691 -0.09653,-0.025725 -0.084217,-0.0026 0.00526,0.00987 -0.00709,0.017455 -0.028352,0.017455 -0.084628,0 -0.4603352,-0.2380618 -0.4603352,-0.2916853 0,-0.048968 0.1416835,-0.3192043 0.1674198,-0.3193248 0.041066,-1.921e-4 0.2570128,0.1333276 0.3250269,0.2009648 0.035148,0.034953 0.063963,0.057045 0.064031,0.049095 7.52e-5,-0.00796 -0.05353,-0.2737477 -0.1191086,-0.59066 C 2.3292872,2.8510988 2.271639,2.5643062 2.2667589,2.5306945 2.2580344,2.4705469 2.2492696,2.4640775 1.712982,2.121477 0.98664247,1.6574647 0.73827127,1.4725562 0.42892356,1.1655147 0.18090674,0.91934698 0.01778201,0.69007516 0.01778201,0.58765526 c 0,-0.10513611 0.27152086,-0.086596 0.63905317,0.0436361 0.39155652,0.1387441 0.64901932,0.27723199 1.34577072,0.72387734 0.2853185,0.1828996 0.5401824,0.3452865 0.5663646,0.360858 0.045273,0.026926 0.051531,0.026299 0.1278109,-0.012775 0.044114,-0.022602 0.284892,-0.1182059 0.5350624,-0.2124599 0.2501706,-0.094254 0.4548555,-0.1763343 0.4548555,-0.1824012 0,-0.00606 -0.035847,-0.024151 -0.079661,-0.04019 C 3.5291324,1.2396842 3.3713275,1.1378869 3.3108225,1.0771192 3.2805084,1.0466722 3.2805547,1.0463259 3.3285738,0.94616411 3.4044427,0.78790193 3.4455103,0.71478045 3.4585326,0.71478045 c 0.0463,0 0.3777303,0.22605374 0.4436344,0.30258375 0.028761,0.033397 0.028932,0.035892 0.00318,0.046376 -0.023024,0.00938 -0.01759,0.019935 0.035446,0.068699 L 4.003442,1.1900602 4.4801644,1.0033538 C 4.7423656,0.90066511 4.9656786,0.81093617 4.9764192,0.80395674 4.9888511,0.79588464 4.9451641,0.76186018 4.8563213,0.71041637 4.7795275,0.66594732 4.6945915,0.60748664 4.6675738,0.58050479 l -0.049123,-0.049062 0.077918,-0.16151208 c 0.047217,-0.0978712 0.087309,-0.16149102 0.1017523,-0.16145827 0.033882,7.698e-5 0.2123194,0.10700088 0.3418192,0.20482764 0.1036886,0.0783274 0.1311718,0.11598313 0.094898,0.1300239 -0.0086,0.003322 0.00794,0.0326136 0.036768,0.0650681 L 5.3240333,0.6674003 5.9751856,0.36905499 C 6.4887127,0.13376654 6.6501732,0.06697545 6.7391116,0.05304232 6.949568,0.02007307 7.2456007,0.02189105 7.2862456,0.05641154 c 0.02355,0.02000475 0.00965,0.03116062 -0.1211779,0.09734946 -0.142697,0.0721903 -1.6288803,1.1089633 -1.6288803,1.13632 0,0.00702 0.018618,0.022929 0.04135,0.035323 0.054211,0.029567 0.017006,0.046044 -0.040981,0.018156 -0.040308,-0.019396 -0.054892,-0.012752 -0.2168686,0.098648 -0.09551,0.065688 -0.1738353,0.1240645 -0.1740529,0.1297267 -2.18e-4,0.00566 0.017389,0.019701 0.039137,0.03121 0.058672,0.031044 0.029909,0.046221 -0.038158,0.020145 L 5.0876923,1.6007115 4.8420486,1.8065499 C 4.7069437,1.9197605 4.5811428,2.0260688 4.5624893,2.0427904 l -0.033915,0.030403 0.048952,0.038149 0.048952,0.038149 -0.04511,-0.00896 c -0.024811,-0.00494 -0.055347,-0.013571 -0.06786,-0.019186 -0.01489,-0.00669 -0.056431,0.029228 -0.1201584,0.1038937 l -0.097408,0.1141277 0.044976,0.042672 c 0.05251,0.04982 0.047533,0.052668 -0.033822,0.019326 L 4.2470753,2.3767739 4.1365017,2.5060351 c -0.095639,0.1118043 -0.1075894,0.1324548 -0.088474,0.1529112 0.01215,0.013009 0.3705706,0.2461506 0.7964807,0.5180967 0.8129397,0.519067 1.2236913,0.8166461 1.4684348,1.0638428 0.067094,0.067766 0.1340935,0.1232106 0.1488909,0.1232106 0.014789,0 0.3105359,-0.1021459 0.6571985,-0.2269896 0.3466619,-0.1248437 0.6456968,-0.2269896 0.6645215,-0.2269896 0.018819,0 0.079351,0.029125 0.1345025,0.064719 l 0.1002754,0.06472 -0.4283502,0.4983882 -0.4283502,0.4983882 0.073143,0.096035 c 0.040229,0.05282 0.07136,0.098126 0.069179,0.1006813 -0.00218,0.00257 -0.05058,-0.00669 -0.1075552,-0.020566 -0.056975,-0.013875 -0.1054315,-0.02307 -0.1076821,-0.020473 -0.00226,0.00262 -0.061533,0.2947334 -0.131734,0.6491541 C 6.8867794,6.1955835 6.8259516,6.5026652 6.821809,6.523566 6.8144345,6.560796 6.8122584,6.5602672 6.7145299,6.497375 6.6596682,6.4620684 6.6048227,6.4156106 6.5926528,6.3941341 6.5804828,6.3726553 6.4969895,6.0308646 6.407117,5.6345926 6.3172445,5.2383211 6.2358145,4.8968383 6.2261611,4.8757423 6.2130643,4.8471273 6.1623695,4.8199816 6.0265251,4.768856 5.6952345,4.6441564 5.3236388,4.4339481 4.4856902,3.8972048 4.0443722,3.614521 3.6780613,3.3898103 3.6716662,3.3978478 c -0.00639,0.00805 -0.026192,0.089212 -0.043993,0.1803867 l -0.032365,0.1657728 0.045829,0.043755 c 0.059075,0.056402 0.058581,0.078664 -9.47e-4,0.042915 -0.025579,-0.015349 -0.048243,-0.025384 -0.050362,-0.022274 -0.00212,0.00311 -0.018336,0.072441 -0.036026,0.1540694 l -0.03217,0.1484166 0.047759,0.047656 c 0.051692,0.051579 0.049863,0.081222 -0.00298,0.048379 -0.017953,-0.01116 -0.037137,-0.015091 -0.042619,-0.0087 -0.011747,0.013641 -0.044636,0.4860767 -0.046385,0.666397 -0.00114,0.1171203 0.00143,0.127373 0.040109,0.1600895 0.046302,0.039167 0.03865,0.068812 -0.00995,0.038601 -0.031068,-0.019303 -0.031362,-0.017291 -0.031362,0.2155788 v 0.2350687 l 0.04841,0.043996 c 0.051158,0.046491 0.050447,0.079242 -0.00102,0.047256 -0.016704,-0.010388 -0.035891,-0.018882 -0.042637,-0.018882 -0.00675,-3.7e-6 -0.010538,0.434114 -0.00844,0.9647052 0.003,0.7582546 0.00895,1.0107666 0.027697,1.1799109 0.013117,0.1183603 0.021495,0.2179512 0.018597,0.2213157 -0.0029,0.00337 -0.016059,-8.891e-4 -0.029234,-0.00945 z"
     id="path8"
     inkscape:connector-curvature="0" />
</svg>
