<?xml version="1.0" encoding="UTF-8" standalone="no"?>
<svg
   xmlns:dc="http://purl.org/dc/elements/1.1/"
   xmlns:cc="http://creativecommons.org/ns#"
   xmlns:rdf="http://www.w3.org/1999/02/22-rdf-syntax-ns#"
   xmlns:svg="http://www.w3.org/2000/svg"
   xmlns="http://www.w3.org/2000/svg"
   xmlns:sodipodi="http://sodipodi.sourceforge.net/DTD/sodipodi-0.dtd"
   xmlns:inkscape="http://www.inkscape.org/namespaces/inkscape"
   version="1.0"
   width="40"
   height="40"
   viewBox="0 0 8 8.0000001"
   id="svg3729"
   sodipodi:docname="plane195.svg"
   inkscape:version="0.92.4 (5da689c313, 2019-01-14)">
  <metadata
     id="metadata3735">
    <rdf:RDF>
      <cc:Work
         rdf:about="">
        <dc:format>image/svg+xml</dc:format>
        <dc:type
           rdf:resource="http://purl.org/dc/dcmitype/StillImage" />
        <dc:title></dc:title>
      </cc:Work>
    </rdf:RDF>
  </metadata>
  <defs
     id="defs3733" />
  <sodipodi:namedview
     pagecolor="#ffffff"
     bordercolor="#666666"
     borderopacity="1"
     objecttolerance="10"
     gridtolerance="10"
     guidetolerance="10"
     inkscape:pageopacity="0"
     inkscape:pageshadow="2"
     inkscape:window-width="3440"
     inkscape:window-height="1377"
     id="namedview3731"
     showgrid="false"
     inkscape:zoom="9.4752309"
     inkscape:cx="-62.265203"
     inkscape:cy="4.4245608"
     inkscape:window-x="-8"
     inkscape:window-y="477"
     inkscape:window-maximized="1"
     inkscape:current-layer="svg3729"
     fit-margin-top="0"
     fit-margin-left="0"
     fit-margin-right="0"
     fit-margin-bottom="0" />
  <path
     style="fill:#aa0000;stroke-width:0.02110766"
     d="M 2.3914668,7.8190285 C 2.3594278,7.7603875 2.3540638,7.6952735 2.3545228,7.3704905 2.3551828,6.9049469 2.3800218,6.7680393 2.61715,5.9230871 L 2.7853664,5.3236877 2.7251054,5.2600447 C 2.6919614,5.2250407 2.5381066,5.0254291 2.3832054,4.8164633 L 2.1015668,4.4365253 2.0877008,4.5465597 c -0.015294,0.121362 -0.081399,0.3226728 -0.105958,0.3226728 -0.039781,0 -0.3049939,-0.068005 -0.3192041,-0.081849 -0.01945,-0.01895 0.053392,-0.3126586 0.099797,-0.4023974 0.01836,-0.035504 0.047142,-0.064553 0.063959,-0.064553 0.016818,0 0.044601,-0.027119 0.061741,-0.060264 0.031111,-0.060162 0.030638,-0.060959 -0.2780575,-0.468584 L 1.300757,3.3832651 1.265352,3.5194033 c -0.0467,0.179571 -0.076814,0.2522306 -0.1045371,0.2522306 -0.012507,0 -0.08873,-0.01501 -0.16938374,-0.033353 -0.1656639,-0.037679 -0.1681122,-0.042464 -0.1180053,-0.2306012 0.045551,-0.1710322 0.1181168,-0.3206134 0.13908154,-0.2866918 0.013651,0.022088 0.026198,0.013222 0.052057,-0.036784 L 1.0986354,3.1183179 0.67515186,2.6165001 C 0.44223686,2.3404997 0.22304066,2.0624405 0.18805006,1.9985897 0.11956576,1.8736197 0.00822796,1.519439 0.03044386,1.4972231 c 0.00744,-0.00744 0.086849,0.058149 0.1764714,0.145746 0.1871539,0.1829228 1.34463014,1.157712 1.37468074,1.157712 0.010985,0 0.024317,-0.016622 0.029626,-0.036938 0.00622,-0.023812 0.010523,-0.017228 0.012102,0.01853 0.00177,0.040154 0.038872,0.087189 0.1343715,0.1703584 0.1753198,0.1526838 0.1813292,0.1555448 0.2046403,0.097421 0.017776,-0.044322 0.019747,-0.042003 0.021274,0.025029 0.00159,0.070004 0.016112,0.084231 0.2769619,0.2714162 0.1514034,0.1086468 0.2780764,0.1941328 0.2814954,0.189969 0.00342,-0.00416 0.016826,-0.026567 0.029795,-0.049786 0.021246,-0.038038 0.023642,-0.035458 0.024221,0.026081 5.8e-4,0.061991 0.012186,0.074124 0.1256956,0.1314232 l 0.1250536,0.063127 0.021034,-0.057546 c 0.020976,-0.057388 0.021038,-0.057341 0.0227,0.017078 0.00158,0.070508 0.0094,0.078435 0.1418256,0.143739 0.077087,0.038013 0.1468872,0.061424 0.1551106,0.052023 0.00822,-0.0094 0.11715,-0.3827834 0.2420598,-0.8297382 0.2262156,-0.8094498 0.389947,-1.2834382 0.5298034,-1.5337353 0.039974,-0.071542 0.072681,-0.1389856 0.072681,-0.1498754 0,-0.01089 -0.1709722,-0.2590527 -0.379938,-0.55147319 -0.2186718,-0.30600258 -0.379888,-0.55148094 -0.3798202,-0.5783391 1.442e-4,-0.0571876 0.039916,-0.20497302 0.055162,-0.20497302 0.00609,0 0.050765,0.0224606 0.099269,0.0499124 0.048504,0.0274518 0.2938636,0.15536292 0.545243,0.2842469 l 0.4570532,0.23433452 0.065113,-0.0995549 0.065113,-0.0995548 2.4e-4,0.10092386 c 1.688e-4,0.0698187 0.00995,0.10464788 0.031736,0.11300682 0.017318,0.006646 0.3070342,0.003973 0.6438136,-0.005939 0.336779,-0.009912 0.6123122,-0.014375 0.612296,-0.009917 -1.056e-4,0.0294861 -0.053548,0.18699064 -0.071367,0.2103389 C 5.7640083,0.80793057 5.4826607,0.95659047 5.1507445,1.1226249 4.8188285,1.2886592 4.5370839,1.4373192 4.5246455,1.4529803 4.5122075,1.4686413 4.4965775,1.5716904 4.4899115,1.681978 4.4707035,1.9998151 4.3880569,2.3735617 4.1491841,3.2228375 4.0267361,3.6581831 3.9265397,4.0214989 3.9265255,4.0302057 c -1.42e-5,0.00871 0.075659,0.01583 0.1681614,0.01583 0.161272,0 0.1695668,-0.00239 0.2017362,-0.058046 0.028928,-0.050052 0.0322,-0.051505 0.023758,-0.010554 -0.00945,0.045858 -0.00441,0.047492 0.1465404,0.047492 0.085982,0 0.1563314,-0.00768 0.1563314,-0.017074 0,-0.00939 0.014394,-0.035511 0.031985,-0.058046 0.030261,-0.038764 0.031244,-0.037718 0.018234,0.019408 -0.011904,0.052266 -0.0084,0.058762 0.026061,0.048338 0.021897,-0.00662 0.1585432,-0.031623 0.3036584,-0.055554 0.3824366,-0.063068 0.3773384,-0.061536 0.4109856,-0.1234928 0.029953,-0.055154 0.030603,-0.055307 0.03143,-0.0074 6.2e-4,0.03642 0.01028,0.046176 0.037784,0.038195 0.020316,-0.0059 0.077307,-0.020784 0.126646,-0.033084 0.230535,-0.057472 0.2585688,-0.06786 0.2585688,-0.095809 0,-0.016282 0.010994,-0.036397 0.024433,-0.044702 0.01674,-0.010346 0.020685,-7.8e-4 0.01253,0.030416 -0.00655,0.025034 -0.00719,0.045516 -0.00142,0.045516 0.057205,0 1.7883618,-0.4380028 1.9116492,-0.4836696 0.089971,-0.033326 0.1635844,-0.051788 0.1635844,-0.041026 0,0.033481 -0.280279,0.299094 -0.4016634,0.3806468 -0.063511,0.04267 -0.3956786,0.1933114 -0.7381506,0.3347584 -0.3424718,0.1414472 -0.6345492,0.272199 -0.6490606,0.2905596 -0.030467,0.038548 -0.036068,0.1393288 -0.00674,0.1212006 0.010806,-0.00668 0.024573,-0.00418 0.030592,0.00556 0.014556,0.023551 -0.0406,0.2834934 -0.084597,0.3986982 -0.038888,0.1018274 -0.035728,0.1013842 -0.2793846,0.039177 -0.093917,-0.023978 -0.097573,-0.027783 -0.090754,-0.094451 0.00391,-0.038207 0.024713,-0.1228382 0.046233,-0.1880698 0.02152,-0.065232 0.035223,-0.1225072 0.030452,-0.1272788 -0.00477,-0.00477 -0.222669,0.093848 -0.4842168,0.219155 l -0.4755422,0.227831 v 0.070575 c 0,0.038817 0.010722,0.070576 0.023827,0.070576 0.032531,0 0.00757,0.178856 -0.049026,0.351249 -0.035838,0.109172 -0.052374,0.1340868 -0.088586,0.1334754 -0.052796,-9e-4 -0.2869658,-0.05524 -0.3017616,-0.070036 -0.017856,-0.017856 0.035771,-0.2372204 0.078466,-0.320964 0.022514,-0.04416 0.037836,-0.08339 0.034049,-0.087177 -0.00379,-0.00379 -0.2102548,0.091458 -0.458818,0.2116556 C 3.8659377,5.3342821 3.6289903,5.4447675 3.5879507,5.4596075 l -0.074618,0.026982 -0.165778,0.593675 C 3.2563767,6.4067859 3.1395063,6.7831719 3.0878427,6.9166779 2.8890781,7.4303129 2.5980341,7.8876305 2.4699139,7.8876305 c -0.024462,0 -0.056071,-0.02764 -0.07845,-0.0686 z"
     id="path8"
     inkscape:connector-curvature="0" />
</svg>
