<?xml version="1.0" encoding="UTF-8" standalone="no"?>
<svg
   xmlns:dc="http://purl.org/dc/elements/1.1/"
   xmlns:cc="http://creativecommons.org/ns#"
   xmlns:rdf="http://www.w3.org/1999/02/22-rdf-syntax-ns#"
   xmlns:svg="http://www.w3.org/2000/svg"
   xmlns="http://www.w3.org/2000/svg"
   xmlns:sodipodi="http://sodipodi.sourceforge.net/DTD/sodipodi-0.dtd"
   xmlns:inkscape="http://www.inkscape.org/namespaces/inkscape"
   version="1.0"
   width="40"
   height="40"
   viewBox="0 0 8 7.9999999"
   id="svg3729"
   sodipodi:docname="plane150.svg"
   inkscape:version="0.92.4 (5da689c313, 2019-01-14)">
  <metadata
     id="metadata3735">
    <rdf:RDF>
      <cc:Work
         rdf:about="">
        <dc:format>image/svg+xml</dc:format>
        <dc:type
           rdf:resource="http://purl.org/dc/dcmitype/StillImage" />
        <dc:title></dc:title>
      </cc:Work>
    </rdf:RDF>
  </metadata>
  <defs
     id="defs3733" />
  <sodipodi:namedview
     pagecolor="#ffffff"
     bordercolor="#666666"
     borderopacity="1"
     objecttolerance="10"
     gridtolerance="10"
     guidetolerance="10"
     inkscape:pageopacity="0"
     inkscape:pageshadow="2"
     inkscape:window-width="3440"
     inkscape:window-height="1377"
     id="namedview3731"
     showgrid="false"
     inkscape:zoom="18.950462"
     inkscape:cx="-29.676838"
     inkscape:cy="9.9518034"
     inkscape:window-x="-8"
     inkscape:window-y="477"
     inkscape:window-maximized="1"
     inkscape:current-layer="svg3729"
     fit-margin-top="0"
     fit-margin-left="0"
     fit-margin-right="0"
     fit-margin-bottom="0" />
  <path
     style="fill:#aa0000;stroke-width:0.01055383"
     d="M 7.6685226,7.8537285 C 7.4402674,7.7637077 7.0194648,7.3890953 6.6553546,6.9517727 6.5886016,6.8715975 6.3511404,6.5510685 6.127663,6.2394859 L 5.7213404,5.6729721 5.6158022,5.6609661 C 5.5577562,5.6543661 5.264301,5.6033081 4.9636796,5.5475125 4.6630582,5.4917165 4.4093528,5.4460657 4.3998894,5.4460657 c -0.010212,0 0.00893,0.023652 0.047084,0.058179 0.092006,0.083261 0.2435654,0.3048388 0.2309666,0.3376706 -0.0087,0.02266 -0.314424,0.1725146 -0.3360526,0.164718 C 4.2972124,5.9905293 4.1388596,5.7807871 4.0620896,5.6360345 4.0182256,5.5533275 4.0138336,5.5139197 4.0495196,5.5232519 c 0.025104,0.00656 0.025483,0.010246 -0.0074,-0.071888 C 4.0224656,5.4022679 4.0081076,5.3810629 3.9919886,5.3773229 3.9795646,5.3744429 3.7153172,5.3270319 3.4047706,5.2719687 3.094224,5.2169057 2.8258928,5.1689547 2.808479,5.1654107 l -0.031661,-0.00644 0.048789,0.051203 c 0.087579,0.091911 0.2271508,0.308445 0.2165772,0.3359996 -0.00862,0.022455 -0.314415,0.1728454 -0.3354164,0.1649562 C 2.6423728,5.6869385 2.3925804,5.3216991 2.387191,5.2438529 c -0.00234,-0.033789 -0.00192,-0.034097 0.026213,-0.019044 0.026083,0.01396 0.02581,0.00506 -0.00207,-0.067813 C 2.39184,5.1060539 2.384463,5.0974779 2.355927,5.0925769 2.33782,5.0894641 1.9763129,5.0416327 1.5525765,4.9862809 0.83015422,4.8919125 0.77425512,4.8831173 0.65550082,4.8451335 0.41841402,4.7693005 0.10547492,4.6139631 0.05938082,4.5492299 l -0.021287,-0.029895 0.039581,0.00446 c 0.3180125,0.035803 0.3409898,0.036274 1.20050238,0.024615 0.4643686,-0.0063 0.9261989,-0.014682 1.0262895,-0.018628 l 0.181983,-0.00717 -0.031174,-0.047029 c -0.017146,-0.025866 -0.029428,-0.048775 -0.027295,-0.050909 0.00891,-0.00891 0.070521,0.032029 0.092069,0.061174 l 0.02328,0.031487 h 0.2407534 c 0.1324144,0 0.2407534,-0.00263 0.2407534,-0.00584 0,-0.00321 -0.011872,-0.02331 -0.026385,-0.044665 -0.014512,-0.021356 -0.026385,-0.042597 -0.026385,-0.047203 0,-0.014984 0.057154,0.0211 0.093771,0.0592 0.032756,0.034084 0.039772,0.036788 0.084431,0.032535 0.026788,-0.00255 0.2078048,-0.017054 0.4022592,-0.03223 0.1944544,-0.015176 0.3550904,-0.02897 0.3569692,-0.030653 0.00188,-0.00168 -0.011182,-0.023212 -0.029023,-0.047841 -0.017842,-0.024629 -0.032439,-0.048939 -0.032439,-0.054022 0,-0.015696 0.056173,0.019212 0.093621,0.05818 0.019566,0.02036 0.040938,0.035346 0.047492,0.033302 0.00655,-0.00204 0.077486,-0.018768 0.1576244,-0.037165 0.1449498,-0.033275 0.145622,-0.033567 0.129335,-0.056148 -0.031923,-0.04426 -0.048823,-0.080745 -0.0374,-0.080745 0.0062,0 0.034125,0.021371 0.06205,0.047492 0.027925,0.026121 0.05503,0.04755 0.060232,0.04762 0.026462,3.6e-4 0.352459,-0.07842 0.352459,-0.08517 0,-0.00433 -0.2480992,-0.3538424 -0.5513314,-0.7766974 C 3.5078746,2.5849431 3.3028838,2.2606089 3.1571284,1.9071963 3.1112024,1.7958395 3.1016532,1.7804371 3.0679056,1.7632845 3.0464408,1.7523748 2.7041726,1.6794141 2.2756872,1.5944087 1.7644424,1.4929851 1.509299,1.4379566 1.4841498,1.4236923 1.4618888,1.4110663 1.4188618,1.3631583 1.3766268,1.30397 1.3112178,1.212308 1.3078438,1.20492 1.3291348,1.1999842 1.3417398,1.1970642 1.6536297,1.1295232 2.0222224,1.0498976 2.390815,0.97027159 2.6933546,0.90439259 2.6945328,0.90349869 c 0.00118,-8.94e-4 -0.0118,-0.048945 -0.028839,-0.1067804 -0.01704,-0.057835 -0.031064,-0.1112653 -0.031165,-0.1187332 -1.054e-4,-0.00747 0.047646,0.022645 0.106106,0.066917 0.105143,0.079625 0.1065344,0.080285 0.1288912,0.06107 0.027703,-0.023809 0.8636834,-0.7847116 0.9151864,-0.8329947 l 0.036938,-0.034629 0.072142,0.101047 c 0.039678,0.055576 0.074422,0.1158171 0.07721,0.1338693 0.00361,0.023397 -0.051778,0.2131506 -0.192884,0.6607753 C 3.6453216,1.2553053 3.5809034,1.4748935 3.582405,1.5011869 c 0.00188,0.032973 0.011834,0.047952 0.062696,0.094378 0.1453634,0.1326839 0.3273514,0.3252907 0.4986424,0.5277377 0.1442604,0.1704996 0.3064672,0.388507 0.7438446,0.999734 0.3076442,0.429927 0.5628568,0.7817942 0.567139,0.781927 0.011998,3.8e-4 0.2450724,-0.2131448 0.2487652,-0.2278908 0.0018,-0.00716 -0.00652,-0.03218 -0.01847,-0.055605 -0.01195,-0.023425 -0.021589,-0.053466 -0.021419,-0.066757 3e-4,-0.023143 0.00158,-0.022761 0.030508,0.00901 0.01661,0.018246 0.035001,0.041758 0.040872,0.052249 0.0098,0.017516 0.014424,0.015952 0.056562,-0.019126 0.025238,-0.02101 0.076702,-0.066398 0.1143632,-0.100863 l 0.068476,-0.062663 -0.024696,-0.052727 c -0.013582,-0.029 -0.02293,-0.06174 -0.020771,-0.072755 0.00315,-0.016056 0.011206,-0.010176 0.040651,0.029659 0.020199,0.027327 0.039832,0.048699 0.043629,0.047492 0.00684,-0.00217 0.1825128,-0.2200564 0.3607234,-0.4473976 l 0.092526,-0.1180348 -0.026915,-0.053114 c -0.040862,-0.080637 -0.034411,-0.1 0.015084,-0.045275 l 0.041133,0.045479 0.1114646,-0.1701088 C 6.668519,2.5029756 6.718678,2.4217682 6.718678,2.4160744 c 0,-0.00569 -0.0095,-0.028971 -0.021108,-0.051727 -0.01161,-0.022756 -0.020895,-0.052249 -0.020635,-0.065541 4.2e-4,-0.021332 0.00568,-0.018358 0.044891,0.025357 l 0.044418,0.049524 0.4978432,-0.7513537 C 7.7036572,0.95892729 7.7703616,0.85283369 7.8339574,0.71595229 l 0.072027,-0.1550277 0.022764,0.028382 c 0.029975,0.037372 0.048205,0.1806523 0.046451,0.3650709 -0.0025,0.26269271 5.8e-4,0.25262991 -0.2944202,0.96079101 l -0.2635236,0.6325886 0.054395,0.062592 c 0.054036,0.062178 0.05443,0.062398 0.059672,0.033291 0.00477,-0.026466 0.00668,-0.027609 0.019762,-0.01182 0.00797,0.00961 0.020524,0.01748 0.027905,0.01748 0.017336,0 0.1449026,0.1423656 0.212777,0.2374612 0.072611,0.101731 0.1226078,0.193018 0.1156482,0.211155 -0.0074,0.019274 -0.294132,0.163506 -0.3250516,0.163506 -0.012836,0 -0.036582,-0.015254 -0.053391,-0.0343 C 7.4649532,3.1545883 7.353615,3.0003751 7.3262948,2.9463965 7.3105788,2.9153455 7.296301,2.8915985 7.2945664,2.8936275 7.2886844,2.9005075 6.950863,3.8924767 6.950863,3.9028713 c 0,0.010398 0.1088064,0.1078734 0.1204138,0.1078734 0.00343,0 0.00623,-0.01008 0.00623,-0.0224 0,-0.018872 0.00253,-0.020297 0.016086,-0.00905 0.00885,0.00734 0.018758,0.010678 0.022023,0.00741 0.00327,-0.00327 0.042724,0.035239 0.087685,0.085565 0.1229258,0.137593 0.2600564,0.3434922 0.2486192,0.3732974 -0.0065,0.01693 -0.3030328,0.1668024 -0.329652,0.1666094 -0.03927,-2.8e-4 -0.207418,-0.2216304 -0.250927,-0.3303138 -0.015744,-0.039329 -0.031602,-0.068575 -0.035238,-0.064991 -0.00364,0.00358 -0.080601,0.2258148 -0.1710338,0.4938462 -0.090432,0.2680314 -0.1754062,0.5116298 -0.1888304,0.5413298 l -0.024408,0.054 0.4106336,0.573953 c 0.4070272,0.5689118 0.544061,0.779056 0.687407,1.0541522 0.1780382,0.3416742 0.3017206,0.7159634 0.281389,0.8515434 -0.012948,0.086346 -0.063119,0.1073188 -0.1627388,0.06803 z"
     id="path8"
     inkscape:connector-curvature="0" />
</svg>
