<?xml version="1.0" encoding="UTF-8" standalone="no"?>
<svg
   xmlns:dc="http://purl.org/dc/elements/1.1/"
   xmlns:cc="http://creativecommons.org/ns#"
   xmlns:rdf="http://www.w3.org/1999/02/22-rdf-syntax-ns#"
   xmlns:svg="http://www.w3.org/2000/svg"
   xmlns="http://www.w3.org/2000/svg"
   xmlns:sodipodi="http://sodipodi.sourceforge.net/DTD/sodipodi-0.dtd"
   xmlns:inkscape="http://www.inkscape.org/namespaces/inkscape"
   version="1.0"
   width="40.858002"
   height="37.076351"
   viewBox="0 0 8.1716004 7.4152701"
   id="svg3729"
   sodipodi:docname="plane75.svg"
   inkscape:version="0.92.4 (5da689c313, 2019-01-14)">
  <metadata
     id="metadata3735">
    <rdf:RDF>
      <cc:Work
         rdf:about="">
        <dc:format>image/svg+xml</dc:format>
        <dc:type
           rdf:resource="http://purl.org/dc/dcmitype/StillImage" />
        <dc:title></dc:title>
      </cc:Work>
    </rdf:RDF>
  </metadata>
  <defs
     id="defs3733" />
  <sodipodi:namedview
     pagecolor="#ffffff"
     bordercolor="#666666"
     borderopacity="1"
     objecttolerance="10"
     gridtolerance="10"
     guidetolerance="10"
     inkscape:pageopacity="0"
     inkscape:pageshadow="2"
     inkscape:window-width="3440"
     inkscape:window-height="1377"
     id="namedview3731"
     showgrid="false"
     inkscape:zoom="13.4"
     inkscape:cx="-48.507463"
     inkscape:cy="4.7094658"
     inkscape:window-x="-8"
     inkscape:window-y="477"
     inkscape:window-maximized="1"
     inkscape:current-layer="svg3729"
     fit-margin-top="0"
     fit-margin-left="0"
     fit-margin-right="0"
     fit-margin-bottom="0" />
  <path
     style="fill:#aa0000;stroke-width:0.03179044"
     d="m 3.4564228,7.4049001 c 0,-0.017049 0.019519,-0.080673 0.04336,-0.1414085 0.023846,-0.060735 0.1355465,-0.4935814 0.2482231,-0.9618774 0.1126762,-0.468296 0.2261378,-0.9374088 0.2521372,-1.0424722 0.025999,-0.105063 0.040065,-0.2109509 0.031259,-0.2353069 -0.00881,-0.024355 -0.003,-0.048918 0.012903,-0.054586 0.091565,-0.032622 0.2071583,-1.4020919 0.1183458,-1.4020919 -0.019002,0 -0.3940039,0.1104737 -0.8333422,0.2454956 C 2.4464201,4.0839925 2.0372828,4.1865531 1.7133088,4.2177435 L 1.4978103,4.2384906 1.183171,4.8442108 C 0.87567208,5.4361842 0.82896162,5.5023254 0.68665542,5.5472683 l -0.0694371,0.021919 V 4.9611532 4.3531088 L 0.51692028,4.3529451 0.41662221,4.352781 0.5040657,4.2785255 0.5915092,4.2042702 0.29575475,3.7145082 C 0.13308965,3.4451407 0,3.2150887 0,3.2032837 0,3.1785783 0.11332452,3.142537 0.19308242,3.1418816 0.22289695,3.1416356 0.49504771,3.2887995 0.79786191,3.4689144 1.1006761,3.649027 1.3649078,3.7963941 1.3850436,3.7963941 c 0.020135,0 0.1073495,-0.038037 0.1938081,-0.084528 C 1.8661402,3.5573822 2.2815118,3.4056201 3.1406982,3.1412216 3.6085533,2.9972477 3.9980056,2.872382 4.0061477,2.8637421 4.0282513,2.8402869 3.8618691,2.5847178 3.8244937,2.5847178 c -0.017741,0 -0.02455,-0.013208 -0.015136,-0.029361 C 3.8592103,2.4697493 2.9811702,1.4389955 2.857572,1.4380369 2.8132138,1.4376928 2.8051476,1.4292942 2.8318805,1.4112867 2.8588494,1.3931203 2.6876543,1.1991694 2.2758883,0.78138983 1.9486605,0.44938297 1.6325458,0.13790757 1.5734112,0.08922214 L 1.4658936,7.0274919e-4 1.5739068,1.0279192e-5 C 1.7921954,-0.00138869 2.0735864,0.13985876 2.6018501,0.51600021 2.887156,0.71914673 3.1389615,0.89284023 3.161418,0.90198453 c 0.022458,0.00915 0.079319,-0.021217 0.1263581,-0.067487 0.080716,-0.079379 0.3333615,-0.1819118 0.4482415,-0.1819118 0.058369,0 0.13766,0.2580379 0.093643,0.3047449 -0.013874,0.014723 -0.1062354,0.052282 -0.2052587,0.083476 l -0.1800414,0.056715 0.4372281,0.2712472 c 0.3148692,0.1953376 0.4547404,0.265349 0.4998059,0.2501712 0.034418,-0.011585 0.062579,-0.040835 0.062579,-0.064985 0,-0.043518 0.3312913,-0.1809135 0.4362237,-0.1809135 0.067797,0 0.081426,0.023968 0.1058757,0.1862297 l 0.019726,0.1308593 -0.1497498,0.040751 c -0.2943725,0.080107 -0.2977242,0.069623 0.100022,0.312823 0.2020953,0.1235704 0.4043087,0.251639 0.4493623,0.2845983 0.045055,0.03296 0.105706,0.059925 0.1347818,0.059925 0.029076,0 0.317925,-0.08244 0.6418869,-0.1831954 0.8577682,-0.2667805 1.464017,-0.3750206 1.8142161,-0.3239107 0.2018139,0.029454 0.2273896,0.094261 0.08689,0.2201834 C 7.79437,2.3601699 7.2231051,2.6172197 6.3110558,2.8987101 L 5.6938372,3.0892053 5.4525164,3.5933426 C 5.3197899,3.8706182 5.216974,4.1036119 5.2240363,4.111106 c 0.00707,0.0075 0.060108,-0.007 0.1178765,-0.032194 0.057771,-0.025201 0.1477979,-0.055485 0.2000627,-0.067298 0.089574,-0.020252 0.097098,-0.01413 0.1311593,0.1065001 0.052629,0.1863988 0.049937,0.1923843 -0.1104556,0.2458326 -0.2419427,0.080623 -0.3244077,0.093768 -0.3468184,0.05529 -0.014184,-0.024359 -0.045698,-0.025917 -0.097927,-0.00485 C 5.0601685,4.4376929 4.9851902,4.560763 4.8178979,4.9068758 4.6952326,5.1606567 4.6077783,5.3682954 4.6235544,5.3682954 c 0.015776,0 0.087723,-0.022104 0.1598855,-0.049121 0.2084567,-0.078045 0.2350375,-0.06818 0.275474,0.1022282 0.019746,0.083242 0.031817,0.1549373 0.026809,0.1593256 -0.019251,0.016873 -0.3218446,0.1101116 -0.4025814,0.1240552 -0.046678,0.00805 -0.084868,0.00197 -0.084868,-0.013537 0,-0.015513 -0.03262,-0.028207 -0.072489,-0.028207 -0.064361,0 -0.1043621,0.074536 -0.3567635,0.6647842 C 3.9803665,6.768995 3.8433311,7.0440207 3.7616202,7.1454593 3.6303989,7.3083614 3.4564199,7.4562614 3.4564199,7.4049099 Z"
     id="path8"
     inkscape:connector-curvature="0" />
</svg>
