<?xml version="1.0" encoding="UTF-8" standalone="no"?>
<svg
   xmlns:dc="http://purl.org/dc/elements/1.1/"
   xmlns:cc="http://creativecommons.org/ns#"
   xmlns:rdf="http://www.w3.org/1999/02/22-rdf-syntax-ns#"
   xmlns:svg="http://www.w3.org/2000/svg"
   xmlns="http://www.w3.org/2000/svg"
   xmlns:sodipodi="http://sodipodi.sourceforge.net/DTD/sodipodi-0.dtd"
   xmlns:inkscape="http://www.inkscape.org/namespaces/inkscape"
   version="1.0"
   width="40"
   height="40"
   viewBox="0 0 8 8.0000001"
   id="svg3729"
   sodipodi:docname="plane210.svg"
   inkscape:version="0.92.4 (5da689c313, 2019-01-14)">
  <metadata
     id="metadata3735">
    <rdf:RDF>
      <cc:Work
         rdf:about="">
        <dc:format>image/svg+xml</dc:format>
        <dc:type
           rdf:resource="http://purl.org/dc/dcmitype/StillImage" />
        <dc:title></dc:title>
      </cc:Work>
    </rdf:RDF>
  </metadata>
  <defs
     id="defs3733" />
  <sodipodi:namedview
     pagecolor="#ffffff"
     bordercolor="#666666"
     borderopacity="1"
     objecttolerance="10"
     gridtolerance="10"
     guidetolerance="10"
     inkscape:pageopacity="0"
     inkscape:pageshadow="2"
     inkscape:window-width="3440"
     inkscape:window-height="1377"
     id="namedview3731"
     showgrid="false"
     inkscape:zoom="13.4"
     inkscape:cx="-29.132756"
     inkscape:cy="17.338684"
     inkscape:window-x="-8"
     inkscape:window-y="477"
     inkscape:window-maximized="1"
     inkscape:current-layer="svg3729"
     fit-margin-top="0"
     fit-margin-left="0"
     fit-margin-right="0"
     fit-margin-bottom="0" />
  <path
     style="fill:#aa0000;stroke-width:0.01492537"
     d="M 0.60523323,7.9422386 C 0.53543423,7.8118174 0.67068723,7.34011 0.91921993,6.8471884 1.0229462,6.641465 1.1620477,6.408208 1.4258653,5.9976038 1.6258798,5.6863022 1.7925101,5.420197 1.796155,5.4062588 1.799795,5.3923208 1.786077,5.3479508 1.76566,5.3076598 1.745243,5.2673688 1.6533525,5.036459 1.5614592,4.7945272 1.4695662,4.5525954 1.3894295,4.3457014 1.3833783,4.334763 1.3762583,4.321899 1.3609023,4.345617 1.3398843,4.401927 1.2965423,4.5180478 1.1524338,4.7203226 1.1130465,4.7203226 c -0.034831,0 -0.32765737,-0.1440606 -0.32765737,-0.1611962 0,-0.024834 0.1454568,-0.2620408 0.21641787,-0.3529282 0.073339,-0.093934 0.1193173,-0.1262252 0.1317055,-0.0925 0.00697,0.018972 0.1145631,-0.076196 0.1145631,-0.1013318 0,-0.014392 -0.37180687,-0.9792362 -0.38213807,-0.9916528 -0.00255,-0.00307 -0.016539,0.020439 -0.031079,0.052239 -0.023974,0.052433 -0.1370898,0.2280048 -0.1887016,0.2928926 -0.011426,0.014366 -0.03011,0.026301 -0.041518,0.026523 -0.038722,7.6e-4 -0.3252654,-0.1420764 -0.3259912,-0.1624936 -0.00207,-0.05814 0.2518375,-0.4347522 0.3075022,-0.4561128 0.014067,-0.0054 0.030499,-0.0012 0.037174,0.00949 0.00882,0.014122 0.025389,0.00542 0.063,-0.033077 l 0.051037,-0.052239 -0.2957033,-0.641791 c -0.282908,-0.6140203 -0.2968137,-0.6485267 -0.3213647,-0.797452 -0.028186,-0.1709736 -0.023306,-0.44931358 0.00893,-0.50955256 0.016366,-0.0305805 0.023927,-0.02105 0.1027591,0.12953496 0.055584,0.1061758 0.2575987,0.4058133 0.5825312,0.8640367 0.27359097,0.3858209 0.50778657,0.7134373 0.52043477,0.7280363 0.021702,0.02505 0.024691,0.023868 0.0531,-0.021001 0.035514,-0.056091 0.048714,-0.035035 0.024338,0.038826 -0.016827,0.050988 -0.014751,0.055576 0.098022,0.216548 0.063367,0.090451 0.1190053,0.1644566 0.1236395,0.1644566 0.00463,0 0.023549,-0.01847 0.042032,-0.041045 0.027332,-0.033382 0.033706,-0.03603 0.034143,-0.014184 2.96e-4,0.014774 -0.00976,0.046776 -0.022349,0.071117 -0.022563,0.043632 -0.021878,0.045492 0.048507,0.1317222 0.2255259,0.2762952 0.386734,0.4630256 0.400265,0.4636348 0.00849,3.8e-4 0.028455,-0.021134 0.044364,-0.047813 0.03757,-0.063005 0.050155,-0.019814 0.014384,0.049361 -0.020497,0.039637 -0.021275,0.050617 -0.00463,0.065406 0.011,0.00977 0.062744,0.053926 0.1149882,0.098113 l 0.094988,0.080341 0.04267,-0.051461 c 0.047305,-0.057051 0.05528,-0.041449 0.020889,0.040862 -0.012422,0.029728 -0.020817,0.055351 -0.018656,0.05694 0.00216,0.00158 0.058918,0.050931 0.1261284,0.1096486 0.067211,0.058718 0.1276586,0.1065018 0.1343284,0.1061864 0.00667,-3.2e-4 0.233769,-0.3477986 0.5046644,-0.7721846 C 3.4816595,2.7918362 3.7565661,2.3739972 3.8216679,2.2876912 4.0260581,2.0167284 4.1618049,1.8515194 4.2891073,1.7187994 4.3570483,1.6479674 4.4122565,1.5774091 4.4122565,1.5614104 4.4122565,1.5454608 4.3115103,1.252928 4.1883759,0.9113377 4.0652415,0.56974744 3.9644953,0.27499594 3.9644953,0.25633444 c 0,-0.027232 0.037584,-0.095928 0.1285744,-0.2350075 0.00178,-0.00273 0.2237756,0.1869497 0.4933076,0.4215141 0.269532,0.2345643 0.494747,0.42653806 0.5004774,0.42660834 0.00573,7.016e-5 0.050772,-0.0334543 0.1000926,-0.0744991 0.04932,-0.0410448 0.09273,-0.0746269 0.096466,-0.0746269 0.00374,0 -0.00211,0.0386194 -0.012994,0.0858209 -0.010882,0.0472015 -0.022041,0.0988996 -0.024796,0.1148847 -0.00463,0.0268887 0.04615,0.0391754 0.678593,0.16417912 L 6.6078184,1.2203234 6.5360636,1.3246445 C 6.4965986,1.3820211 6.4475598,1.4369787 6.4270886,1.4467726 6.4066174,1.4565666 6.0662229,1.537864 5.6706569,1.6274337 5.2750907,1.7170035 4.9348721,1.8011473 4.9146155,1.81442 4.8886285,1.831447 4.8657865,1.874979 4.8370325,1.9622735 4.7972515,2.0830478 4.6799707,2.3304748 4.5272395,2.6158458 4.4855015,2.6938308 4.2239735,3.1127486 3.9460657,3.546774 3.6681579,3.9807994 3.4441751,4.3393074 3.4483261,4.3434584 c 0.00415,0.00415 0.083368,0.023 0.176037,0.041886 l 0.1684896,0.034338 0.048284,-0.04642 c 0.054791,-0.052677 0.080219,-0.046111 0.04277,0.011044 -0.02931,0.044733 -0.038183,0.040028 0.150306,0.079709 l 0.1368824,0.028817 0.048881,-0.050433 c 0.062637,-0.064625 0.084119,-0.064684 0.044216,-1.194e-4 l -0.031095,0.050312 0.070922,0.00876 c 0.039007,0.00482 0.2170776,0.017008 0.395712,0.027084 l 0.32479,0.01832 0.049055,-0.047546 c 0.061463,-0.059573 0.077489,-0.060505 0.047634,-0.00277 l -0.023155,0.044776 h 0.2272846 0.2272848 l 0.048994,-0.047487 c 0.05518,-0.053482 0.081261,-0.047683 0.043657,0.00971 L 5.6205215,4.541217 H 6.591636 c 0.7928084,0 1.006569,-0.00432 1.1642126,-0.023542 C 7.8620528,4.504727 7.9608404,4.496643 7.975377,4.499711 7.9986086,4.504611 7.997272,4.509431 7.964331,4.539514 7.899023,4.599157 7.64932,4.7336844 7.4868812,4.7967402 7.3392558,4.8540452 7.2850138,4.8645902 6.5518312,4.978514 L 5.7735,5.099455 5.742132,5.16402 c -0.037346,0.07687 -0.038286,0.08454 -0.00898,0.073294 0.03943,-0.01513 0.025506,0.047124 -0.03742,0.1672974 -0.084239,0.1608772 -0.2014002,0.315712 -0.2388946,0.315712 -0.036079,0 -0.3281632,-0.1441296 -0.3281632,-0.161933 0,-0.020403 0.1409326,-0.248519 0.1912564,-0.3095704 0.025698,-0.031177 0.044182,-0.059227 0.041074,-0.062335 -0.00521,-0.00521 -1.1755928,0.2321768 -1.1808762,0.2395208 -0.0013,0.0018 -0.013214,0.035822 -0.026488,0.075605 -0.019988,0.059906 -0.02052,0.070946 -0.0031,0.06426 0.063585,-0.0244 0.00439,0.1315182 -0.1208606,0.3183546 -0.084513,0.1260654 -0.11764,0.164416 -0.142207,0.1646284 -0.010998,8.96e-5 -0.088839,-0.031227 -0.1729808,-0.069604 -0.1054708,-0.048105 -0.152985,-0.07755 -0.152985,-0.094805 0,-0.039517 0.1440176,-0.2708858 0.2028364,-0.3258638 C 3.7936484,5.53119 3.8142054,5.50536 3.8100264,5.50118 3.8058464,5.497 3.5756568,5.541959 3.2984924,5.601087 3.021328,5.660215 2.7375462,5.7178218 2.667866,5.7291016 2.598186,5.7403816 2.5362438,5.7547746 2.5302168,5.7610856 2.5241868,5.7673956 2.3540432,6.0300126 2.1521132,6.3446758 1.6053124,7.1967428 1.3170531,7.5497646 0.92987223,7.8415142 0.75167293,7.9757914 0.64148553,8.0099784 0.60523203,7.942238 Z"
     id="path8"
     inkscape:connector-curvature="0" />
</svg>
