<?xml version="1.0" encoding="UTF-8" standalone="no"?>
<svg
   xmlns:dc="http://purl.org/dc/elements/1.1/"
   xmlns:cc="http://creativecommons.org/ns#"
   xmlns:rdf="http://www.w3.org/1999/02/22-rdf-syntax-ns#"
   xmlns:svg="http://www.w3.org/2000/svg"
   xmlns="http://www.w3.org/2000/svg"
   xmlns:sodipodi="http://sodipodi.sourceforge.net/DTD/sodipodi-0.dtd"
   xmlns:inkscape="http://www.inkscape.org/namespaces/inkscape"
   version="1.0"
   width="40"
   height="40"
   viewBox="0 0 8 8"
   id="svg3729"
   sodipodi:docname="plane345.svg"
   inkscape:version="0.92.4 (5da689c313, 2019-01-14)">
  <metadata
     id="metadata3735">
    <rdf:RDF>
      <cc:Work
         rdf:about="">
        <dc:format>image/svg+xml</dc:format>
        <dc:type
           rdf:resource="http://purl.org/dc/dcmitype/StillImage" />
        <dc:title></dc:title>
      </cc:Work>
    </rdf:RDF>
  </metadata>
  <defs
     id="defs3733" />
  <sodipodi:namedview
     pagecolor="#ffffff"
     bordercolor="#666666"
     borderopacity="1"
     objecttolerance="10"
     gridtolerance="10"
     guidetolerance="10"
     inkscape:pageopacity="0"
     inkscape:pageshadow="2"
     inkscape:window-width="3440"
     inkscape:window-height="1377"
     id="namedview3731"
     showgrid="false"
     inkscape:zoom="9.4752309"
     inkscape:cx="-42.050759"
     inkscape:cy="0.23329535"
     inkscape:window-x="-8"
     inkscape:window-y="477"
     inkscape:window-maximized="1"
     inkscape:current-layer="g3727"
     fit-margin-top="0"
     fit-margin-left="0"
     fit-margin-right="0"
     fit-margin-bottom="0" />
  <g
     transform="matrix(-0.91608891,0.26028328,0.26068796,0.90270314,19.480913,-31.975435)"
     id="g3727">
 v2.0 14 November 2016 - Peter Lowden - peter@lowden.nz
  <path
   style="fill:#aa0000;stroke-width:0.02231388"
   d="m 27.929281,36.073031 c 0.0018,-0.06513 -0.0074,-0.132836 -0.02049,-0.150459 -0.01309,-0.01762 -0.248793,-0.228826 -0.523772,-0.469339 -0.274979,-0.240514 -0.504865,-0.454531 -0.510859,-0.475595 -0.006,-0.02106 0.0085,-0.116095 0.0323,-0.211181 0.07745,-0.309934 0.122382,-0.834305 0.149695,-1.746849 0.01476,-0.492953 0.02944,-0.902156 0.03262,-0.909339 0.0032,-0.0072 0.08001,0.0043 0.170704,0.0256 0.15483,0.03629 0.165665,0.04295 0.177332,0.108911 0.0081,0.04603 0.01893,0.06301 0.03129,0.04923 0.01037,-0.01156 0.01488,-0.03504 0.01,-0.05216 -0.01254,-0.04407 0.0082,-0.0453 0.165082,-0.0098 0.131107,0.02963 0.139439,0.03544 0.148161,0.103422 0.0086,0.06741 0.01,0.06838 0.02062,0.01517 0.0063,-0.03127 0.02461,-0.05565 0.04079,-0.05418 0.01618,0.0015 0.17109,0.05983 0.344251,0.129687 0.296971,0.119802 0.315289,0.13086 0.322796,0.194863 0.0073,0.06261 0.0094,0.06406 0.02686,0.01882 0.01785,-0.04629 0.02956,-0.04379 0.209733,0.04475 0.169118,0.08311 0.191453,0.101053 0.196283,0.157675 0.0033,0.03904 0.01215,0.05642 0.02268,0.04469 0.0095,-0.01056 0.01301,-0.03402 0.0079,-0.05214 -0.0052,-0.01812 3.24e-4,-0.03223 0.01218,-0.03136 0.04639,0.0034 1.596044,0.790685 1.753519,0.890854 0.161848,0.10295 0.166665,0.104328 0.149585,0.04281 -0.027,-0.09725 -0.156768,-0.314432 -0.262959,-0.440093 -0.05524,-0.06536 -0.296572,-0.2613 -0.573824,-0.465879 -0.719915,-0.53121 -0.644882,-0.465088 -0.627619,-0.553085 0.0087,-0.04429 0.02777,-0.07412 0.04634,-0.07243 0.05503,0.005 0.09589,-0.500476 0.04286,-0.530365 -0.0088,-0.0049 -0.09117,-0.0071 -0.183112,-0.0047 -0.127919,0.0033 -0.169323,0.01149 -0.176314,0.03509 -0.01612,0.05442 -0.02983,0.282718 -0.01927,0.321081 0.03268,0.118823 -0.0281,0.08331 -0.423232,-0.247255 l -0.415216,-0.347371 0.01459,-0.0744 c 0.008,-0.04092 0.02188,-0.07533 0.03078,-0.07647 0.0089,-0.0011 0.02607,-0.0062 0.03816,-0.01117 0.04416,-0.01831 0.06863,-0.506657 0.0264,-0.526963 -0.01964,-0.0094 -0.308142,-0.0025 -0.345649,0.0083 -0.02733,0.0079 -0.04608,0.254412 -0.02903,0.381699 l 0.01347,0.100545 -0.401802,-0.339314 c -0.220991,-0.186623 -0.427649,-0.358167 -0.45924,-0.381209 l -0.05744,-0.0419 0.0209,-0.613976 c 0.03312,-0.972979 0.01127,-1.307016 -0.115543,-1.767155 -0.06342,-0.230084 -0.08808,-0.29248 -0.134854,-0.341086 -0.03148,-0.03272 -0.0733,-0.05486 -0.09292,-0.0492 -0.05763,0.01662 -0.199549,0.312183 -0.263667,0.549126 -0.104665,0.386784 -0.146407,0.750658 -0.17342,1.511743 -0.02156,0.607465 -0.03325,0.742772 -0.06603,0.764086 -0.02191,0.01425 -0.233889,0.192496 -0.471072,0.396113 -0.237184,0.203617 -0.437444,0.366718 -0.445022,0.362446 -0.0076,-0.0043 -0.004,-0.04628 0.008,-0.09335 0.02678,-0.105367 0.02299,-0.335536 -0.0058,-0.353162 -0.01164,-0.0071 -0.09555,-0.01106 -0.186457,-0.0088 l -0.165284,0.0042 -0.01805,0.126176 c -0.02473,0.17288 -0.0047,0.419254 0.03426,0.421028 0.01586,7.23e-4 0.03778,0.03273 0.04871,0.07112 0.01954,0.06867 0.01601,0.07305 -0.217087,0.269485 -0.130324,0.109824 -0.331749,0.280326 -0.447613,0.378893 -0.159092,0.135342 -0.209392,0.168841 -0.205478,0.136846 0.01274,-0.104112 0.01678,-0.300272 0.0073,-0.353949 -0.0096,-0.05429 -0.0211,-0.05883 -0.148597,-0.0587 -0.224496,2.37e-4 -0.230483,0.0042 -0.24245,0.160912 -0.01576,0.206366 0.0022,0.379562 0.04048,0.390571 0.01707,0.0049 0.03588,0.03796 0.0418,0.07344 0.01048,0.06287 -0.0044,0.0761 -0.585362,0.520219 -0.334568,0.255765 -0.637883,0.504316 -0.691314,0.566495 -0.118513,0.137916 -0.320756,0.471068 -0.295134,0.486169 0.01045,0.0062 0.08676,-0.0354 0.169567,-0.09236 0.08281,-0.05696 0.510081,-0.297604 0.949495,-0.534769 0.439414,-0.237166 0.813575,-0.440508 0.831468,-0.451872 0.02535,-0.0161 0.03328,-0.009 0.03593,0.03193 l 0.0034,0.05259 0.02547,-0.05908 c 0.01788,-0.04148 0.07749,-0.08827 0.200088,-0.15707 0.217322,-0.121947 0.218283,-0.122202 0.219079,-0.05819 6.24e-4,0.05031 0.0015,0.0504 0.02129,0.0022 0.01135,-0.0276 0.02101,-0.05932 0.02146,-0.07049 6.19e-4,-0.01545 0.603543,-0.308815 0.689234,-0.335363 0.009,-0.0028 0.01842,0.02327 0.02104,0.05789 l 0.0048,0.06293 0.01682,-0.06915 c 0.01581,-0.06501 0.0257,-0.07171 0.165193,-0.111934 0.139249,-0.04015 0.149316,-0.03982 0.163654,0.0054 l 0.01527,0.04821 0.0093,-0.05528 c 0.0085,-0.05079 0.02373,-0.05945 0.187014,-0.106535 0.09776,-0.02819 0.179403,-0.04542 0.181429,-0.0383 0.002,0.0071 -0.0094,0.418242 -0.02534,0.913601 -0.02977,0.923582 -0.01961,1.370732 0.0391,1.720985 0.01838,0.109686 0.02466,0.215012 0.01394,0.234059 -0.01071,0.01904 -0.259616,0.246848 -0.553113,0.506227 -0.293497,0.259378 -0.54113,0.4867 -0.550296,0.505159 -0.0092,0.01846 -0.01859,0.08532 -0.02095,0.148574 l -0.0043,0.115011 0.641439,-0.193503 0.641437,-0.193503 0.04404,0.114275 0.04404,0.114274 0.03575,-0.108052 c 0.01966,-0.05943 0.04655,-0.111167 0.05975,-0.114974 0.0132,-0.0038 0.274286,0.05326 0.580182,0.126826 0.305897,0.07356 0.58465,0.139838 0.619453,0.147281 0.0625,0.01337 0.06332,0.01207 0.06659,-0.104883 z"
   id="path8"
   inkscape:connector-curvature="0" />
</g>
</svg>
