<?xml version="1.0" encoding="UTF-8" standalone="no"?>
<svg
   xmlns:dc="http://purl.org/dc/elements/1.1/"
   xmlns:cc="http://creativecommons.org/ns#"
   xmlns:rdf="http://www.w3.org/1999/02/22-rdf-syntax-ns#"
   xmlns:svg="http://www.w3.org/2000/svg"
   xmlns="http://www.w3.org/2000/svg"
   xmlns:sodipodi="http://sodipodi.sourceforge.net/DTD/sodipodi-0.dtd"
   xmlns:inkscape="http://www.inkscape.org/namespaces/inkscape"
   version="1.0"
   width="40.330952"
   height="39.707691"
   viewBox="0 0 8.0661901 7.941538"
   id="svg3729"
   sodipodi:docname="plane30.svg"
   inkscape:version="0.92.4 (5da689c313, 2019-01-14)">
  <metadata
     id="metadata3735">
    <rdf:RDF>
      <cc:Work
         rdf:about="">
        <dc:format>image/svg+xml</dc:format>
        <dc:type
           rdf:resource="http://purl.org/dc/dcmitype/StillImage" />
        <dc:title></dc:title>
      </cc:Work>
    </rdf:RDF>
  </metadata>
  <defs
     id="defs3733" />
  <sodipodi:namedview
     pagecolor="#ffffff"
     bordercolor="#666666"
     borderopacity="1"
     objecttolerance="10"
     gridtolerance="10"
     guidetolerance="10"
     inkscape:pageopacity="0"
     inkscape:pageshadow="2"
     inkscape:window-width="3440"
     inkscape:window-height="1377"
     id="namedview3731"
     showgrid="false"
     inkscape:zoom="6.7000001"
     inkscape:cx="-6.8771322"
     inkscape:cy="16.84839"
     inkscape:window-x="-8"
     inkscape:window-y="477"
     inkscape:window-maximized="1"
     inkscape:current-layer="g3727"
     fit-margin-top="0"
     fit-margin-left="0"
     fit-margin-right="0"
     fit-margin-bottom="0" />
  <g
     transform="matrix(-0.06982911,-0.03870691,-0.03870691,0.06982911,5.8720023,4.5871721)"
     id="g3727">
 v2.0 14 November 2016 - Peter Lowden - peter@lowden.nz
  <path
   style="fill:#aa0000;stroke-width:0.51198018"
   d="m 8.7370551,46.767516 c 7.6510599,-1.472352 8.2125529,-1.499778 8.6039669,-0.420216 0.570699,1.574019 0.839624,1.627722 1.279457,0.25548 0.422769,-1.319002 0.206472,-1.365038 11.161325,2.375519 l 5.859802,2.000837 0.08586,-1.335546 c 0.09903,-1.540416 -0.245503,-1.910073 -9.077622,-9.739617 -5.806091,-5.147018 -6.385235,-5.79826 -6.24352,-7.020748 0.497215,-4.289222 0.25065,-14.136053 -0.602036,-24.0427399 -0.536203,-6.2297367 -0.873301,-11.5101133 -0.749105,-11.7341691 0.124196,-0.224055 1.062228,-0.1002779 2.084517,0.2750612 1.022286,0.3753438 3.015831,1.0163019 4.430094,1.4243631 C 27.3681,-0.67539031 34.603775,3.129944 49.636771,11.46287 L 71.13236,23.378071 70.022811,21.498765 C 68.05295,18.162298 65.001673,15.227443 57.53073,9.4833167 53.504895,6.3880039 50.053118,3.5013436 49.860114,3.068516 49.667112,2.635687 49.800825,1.9815998 50.157256,1.6149866 c 0.625011,-0.64286396 0.572969,-5.3974941 -0.07117,-6.5023926 -0.334981,-0.5745957 -4.287692,-1.0532683 -4.565089,-0.5528325 -0.09046,0.1631901 -0.05274,1.3297517 0.0838,2.5923568 0.136569,1.2626045 0.0958,2.33628178 -0.09063,2.3859488 -0.391257,0.10424013 -11.710162,-9.4886482 -11.891246,-10.0779531 -0.0662,-0.215471 0.19146,-0.940547 0.572605,-1.61126 0.381169,-0.670704 0.596545,-2.494385 0.478661,-4.052604 l -0.214326,-2.833119 -2.271029,-0.112535 c -1.249061,-0.06189 -2.330807,-0.0047 -2.403874,0.127126 -0.273833,0.494008 -0.156707,2.780903 0.216921,4.235408 0.507214,1.974547 0.363928,1.883233 -6.923378,-4.412117 l -6.030593,-5.209705 -0.601204,-6.939182 c -0.330664,-3.81655 -0.738683,-8.390373 -0.906709,-10.164053 -0.370916,-3.915378 -2.896471,-13.356362 -4.392725,-16.420791 -1.9738041,-4.042497 -3.0274914,-3.591863 -4.4055963,1.884162 -1.2031739,4.780911 -1.3543965,11.15312 -0.5063899,21.338112 0.3722981,4.471501 0.6922493,8.460933 0.7110013,8.865404 0.01876,0.404473 -1.6220428,2.079891 -3.646224,3.723149 -2.0241777,1.643262 -4.5892729,3.752468 -5.7002072,4.687126 l -2.0198803,1.699379 -0.00994,-1.711552 c -0.00549,-0.941357 -0.097928,-2.328594 -0.2054231,-3.082755 -0.1895673,-1.329976 -0.2607493,-1.37949 -2.3678922,-1.647129 -1.1948419,-0.151762 -2.2965427,-0.24654 -2.4482127,-0.21061 -0.5015126,0.118795 0.3734729,6.810302 0.8884514,6.794493 0.2774694,-0.0085 0.6316757,0.50128 0.7871224,1.132879 0.2571799,1.044969 -0.1771721,1.527074 -4.8240694,5.3544278 -2.808683,2.313334 -5.247878,4.1278038 -5.420431,4.0321561 -0.172554,-0.095647 -0.238046,-0.5843134 -0.145538,-1.085923 0.0925,-0.5016146 0.01141,-1.7330257 -0.180236,-2.736478 l -0.348434,-1.8244579 -2.130998,-0.161557 c -1.172049,-0.08886 -2.258664,0.06876 -2.414697,0.350251 -0.517588,0.9337503 0.430112,5.7094841 1.341939,6.7624413 0.493428,0.5697956 0.795798,1.218819 0.671934,1.4422751 -0.123863,0.2234553 -3.370084,2.63095398 -7.213822,5.3499931 -6.466734,4.574533 -7.155844,5.2049094 -9.227954,8.4414615 -1.231628,1.923768 -2.116184,3.566017 -1.965654,3.649456 0.150513,0.08344 0.914568,-0.260766 1.697896,-0.764877 2.61492,-1.682844 26.911025,-12.8014834 27.73734,-12.6934485 0.2486338,0.032501 0.5681101,-0.1502751 0.709959,-0.4061771 0.3159973,-0.57007432 6.3739926,-2.8138317 9.71010149,-3.5964197 C 7.3323696,-4.0150375 8.5858479,-4.2089878 8.739406,-3.6649308 8.8314262,-3.3389102 9.3351628,2.0766958 9.8588312,8.3697485 10.827645,20.011797 11.494425,24.940036 12.858906,30.543439 l 0.763398,3.134976 -5.2035144,4.460507 c -7.5915532,6.507537 -7.84011574,6.780576 -7.85459054,8.62805 l -0.012344,1.575706 8.18522404,-1.575148 z"
   id="path8"
   inkscape:connector-curvature="0" />
</g>
</svg>
