<?xml version="1.0" encoding="UTF-8" standalone="no"?>
<svg
   xmlns:dc="http://purl.org/dc/elements/1.1/"
   xmlns:cc="http://creativecommons.org/ns#"
   xmlns:rdf="http://www.w3.org/1999/02/22-rdf-syntax-ns#"
   xmlns:svg="http://www.w3.org/2000/svg"
   xmlns="http://www.w3.org/2000/svg"
   xmlns:sodipodi="http://sodipodi.sourceforge.net/DTD/sodipodi-0.dtd"
   xmlns:inkscape="http://www.inkscape.org/namespaces/inkscape"
   version="1.0"
   width="40.656006"
   height="42.859058"
   viewBox="0 0 8.1312012 8.5718117"
   id="svg3729"
   sodipodi:docname="plane45.svg"
   inkscape:version="0.92.4 (5da689c313, 2019-01-14)">
  <metadata
     id="metadata3735">
    <rdf:RDF>
      <cc:Work
         rdf:about="">
        <dc:format>image/svg+xml</dc:format>
        <dc:type
           rdf:resource="http://purl.org/dc/dcmitype/StillImage" />
        <dc:title></dc:title>
      </cc:Work>
    </rdf:RDF>
  </metadata>
  <defs
     id="defs3733" />
  <sodipodi:namedview
     pagecolor="#ffffff"
     bordercolor="#666666"
     borderopacity="1"
     objecttolerance="10"
     gridtolerance="10"
     guidetolerance="10"
     inkscape:pageopacity="0"
     inkscape:pageshadow="2"
     inkscape:window-width="3440"
     inkscape:window-height="1377"
     id="namedview3731"
     showgrid="false"
     inkscape:zoom="1.675"
     inkscape:cx="-418.72796"
     inkscape:cy="31.907308"
     inkscape:window-x="-8"
     inkscape:window-y="477"
     inkscape:window-maximized="1"
     inkscape:current-layer="svg3729"
     fit-margin-top="0"
     fit-margin-left="0"
     fit-margin-right="0"
     fit-margin-bottom="0" />
  <path
     style="fill:#aa0000;stroke-width:0.0865771"
     d="M 5.9864211,7.1242163 C 5.5968724,5.6999273 5.0426673,4.2030488 4.9048863,4.2030488 c -0.026848,0 -0.4771518,0.4700073 -1.0006739,1.04446 C 3.3806903,5.8219623 2.8267339,6.3776114 2.6731981,6.482284 l -0.2791559,0.1903159 0.056809,0.8742036 c 0.043762,0.673431 0.031728,0.896715 -0.052396,0.972223 -0.08528,0.07655 -0.180465,-0.03879 -0.4344764,-0.526445 -0.1788996,-0.343456 -0.3809388,-0.624464 -0.448976,-0.624464 -0.068037,0 -0.097897,-0.02815 -0.066356,-0.06256 C 1.4801873,7.2711405 1.2251133,7.0746656 0.881815,6.8689405 0.53851681,6.6632155 0.28269672,6.4675549 0.31332595,6.4341381 0.34395519,6.4007221 0.63322048,6.3729332 0.9561378,6.3723864 1.8742671,6.3708293 2.1187868,6.3021401 2.2824914,5.9997924 2.3611044,5.8546005 2.8560023,5.2485653 3.3822646,4.653046 L 4.3391052,3.570285 3.8115053,3.3013245 C 3.3077315,3.0445098 0.52706177,2.2248268 0.09272256,2.2051053 -0.0646127,2.1979861 -0.02731649,2.1658288 0.24765083,2.071613 0.52245599,1.9774563 0.8023284,1.9657643 1.408081,2.0231347 c 0.6652814,0.063004 0.8120921,0.053409 0.8811701,-0.057635 0.307465,-0.4942366 0.3910884,-0.5715611 0.5057972,-0.4676981 0.1520538,0.1376766 0.1477609,0.3463743 -0.00847,0.4117811 -0.2985558,0.1249924 -0.075111,0.2135629 0.5387712,0.2135629 0.4954146,0 0.6631029,-0.030317 0.6631029,-0.1198818 0,-0.065935 0.094018,-0.2162455 0.208928,-0.3340211 0.1892111,-0.19393 0.2211207,-0.2008371 0.3381259,-0.073183 0.1170051,0.1276523 0.1087353,0.1585145 -0.087629,0.3270307 l -0.2168271,0.186077 0.686858,0.031354 0.686858,0.031354 L 6.350757,1.3945998 C 7.0597703,0.65585182 7.6693364,0.14255032 7.9877921,0.01609002 8.2127097,-0.07322638 8.1692606,0.21647952 7.8841855,0.70690142 7.7474226,0.94217842 7.3184775,1.4934932 6.9309753,1.9320445 l -0.7045506,0.797366 v 0.5937758 c 0,0.3265771 0.023286,0.6599794 0.051745,0.7408938 0.045324,0.1288618 0.066479,0.1241684 0.1704758,-0.037822 0.1398148,-0.2177783 0.34327,-0.2415903 0.4113128,-0.048138 0.058957,0.167618 -0.1059252,0.3977018 -0.3607422,0.5033991 -0.1582316,0.065632 -0.1899042,0.1451291 -0.1899042,0.4766433 0,0.2188296 0.02367,0.5269877 0.052598,0.6847972 l 0.052599,0.2869258 0.1836242,-0.1882037 c 0.1647398,-0.1688486 0.1946793,-0.1736715 0.2911184,-0.046895 0.090219,0.1185988 0.077128,0.1765744 -0.08145,0.360733 -0.1039189,0.1206831 -0.2306175,0.2110515 -0.2815511,0.2008181 -0.1094694,-0.021994 -0.1112707,0.074494 -0.022443,1.202205 0.03764,0.477859 0.035555,0.951505 -0.0047,1.067342 -0.058825,0.169281 -0.1547654,-0.093017 -0.5126879,-1.4016727 z"
     id="path8"
     inkscape:connector-curvature="0" />
</svg>
