<?xml version="1.0" encoding="UTF-8" standalone="no"?>
<svg
   xmlns:dc="http://purl.org/dc/elements/1.1/"
   xmlns:cc="http://creativecommons.org/ns#"
   xmlns:rdf="http://www.w3.org/1999/02/22-rdf-syntax-ns#"
   xmlns:svg="http://www.w3.org/2000/svg"
   xmlns="http://www.w3.org/2000/svg"
   xmlns:sodipodi="http://sodipodi.sourceforge.net/DTD/sodipodi-0.dtd"
   xmlns:inkscape="http://www.inkscape.org/namespaces/inkscape"
   version="1.0"
   width="40"
   height="40"
   viewBox="0 0 8 8"
   id="svg3729"
   sodipodi:docname="plane90.svg"
   inkscape:version="0.92.4 (5da689c313, 2019-01-14)">
  <metadata
     id="metadata3735">
    <rdf:RDF>
      <cc:Work
         rdf:about="">
        <dc:format>image/svg+xml</dc:format>
        <dc:type
           rdf:resource="http://purl.org/dc/dcmitype/StillImage" />
        <dc:title></dc:title>
      </cc:Work>
    </rdf:RDF>
  </metadata>
  <defs
     id="defs3733" />
  <sodipodi:namedview
     pagecolor="#ffffff"
     bordercolor="#666666"
     borderopacity="1"
     objecttolerance="10"
     gridtolerance="10"
     guidetolerance="10"
     inkscape:pageopacity="0"
     inkscape:pageshadow="2"
     inkscape:window-width="3440"
     inkscape:window-height="1377"
     id="namedview3731"
     showgrid="false"
     inkscape:zoom="18.950462"
     inkscape:cx="2.026856"
     inkscape:cy="15.848669"
     inkscape:window-x="-8"
     inkscape:window-y="477"
     inkscape:window-maximized="1"
     inkscape:current-layer="svg3729"
     fit-margin-top="0"
     fit-margin-left="0"
     fit-margin-right="0"
     fit-margin-bottom="0" />
  <g
     transform="matrix(-0.00174807,-0.14066498,-0.12642073,0.00292454,8.0298442,8.3799716)"
     id="g3727">
 v2.0 14 November 2016 - Peter Lowden - peter@lowden.nz
  <path
   d="m 32,0.1 h 0.1 l 0.2,0.1 0.2,0.2 0.3,0.4 0.4,0.9 0.5,1.6 0.5,2.4 0.3,2.3 0.2,2.8 v 9.6 l 0.9,0.7 5.1,4.8 -0.2,-0.9 v -1.2 l 0.1,-1.1 0.2,-0.2 h 2.3 l 0.2,0.2 0.1,1.1 V 25 L 43.2,27 43.1,26.7 43,27 42.8,26.7 42.6,27.6 48.1,32.7 48,32 v -1.2 l 0.1,-1.1 0.2,-0.2 h 2.3 l 0.2,0.2 0.1,1.1 V 32 l -0.2,2 -0.1,-0.3 -0.1,0.3 -0.2,-0.3 -0.1,0.9 7.6,6.3 1,1.3 0.8,1.3 0.7,1.5 v 0.7 L 58.2,44.1 47.4,37.9 v 0.5 L 47.3,38.9 47,38.4 46.9,37.7 44.5,36.3 v 0.4 L 44.4,37.2 44.1,36.7 44,36 43.2,35.6 39.6,33.9 v 0.5 l -0.1,0.5 -0.3,-0.5 -0.1,-0.7 -1.8,-0.5 v 0.5 L 37.2,34.2 36.9,33.7 36.8,33 34.7,32.4 v 13.3 l -0.3,3.8 -0.2,1.6 -0.4,1.9 0.2,0.4 6.8,6.6 0.2,0.3 0.1,0.3 v 1.8 l -8.5,-2.5 -0.5,1.6 v 1.4 L 32,63 31.9,62.9 v -1.4 l -0.5,-1.6 -8.5,2.5 V 60.6 L 23,60.3 23.2,60 30,53.4 30.2,53 29.8,51.1 29.6,49.5 29.3,45.7 V 32.4 l -2.1,0.6 -0.1,0.7 -0.3,0.5 -0.1,-0.5 v -0.5 l -1.8,0.5 -0.1,0.7 -0.3,0.5 -0.1,-0.5 v -0.5 l -3.6,1.7 -0.8,0.4 -0.1,0.7 -0.3,0.5 -0.1,-0.5 v -0.4 l -2.4,1.4 -0.1,0.7 -0.3,0.5 -0.1,-0.5 V 37.9 L 5.8,44.1 3.7,45.7 V 45 l 0.7,-1.5 0.8,-1.3 1,-1.3 7.7,-6.4 -0.2,-0.8 -0.2,0.3 -0.1,-0.3 -0.1,0.3 -0.2,-2 v -1.2 l 0.1,-1.1 0.2,-0.2 h 2.3 l 0.2,0.2 0.1,1.1 V 32 L 15.9,32.7 21.4,27.6 21.2,26.7 21,27 20.9,26.7 20.8,27 20.6,25 v -1.2 l 0.1,-1.1 0.2,-0.2 h 2.3 l 0.2,0.2 0.1,1.1 V 25 l -0.2,0.9 5.1,-4.8 0.9,-0.7 V 10.8 L 29.5,8 29.8,5.7 30.3,3.3 30.8,1.7 31.2,0.8 31.5,0.4 31.7,0.2 31.9,0.1 Z"
   id="path3725"
   inkscape:connector-curvature="0"
   style="fill:#ccffff;stroke:#0014aa;stroke-width:0.1" />
</g>
  <path
     style="fill:#aa0000;stroke-width:0.05276916"
     d="m 11.366998,39.880263 c 0,-0.01537 0.188464,-0.309248 0.41881,-0.653069 0.313332,-0.46769 0.911379,-1.610198 2.374612,-4.536452 1.075691,-2.151227 1.955802,-3.92326 1.955802,-3.937848 0,-0.01459 -0.121638,-0.02653 -0.270306,-0.02653 -0.228912,0 -0.260678,-0.0116 -0.207431,-0.07576 0.03458,-0.04167 0.138411,-0.09093 0.23073,-0.109479 0.09232,-0.01854 0.210205,-0.04567 0.261968,-0.06028 0.05847,-0.0165 0.263434,-0.36476 0.541177,-0.91952 l 0.447063,-0.892959 h -0.208255 c -0.114541,0 -0.220786,-0.02027 -0.236101,-0.04505 -0.0347,-0.05615 0.197782,-0.165747 0.353906,-0.166832 0.234553,-0.0016 0.192436,0.07989 1.06964,-2.070381 l 0.489744,-1.200499 h -0.259838 c -0.142911,0 -0.259838,-0.01993 -0.259838,-0.0443 0,-0.06077 0.243158,-0.1666 0.38506,-0.167586 0.06394,-4.23e-4 0.142552,-0.01825 0.174702,-0.03958 0.0517,-0.03429 0.338999,-1.153313 0.337787,-1.315664 -3.17e-4,-0.03896 -0.106732,-0.06932 -0.277511,-0.07915 -0.258019,-0.01486 -0.268718,-0.0207 -0.155851,-0.08508 0.06665,-0.03802 0.220322,-0.08606 0.341489,-0.106741 l 0.220304,-0.03761 0.193816,-0.790335 c 0.106598,-0.434685 0.188232,-0.796449 0.181409,-0.803921 -0.0068,-0.0075 -1.91385,0.03221 -4.237839,0.08817 -3.755428,0.09044 -4.350665,0.09357 -5.3512784,0.02813 -1.5186617,-0.09932 -2.0601145,-0.161014 -2.8551832,-0.325323 l -0.6739562,-0.13928 -0.1439658,0.106299 c -0.079182,0.05846 -1.0711966,1.205285 -2.204478,2.548488 -1.1332814,1.343204 -2.1187455,2.471808 -2.1899203,2.508008 -0.1622544,0.08253 -1.21117652,0.149463 -1.21117652,0.07729 0,-0.0457 1.39026402,-5.646699 1.45520232,-5.862613 C 2.078296,20.67497 1.9853433,20.624751 1.5933468,20.494157 1.1996437,20.362995 1.0044671,20.328992 0.60195808,20.321439 l -0.50117655,-0.0094 0.50130705,-0.03083 c 0.39031239,-0.024 0.60965072,-0.07121 0.99064092,-0.213208 0.317676,-0.118401 0.4805214,-0.205344 0.4642129,-0.247844 -0.04835,-0.125997 -1.61316131,-5.776706 -1.61316131,-5.825305 0,-0.06434 1.01006341,-0.06369 1.17956671,7.54e-4 0.07208,0.02741 1.1041932,1.1267 2.2935857,2.442878 1.1893925,1.316177 2.2254998,2.421741 2.302461,2.456806 0.1181649,0.05384 0.2359499,0.03962 0.7572686,-0.09141 0.8175157,-0.205475 1.3334751,-0.289271 2.7544907,-0.447349 1.0496062,-0.116761 1.6371262,-0.141728 5.0658392,-0.215277 2.133194,-0.04576 4.048672,-0.09607 4.256618,-0.111806 l 0.378083,-0.02861 -0.09623,-0.352111 c -0.05293,-0.193661 -0.148492,-0.548016 -0.212365,-0.787456 -0.10968,-0.411162 -0.124167,-0.435346 -0.260784,-0.435346 -0.196728,0 -0.483687,-0.104821 -0.447454,-0.163447 0.01619,-0.0262 0.134893,-0.04763 0.263783,-0.04763 0.128891,0 0.23356,-0.0059 0.232599,-0.01319 -9.61e-4,-0.0073 -0.08038,-0.310019 -0.176477,-0.672807 l -0.174728,-0.659614 -0.2061,-0.0451 c -0.113355,-0.02481 -0.265465,-0.07043 -0.338023,-0.101377 -0.12397,-0.05288 -0.116502,-0.05869 0.123889,-0.09638 0.140696,-0.02206 0.265602,-0.04989 0.277566,-0.06186 0.01197,-0.01197 -0.290553,-0.725985 -0.672263,-1.586711 -0.592508,-1.33606 -0.710288,-1.565 -0.805258,-1.565252 -0.171844,-4.75e-4 -0.507009,-0.104639 -0.507009,-0.157602 0,-0.02607 0.105291,-0.05464 0.23398,-0.06348 L 16.900796,11.175396 16.425365,10.2928 15.949934,9.4102048 15.690999,9.3758558 c -0.142414,-0.018892 -0.286002,-0.066964 -0.319086,-0.1068265 -0.0497,-0.059888 -0.01221,-0.07248 0.215802,-0.07248 0.218439,0 0.269878,-0.01583 0.246808,-0.07595 -0.01603,-0.041773 -0.933785,-1.7667195 -2.039458,-3.8332161 -1.550511,-2.8978994 -2.1124,-3.899391 -2.456651,-4.37865447 -0.245487,-0.34176351 -0.446339,-0.63523667 -0.446339,-0.65216259 0,-0.0169259 0.07171,-0.0307744 0.159362,-0.0307744 0.194802,0 0.991072,0.39359643 1.528447,0.75551173 0.964588,0.64963833 1.05613,0.75115493 3.193339,3.54131873 l 2.005228,2.6178602 0.341243,-0.029991 c 0.385585,-0.033888 0.435345,-0.058332 0.308124,-0.1513573 -0.0811,-0.059304 -0.07628,-0.07266 0.05285,-0.1465516 0.336924,-0.1927853 2.257987,-0.2671022 2.464928,-0.095356 0.110985,0.092109 0.114917,1.5915855 0.0044,1.6832941 -0.114771,0.095251 -1.275157,0.1815845 -1.65926,0.1234492 -0.18056,-0.027329 -0.321612,-0.030639 -0.31345,-0.00736 0.0082,0.023282 0.71535,0.8533317 1.57153,1.8445542 0.856179,0.991224 1.604182,1.858256 1.662228,1.926739 l 0.105539,0.124515 0.316615,-0.0872 c 0.384515,-0.1059 0.393059,-0.112026 0.275825,-0.197749 -0.08572,-0.06268 -0.0792,-0.07489 0.07924,-0.148569 0.410024,-0.190674 2.240919,-0.257763 2.443615,-0.08954 0.06144,0.05099 0.07708,0.222006 0.07643,0.83599 -4.22e-4,0.424536 -0.01943,0.801199 -0.04219,0.837029 -0.02542,0.04002 -0.295366,0.08851 -0.699809,0.125723 -0.563506,0.05184 -0.711222,0.04853 -1.02461,-0.02295 -0.2014,-0.04594 -0.376968,-0.07274 -0.390154,-0.05955 -0.01319,0.01319 0.02403,0.07731 0.0827,0.142496 0.831333,0.923647 3.105906,3.57001 3.264073,3.797602 l 0.209174,0.300988 0.342999,-0.0013 c 0.18865,-7.12e-4 1.569365,-0.03102 3.068257,-0.06735 2.798583,-0.06783 3.687384,-0.04993 5.03181,0.101375 1.403675,0.157968 3.019939,0.549485 3.746611,0.907563 0.313433,0.154448 0.659614,0.471743 0.659614,0.604574 0,0.14205 -0.32934,0.478567 -0.626813,0.640472 -0.70425,0.383301 -2.141885,0.806422 -3.59472,1.057989 -1.253826,0.217107 -2.27412,0.291935 -4.749225,0.348306 -1.291525,0.02941 -2.684704,0.06772 -3.095953,0.08512 l -0.747726,0.03164 -0.233881,0.350918 c -0.128636,0.193004 -0.913277,1.180939 -1.743647,2.195411 -0.830371,1.014472 -1.503704,1.850554 -1.496297,1.857962 0.0074,0.0074 0.154934,-0.02622 0.327837,-0.07473 0.400657,-0.112407 1.659624,-0.122821 1.789775,-0.0148 0.0713,0.05917 0.08171,0.192637 0.06939,0.889452 l -0.01449,0.819832 -0.158307,0.05167 c -0.08707,0.02842 -0.597611,0.05235 -1.134537,0.05317 -0.831733,0.0013 -1.002329,-0.01225 -1.152552,-0.09136 -0.164059,-0.0864 -0.169656,-0.09773 -0.08048,-0.162932 0.0874,-0.06391 0.07737,-0.0748 -0.113909,-0.123738 -0.11536,-0.02951 -0.280983,-0.06648 -0.368052,-0.08215 -0.166093,-0.02989 -0.215672,0.02842 -3.18959,3.751721 l -0.234516,0.293611 0.260901,-0.0471 c 0.370378,-0.06687 1.703228,-0.05065 1.775484,0.0216 0.03473,0.03473 0.06838,0.373917 0.08334,0.840176 0.02069,0.644597 0.01151,0.793209 -0.05225,0.84613 -0.139556,0.115821 -0.878574,0.184645 -1.592343,0.148291 -0.73681,-0.03753 -1.045711,-0.127505 -0.927349,-0.270123 0.07012,-0.08449 0.06793,-0.08578 -0.312344,-0.183266 -0.12704,-0.03257 -0.249948,-0.03968 -0.27313,-0.0158 -0.02318,0.02388 -0.923737,1.266344 -2.001233,2.76103 -2.106611,2.92226 -2.197677,3.028923 -3.192065,3.738786 -0.549964,0.392597 -1.300087,0.799361 -1.47413,0.799361 -0.07535,0 -0.136992,-0.01257 -0.136992,-0.02794 z"
     id="path8"
     inkscape:connector-curvature="0"
     transform="scale(0.2)" />
</svg>
