<?xml version="1.0" encoding="UTF-8" standalone="no"?>
<svg
   xmlns:dc="http://purl.org/dc/elements/1.1/"
   xmlns:cc="http://creativecommons.org/ns#"
   xmlns:rdf="http://www.w3.org/1999/02/22-rdf-syntax-ns#"
   xmlns:svg="http://www.w3.org/2000/svg"
   xmlns="http://www.w3.org/2000/svg"
   xmlns:sodipodi="http://sodipodi.sourceforge.net/DTD/sodipodi-0.dtd"
   xmlns:inkscape="http://www.inkscape.org/namespaces/inkscape"
   version="1.0"
   width="40"
   height="40"
   viewBox="0 0 8 7.9999999"
   id="svg3729"
   sodipodi:docname="plane225.svg"
   inkscape:version="0.92.4 (5da689c313, 2019-01-14)">
  <metadata
     id="metadata3735">
    <rdf:RDF>
      <cc:Work
         rdf:about="">
        <dc:format>image/svg+xml</dc:format>
        <dc:type
           rdf:resource="http://purl.org/dc/dcmitype/StillImage" />
        <dc:title></dc:title>
      </cc:Work>
    </rdf:RDF>
  </metadata>
  <defs
     id="defs3733" />
  <sodipodi:namedview
     pagecolor="#ffffff"
     bordercolor="#666666"
     borderopacity="1"
     objecttolerance="10"
     gridtolerance="10"
     guidetolerance="10"
     inkscape:pageopacity="0"
     inkscape:pageshadow="2"
     inkscape:window-width="3440"
     inkscape:window-height="1377"
     id="namedview3731"
     showgrid="false"
     inkscape:zoom="26.8"
     inkscape:cx="36.129167"
     inkscape:cy="20.338111"
     inkscape:window-x="-8"
     inkscape:window-y="477"
     inkscape:window-maximized="1"
     inkscape:current-layer="svg3729"
     fit-margin-top="0"
     fit-margin-left="0"
     fit-margin-right="0"
     fit-margin-bottom="0" />
  <path
     style="fill:#aa0000;stroke-width:0.00746269"
     d="m 6.9273264,7.9537786 c -0.01847,-0.00158 -0.07669,-0.00915 -0.129384,-0.016832 L 6.7021414,7.9229726 6.0606424,7.6533688 5.4191434,7.383765 5.3765924,7.4207518 c -0.0234,0.020343 -0.05069,0.045721 -0.06064,0.056397 l -0.01809,0.01941 h 0.02369 c 0.02727,0 0.02793,0.00152 0.01164,0.026382 -0.0081,0.012436 -0.0092,0.018394 -0.0032,0.018394 0.01338,0 -0.159482,0.1499046 -0.235396,0.2041322 -0.09076,0.064831 -0.200015,0.1259402 -0.219802,0.1229396 -0.02387,-0.00362 -0.18082,-0.3078494 -0.173016,-0.3353718 0.01066,-0.037601 0.19768,-0.1836064 0.311319,-0.2430472 0.05605,-0.029319 0.05854,-0.031637 0.04105,-0.038253 -0.07171,-0.027117 -0.98938,-0.3447276 -0.99602,-0.3447276 -0.0046,0 -0.03104,0.025954 -0.05876,0.057675 l -0.0504,0.057675 0.02217,0.00762 0.02217,0.00762 -0.01431,0.017568 c -0.0079,0.00966 -0.01256,0.020386 -0.01044,0.023829 0.0056,0.00912 -0.160012,0.1520584 -0.242755,0.2094824 -0.101923,0.070735 -0.191928,0.1201964 -0.208913,0.1148056 -0.01783,-0.00566 -0.1716843,-0.3019644 -0.1716843,-0.330637 0,-0.04145 0.2127043,-0.2022248 0.3309383,-0.2501442 0.04618,-0.018718 0.06975,-0.031786 0.06343,-0.035183 -0.0055,-0.00297 -0.218544,-0.076016 -0.4733775,-0.1623206 C 3.0113939,6.5387008 2.7686163,6.4523762 2.7267219,6.4331724 2.6568063,6.4011244 2.6491981,6.3991442 2.6340863,6.4090632 2.6250303,6.4150072 2.3702103,6.5946196 2.0678181,6.8082028 1.4769428,7.225545 1.3050003,7.335809 1.0228175,7.4783464 0.75280612,7.6147352 0.44522452,7.7261658 0.27306552,7.7499672 c -0.08508,0.011762 -0.1516685,2e-4 -0.1778095,-0.030862 -0.010273,-0.012208 -0.018679,-0.030208 -0.018679,-0.039998 0,-0.034826 0.03545,-0.128618 0.072238,-0.1911224 C 0.24779612,7.3198132 0.49103412,7.038308 0.72276692,6.8237376 0.97056882,6.5942882 1.1267078,6.4741 1.7198108,6.0562612 l 0.5561297,-0.391791 0.00867,-0.093284 c 0.00477,-0.051306 0.054062,-0.344972 0.1095374,-0.6525914 0.055476,-0.3076194 0.099907,-0.5639308 0.098736,-0.569581 -0.00118,-0.00569 -0.023773,0.014982 -0.050637,0.046328 -0.052728,0.061527 -0.145348,0.1319386 -0.2594138,0.1972136 -0.046672,0.026708 -0.073532,0.037882 -0.083477,0.034725 C 2.0895295,4.6241612 2.058745,4.571899 2.0060088,4.4688048 1.9312538,4.322666 1.9203594,4.2939146 1.9330347,4.2762188 1.9464725,4.2574588 2.0587612,4.1657432 2.1238629,4.120354 2.2129539,4.058239 2.3846287,3.961759 2.3880105,3.9719046 c 0.00138,0.00416 0.011348,0.00587 0.022138,0.00381 0.015984,-0.00306 0.0187,-0.00148 0.014666,0.00855 -0.00272,0.00676 -0.00699,0.017334 -0.00948,0.023492 -0.00249,0.00616 -9e-4,0.011194 0.00354,0.011194 0.012066,0 0.12298,-0.044779 0.1315896,-0.053126 0.00685,-0.00664 0.2198728,-1.208238 0.215329,-1.2145848 -0.0011,-0.00154 -0.023129,0.016364 -0.04896,0.039766 -0.1010392,0.091542 -0.299298,0.2179612 -0.3294174,0.2100518 -0.023172,-0.00609 -0.1789838,-0.3091804 -0.172408,-0.33538 0.00542,-0.021578 0.083085,-0.090348 0.1834004,-0.1623838 0.082454,-0.059211 0.2702896,-0.1661916 0.2738494,-0.1559698 0.00132,0.00378 0.01236,0.00487 0.024545,0.00243 0.02163,-0.00433 0.021943,-0.00396 0.013188,0.015248 -0.00493,0.010824 -0.00697,0.021675 -0.00453,0.024115 0.00244,0.00244 0.031447,-0.00513 0.064461,-0.016822 0.050356,-0.017834 0.060613,-0.024264 0.063672,-0.039915 0.00201,-0.010262 0.047365,-0.3695895 0.1007984,-0.7985074 l 0.097153,-0.77985282 0.042165,-0.13007184 c 0.076679,-0.23654448 0.2268556,-0.54133633 0.2887658,-0.58606728 0.015636,-0.0112964 0.029788,-0.0191784 0.031451,-0.0175155 0.00166,0.001663 -0.00496,0.0918558 -0.014728,0.2004286 l -0.017752,0.19740514 0.021347,1.0139012 c 0.01174,0.5576457 0.022878,1.0154325 0.024749,1.0173039 0.0019,0.00188 0.01968,-0.00818 0.03958,-0.022326 0.0199,-0.01415 0.04398,-0.028118 0.05351,-0.031038 l 0.01733,-0.00531 -0.01253,0.024928 c -0.0069,0.01371 -0.02933,0.042191 -0.04985,0.06329 l -0.03732,0.038362 0.0012,0.2337872 c 6.6e-4,0.128583 0.0027,0.2352996 0.0045,0.2371478 0.0018,0.00184 0.01763,-0.00683 0.03506,-0.01928 0.01744,-0.012452 0.03948,-0.025068 0.04898,-0.028033 l 0.01728,-0.00539 -0.01481,0.028643 c -0.0081,0.015754 -0.03151,0.044946 -0.05191,0.064873 -0.03321,0.032433 -0.03681,0.039081 -0.03432,0.063433 0.0015,0.014962 0.01676,0.193434 0.03386,0.3966056 0.01709,0.2031718 0.03322,0.3718722 0.03585,0.37489 0.0026,0.00302 0.02144,-0.00563 0.04182,-0.01921 0.03498,-0.023318 0.06317,-0.037477 0.06317,-0.031731 0,0.017268 -0.02907,0.060858 -0.05969,0.089498 l -0.03838,0.035896 0.03463,0.1465966 c 0.01904,0.080628 0.03596,0.1507904 0.0376,0.155916 0.002,0.0062 0.01842,-6.6e-4 0.04915,-0.020522 0.04393,-0.028395 0.05878,-0.034897 0.05878,-0.02574 0,0.014746 -0.02966,0.055784 -0.06145,0.08501 l -0.03739,0.034377 0.04108,0.1774296 c 0.02259,0.097586 0.043,0.1793538 0.04536,0.1817054 0.0024,0.00235 0.356197,-0.2442524 0.786324,-0.5480092 0.725116,-0.5120798 0.798074,-0.561683 1.002196,-0.6813834 0.292748,-0.1716712 0.402997,-0.229227 0.563433,-0.2941416 0.129877,-0.05255 0.134999,-0.055431 0.15456,-0.086944 0.01784,-0.028736 0.03747,-0.1216374 0.165914,-0.7849514 0.08061,-0.4162922 0.151954,-0.7663054 0.159725,-0.7835822 0.0077,-0.017173 0.02205,-0.038557 0.03185,-0.047519 0.02819,-0.025798 0.196742,-0.1426061 0.198463,-0.1375348 8.6e-4,0.00252 0.07065,0.3133705 0.155114,0.6907852 0.08446,0.3774148 0.154721,0.6873688 0.156139,0.6887868 0.0046,0.0046 0.224003,-0.058825 0.241035,-0.069683 0.02523,-0.016082 0.03066,-0.01205 0.0088,0.00652 -0.0107,0.00909 -0.05385,0.062589 -0.09588,0.118892 l -0.07643,0.1023692 0.330809,0.3603172 c 0.181944,0.1981746 0.381831,0.415728 0.444192,0.4834518 0.06236,0.067724 0.113101,0.1264926 0.112756,0.130597 -3.4e-4,0.0041 -0.04442,0.038422 -0.09795,0.076261 -0.07261,0.051329 -0.105358,0.070003 -0.128973,0.073545 -0.02777,0.00416 -0.109416,-0.020087 -0.665063,-0.1975294 -0.47999,-0.1532854 -0.642439,-0.202277 -0.670711,-0.202277 h -0.03731 l -0.09709,0.1063434 c -0.127055,0.1391654 -0.237307,0.2410798 -0.49143,0.4542644 -0.19632,0.1646934 -0.256112,0.208584 -0.988806,0.7258434 -0.428918,0.3028026 -0.780816,0.5531784 -0.781994,0.5563904 -0.0028,0.00754 0.220855,0.2541734 0.230456,0.2541734 0.004,0 0.02383,-0.0084 0.04407,-0.018656 0.02025,-0.010262 0.04871,-0.018656 0.06325,-0.018656 0.0238,0 0.02558,0.00136 0.01785,0.013738 -0.0047,0.00756 -0.0249,0.024872 -0.04484,0.038481 -0.01994,0.01361 -0.03626,0.026172 -0.03626,0.027917 0,0.00249 0.08476,0.099042 0.190603,0.2171134 0.0073,0.00817 0.017,0.00585 0.05446,-0.01306 0.02631,-0.01328 0.05717,-0.022996 0.07304,-0.022996 0.0268,0 0.02716,3.6e-4 0.01429,0.014582 -0.0073,0.00802 -0.02952,0.02565 -0.04947,0.039179 -0.01995,0.013528 -0.03636,0.026514 -0.03647,0.028856 -1.75e-4,0.00386 0.415987,0.3351222 0.527534,0.4199142 l 0.04638,0.035258 0.04482,-0.022626 c 0.04363,-0.022025 0.09002,-0.029964 0.09002,-0.015404 0,0.00397 -0.01856,0.021236 -0.04125,0.038365 l -0.04125,0.031144 0.03565,0.023911 c 0.01961,0.013152 0.09908,0.065225 0.176596,0.1157198 l 0.140944,0.091809 0.04763,-0.023487 c 0.0262,-0.012918 0.05827,-0.023488 0.07127,-0.023488 h 0.02364 l -0.02131,0.022247 c -0.01172,0.012236 -0.03433,0.03127 -0.05025,0.042299 -0.02334,0.016176 -0.02707,0.021812 -0.01926,0.029154 0.0053,0.00501 0.345494,0.2316174 0.755942,0.5035802 l 0.746268,0.494478 0.158413,0.07473 0.158412,0.07473 -0.03083,0.022669 c -0.02806,0.020637 -0.04059,0.023844 -0.139756,0.035788 -0.09949,0.011982 -0.236682,0.01552 -0.321617,0.00829 z"
     id="path8"
     inkscape:connector-curvature="0" />
</svg>
