<?xml version="1.0" encoding="UTF-8" standalone="no"?>
<svg
   xmlns:dc="http://purl.org/dc/elements/1.1/"
   xmlns:cc="http://creativecommons.org/ns#"
   xmlns:rdf="http://www.w3.org/1999/02/22-rdf-syntax-ns#"
   xmlns:svg="http://www.w3.org/2000/svg"
   xmlns="http://www.w3.org/2000/svg"
   xmlns:sodipodi="http://sodipodi.sourceforge.net/DTD/sodipodi-0.dtd"
   xmlns:inkscape="http://www.inkscape.org/namespaces/inkscape"
   version="1.0"
   width="33.08905"
   height="31.189304"
   viewBox="0 0 6.6178101 6.2378609"
   id="svg3729"
   sodipodi:docname="plane15.svg"
   inkscape:version="0.92.4 (5da689c313, 2019-01-14)">
  <metadata
     id="metadata3735">
    <rdf:RDF>
      <cc:Work
         rdf:about="">
        <dc:format>image/svg+xml</dc:format>
        <dc:type
           rdf:resource="http://purl.org/dc/dcmitype/StillImage" />
        <dc:title></dc:title>
      </cc:Work>
    </rdf:RDF>
  </metadata>
  <defs
     id="defs3733" />
  <sodipodi:namedview
     pagecolor="#ffffff"
     bordercolor="#666666"
     borderopacity="1"
     objecttolerance="10"
     gridtolerance="10"
     guidetolerance="10"
     inkscape:pageopacity="0"
     inkscape:pageshadow="2"
     inkscape:window-width="3440"
     inkscape:window-height="1377"
     id="namedview3731"
     showgrid="false"
     inkscape:zoom="9.4752309"
     inkscape:cx="-43.771991"
     inkscape:cy="-7.0411178"
     inkscape:window-x="-8"
     inkscape:window-y="477"
     inkscape:window-maximized="1"
     inkscape:current-layer="g3727"
     fit-margin-top="0"
     fit-margin-left="0"
     fit-margin-right="0"
     fit-margin-bottom="0" />
  <g
     transform="matrix(-0.07029572,-0.01752669,-0.01752669,0.07029572,5.0453582,2.2477479)"
     id="g3727">
 v2.0 14 November 2016 - Peter Lowden - peter@lowden.nz
  <path
   d="m 13.141978,-28.585722 0.163806,0.0067 0.334276,0.152071 0.340938,0.290818 0.518069,0.574973 0.715187,1.275369 0.925631,2.253257 0.978929,3.36323 0.644653,3.211159 0.514158,3.898229 0.639584,13.31967316 1.520895,1.03118711 8.67393,6.99961523 -0.387574,-1.262044 -0.07995,-1.6649592 0.09052,-1.5195502 0.314288,-0.2641686 3.767553,0.1532335 0.340938,0.2908179 0.237092,1.5328749 0.07995,1.6649591 -0.194367,2.7616073 -0.183794,-0.4229021 -0.143819,0.4095775 -0.3476,-0.4295645 -0.267653,1.2353949 9.349143,7.442504 -0.210443,-0.977888 -0.07995,-1.664959 0.09052,-1.519551 0.314289,-0.264168 3.767552,0.153233 0.340938,0.290818 0.237092,1.532875 0.07995,1.664959 -0.194366,2.761607 -0.183794,-0.422902 -0.14382,0.409578 -0.3476,-0.429565 -0.103846,1.242057 12.86903,9.247373 1.724677,1.870329 1.397063,1.857004 1.246581,2.127835 0.04664,0.971226 -3.546536,-2.359854 -18.104179,-9.32182 0.03331,0.693733 -0.130495,0.687071 -0.524731,-0.71372 -0.210443,-0.977889 -4.024632,-2.102348 0.02665,0.554986 -0.130495,0.687071 -0.524732,-0.71372 -0.210443,-0.977888 -1.337102,-0.608285 -6.010298,-2.598536 0.03331,0.693733 -0.130495,0.68707 -0.524732,-0.71372 -0.210443,-0.977888 -2.981831,-0.813655 0.03331,0.693733 -0.130495,0.687071 -0.524731,-0.71372 -0.210443,-0.977889 -3.479913,-0.972388 0.886089,18.453297 -0.238252,5.252384 -0.221016,2.206621 -0.528642,2.609536 0.354263,0.568311 11.578563,9.610313 0.347601,0.429565 0.183793,0.422902 0.119922,2.497439 -14.090121,-4.034963 -0.712436,2.186634 0.09327,1.942452 -0.157145,0.132085 -0.170469,-0.145409 -0.09327,-1.942453 -0.92563,-2.253257 L 2.3862038,57.247136 2.2662819,54.749698 2.4101016,54.34012 2.7177278,53.937205 13.416865,45.232968 13.717829,44.691306 12.936018,42.028471 12.501808,39.795201 11.757219,34.502844 10.87113,16.049546 7.4711649,16.742117 7.3539945,17.706681 6.8958863,18.380427 6.698768,17.680031 6.6654564,16.986298 3.7502488,17.56011 3.6330785,18.524673 3.1749702,19.198419 2.977852,18.498024 2.94454,17.804291 l -5.7837789,2.118849 -1.2838037,0.501687 -0.1171704,0.964564 -0.4581082,0.673746 -0.1971183,-0.700395 -0.026649,-0.554986 -3.8380863,1.782556 -0.1171704,0.964564 -0.4581082,0.673746 -0.1971183,-0.700395 -0.033312,-0.693733 -17.2780503,7.882757 -3.333342,2.080037 -0.04664,-0.971226 1.046711,-2.034563 1.223843,-1.750407 1.551455,-1.737082 12.186721,-8.366783 -0.380912,-1.123298 -0.307626,0.402915 -0.183794,-0.422902 -0.143819,0.409578 -0.46086,-2.788257 -0.07995,-1.664959 0.09052,-1.51955 0.314289,-0.264169 3.767552,0.153234 0.340938,0.290817 0.237092,1.532875 0.07995,1.664959 -0.11717,0.964564 L -2.3893848,8.8633858 -2.776959,7.6013418 -3.0845853,8.0042569 -3.2683789,7.5813548 -3.4121985,7.9909323 -3.8730583,5.2026757 -3.9530062,3.5377165 -3.8624851,2.0181663 -3.5481966,1.7539978 0.21935577,1.9072313 0.56029367,2.1980491 0.79738587,3.730924 0.87733378,5.3958831 0.60968146,6.6312779 8.6440276,0.31121983 10.071651,-0.60004542 9.4320677,-13.919719 l 0.1410681,-3.87158 0.3381864,-3.171184 0.6591368,-3.296607 0.712436,-2.186634 0.595266,-1.22207 0.464771,-0.535 0.314288,-0.264168 0.320951,-0.125422 z"
   id="path3725"
   inkscape:connector-curvature="0"
   style="fill:#ccffff;stroke:#0014aa;stroke-width:0.15060951" />
<path
   style="fill:#aa0000;stroke-width:0.10553832"
   d="m 18.917774,30.855929 c -0.145115,-0.08151 -1.135163,-0.565176 -2.200106,-1.074822 l -1.936261,-0.926629 -0.303589,0.366177 -0.303591,0.366178 -0.0028,-0.45547 -0.0028,-0.455471 -1.398382,0.06116 c -0.769111,0.03364 -1.962738,0.08748 -2.652505,0.11965 -1.1393618,0.05314 -1.2479664,0.04245 -1.1868561,-0.1168 0.036996,-0.09641 0.097497,-0.295743 0.1344468,-0.442962 0.057177,-0.227812 0.4657135,-0.461282 2.7435463,-1.567879 l 2.676365,-1.300208 9.5e-4,-0.559468 c 0.0015,-0.938357 0.567014,-3.361808 1.519823,-6.513576 0.49865,-1.64947 0.906637,-3.044151 0.906637,-3.09929 0,-0.165134 -1.371996,-0.03482 -1.483146,0.140872 -0.06654,0.105186 -0.0972,0.111709 -0.09831,0.02092 -0.0026,-0.211848 -1.256694,-0.178845 -1.338844,0.03523 -0.05047,0.131526 -0.08225,0.137854 -0.149103,0.02969 -0.121158,-0.196037 -2.833038,0.244274 -3.012017,0.489043 -0.08638,0.118138 -0.136928,0.130879 -0.166559,0.04199 -0.06664,-0.199927 -1.5656391,0.191556 -1.8091393,0.472481 -0.1535112,0.177104 -0.1820195,0.185478 -0.1352352,0.03972 0.032576,-0.101581 0.019805,-0.184692 -0.028408,-0.184692 -0.2480296,0 -7.6220515,1.796348 -7.96885835,1.941254 -0.6373749,0.266312 -0.66973594,0.205058 -0.16443532,-0.311246 0.87155067,-0.89053 1.71071577,-1.34731 4.45458357,-2.424747 2.5438522,-0.998897 2.6120736,-1.033383 2.6120736,-1.32037 0,-0.162075 -0.046188,-0.310514 -0.1026392,-0.329863 -0.1279784,-0.04386 0.1572748,-1.313771 0.367007,-1.633862 0.133382,-0.203567 0.1972535,-0.217528 0.6020368,-0.131591 0.9925149,0.210716 0.9162758,0.151163 0.8083635,0.631446 -0.053509,0.23815 -0.1669105,0.599628 -0.2520037,0.803285 -0.1145083,0.274057 -0.120638,0.357052 -0.023587,0.319364 0.07212,-0.02801 0.9978616,-0.445848 2.0572026,-0.928535 1.831629,-0.834579 1.926075,-0.892134 1.926075,-1.173756 0,-0.162878 -0.04964,-0.296142 -0.110321,-0.296142 -0.06987,0 -0.08403,-0.145115 -0.03862,-0.395769 0.09536,-0.526348 0.460067,-1.5039213 0.561071,-1.5039213 0.04419,0 0.35489,0.055135 0.690434,0.1225216 l 0.610079,0.1225216 -0.06302,0.4597581 c -0.03466,0.252867 -0.138554,0.60583 -0.230876,0.784361 -0.09232,0.178533 -0.148816,0.343648 -0.12554,0.366923 0.02327,0.02328 0.972447,-0.384822 2.10927,-0.906883 1.136823,-0.522061 2.10777,-0.9492023 2.15766,-0.9492023 0.04989,0 0.416182,-1.0896029 0.813981,-2.4213398 0.777221,-2.6019493 1.33738,-4.0347503 2.060214,-5.2697177 0.462102,-0.7895015 1.346277,-1.80739175 1.569966,-1.80739175 0.06738,0 0.206714,0.12865817 0.309632,0.28590703 0.157222,0.24021804 0.185645,0.51428091 0.177864,1.71499782 -0.01115,1.7206181 -0.166672,2.5034069 -1.139725,5.7365143 l -0.690347,2.2937774 0.655821,0.823661 c 0.360702,0.453013 0.988131,1.24737 1.394288,1.765238 0.649644,0.828325 0.742264,0.909844 0.770028,0.677733 0.01736,-0.145115 0.107106,-0.51318 0.19944,-0.817922 0.186742,-0.616331 0.212513,-0.626614 1.095609,-0.437225 0.534264,0.11458 0.543789,0.123302 0.489837,0.448538 -0.0971,0.585337 -0.506364,1.545378 -0.658793,1.545378 -0.08086,0 -0.200895,0.100681 -0.266751,0.223736 -0.138392,0.258588 -0.165671,0.215753 1.354249,2.1265 0.941305,1.183348 1.185446,1.372277 1.185446,0.917359 0,-0.157478 0.271208,-0.987943 0.369277,-1.130765 0.01009,-0.01469 0.322935,0.03611 0.695221,0.112892 0.676496,0.139517 0.676868,0.139795 0.648462,0.487298 -0.03613,0.442071 -0.466775,1.536764 -0.605387,1.538898 -0.185333,0.0028 -0.368805,0.164577 -0.368805,0.325087 0,0.08577 0.790806,1.044682 1.757348,2.130922 1.849251,2.07827 2.369103,2.888835 2.526337,3.939122 l 0.06935,0.463244 -0.567059,-0.541654 c -0.311882,-0.29791 -1.747769,-1.47948 -3.190859,-2.62571 -2.001598,-1.589849 -2.645664,-2.04954 -2.715996,-1.938498 -0.07072,0.111657 -0.09368,0.0964 -0.09857,-0.06552 -0.0039,-0.129145 -0.259162,-0.408141 -0.657611,-0.718764 -0.574504,-0.447871 -0.660112,-0.485176 -0.726589,-0.316615 -0.06047,0.153329 -0.07682,0.136589 -0.08277,-0.08474 -0.0062,-0.230942 -0.192733,-0.398343 -1.146534,-1.028999 -0.626513,-0.414253 -1.169191,-0.753187 -1.205951,-0.753187 -0.03676,0 -0.08856,0.08311 -0.115103,0.184692 -0.03207,0.122719 -0.05237,0.09436 -0.06051,-0.08451 -0.0096,-0.210002 -0.118194,-0.320676 -0.49405,-0.50328 -0.264994,-0.128744 -0.526202,-0.206643 -0.580461,-0.173109 -0.05426,0.03353 -0.09865,0.01136 -0.09865,-0.04928 0,-0.137579 -1.239287,-0.772857 -1.29946,-0.666123 -0.02416,0.04285 -0.460946,1.478936 -0.970637,3.191295 -0.940953,3.161232 -1.586605,4.925869 -2.220345,6.068454 -0.289343,0.521662 -0.330449,0.670419 -0.233307,0.844306 0.06486,0.116092 0.752553,1.055409 1.528217,2.08737 0.775664,1.031961 1.436368,1.944228 1.46823,2.02726 0.06445,0.167958 -0.148224,0.900577 -0.259726,0.8947 -0.03903,-0.0021 -0.1897,-0.07043 -0.334815,-0.151931 z"
   id="path10"
   inkscape:connector-curvature="0"
   transform="matrix(-2.6786092,-0.66785223,-0.66785223,2.6786092,75.078531,-13.256422)" />
</g>
</svg>
